<svg xmlns="http://www.w3.org/2000/svg" width="48" height="48" viewBox="0 0 48 48"><defs><clipPath id="dmusa"><path fill="#fff" d="M0 24C0 10.745 10.745 0 24 0s24 10.745 24 24-10.745 24-24 24S0 37.255 0 24z"/></clipPath></defs><g><g><g><g><path fill="#959595" d="M29.835 33.28h3.1v2.17c0 .52-.41.93-.93.93h-1.24c-.52 0-.93-.41-.93-.93zm-15.496 0h3.1v2.17c0 .52-.41.93-.93.93h-1.24c-.52 0-.93-.41-.93-.93zm6.508-4.648h5.579v1.86h-5.579zm-.31-.62a.31.31 0 0 0-.31.31v2.48c0 .17.14.31.31.31h6.199a.31.31 0 0 0 .31-.31v-2.48a.31.31 0 0 0-.31-.31zm9.918-.93c.688 0 1.24.552 1.24 1.24s-.552 1.24-1.24 1.24-1.24-.552-1.24-1.24.552-1.24 1.24-1.24zm-13.637 0c.689 0 1.24.552 1.24 1.24s-.551 1.24-1.24 1.24c-.688 0-1.24-.552-1.24-1.24s.552-1.24 1.24-1.24zm13.637-.62c-1.023 0-1.86.837-1.86 1.86 0 1.023.837 1.86 1.86 1.86 1.023 0 1.86-.837 1.86-1.86 0-1.023-.837-1.86-1.86-1.86zm-13.637 0c-1.023 0-1.86.837-1.86 1.86 0 1.023.837 1.86 1.86 1.86 1.024 0 1.86-.837 1.86-1.86 0-1.023-.836-1.86-1.86-1.86zM13.1 23.984h21.075v8.678H13.1zm21.695-7.748h1.55c.177 0 .31.133.31.31v4.339c0 .177-.133.31-.31.31h-1.55zm-23.864 0h1.55v4.959h-1.55a.303.303 0 0 1-.31-.31v-4.34c0-.176.133-.309.31-.309zm13.017-2.17h10.227v9.298H23.947zm-10.848 0h10.228v9.298H13.099zm20.145-3.099c.52 0 .93.41.93.93v1.55H13.1v-1.55c0-.52.41-.93.93-.93zm-19.215-.62c-.853 0-1.55.697-1.55 1.55v3.72h-1.55c-.509 0-.929.42-.929.929v4.339c0 .51.42.93.93.93h1.55V32.97c0 .171.138.31.31.31h.93v2.17c0 .853.696 1.549 1.549 1.549h1.24c.853 0 1.55-.696 1.55-1.55v-2.169h11.156v2.17c0 .853.697 1.549 1.55 1.549h1.24c.853 0 1.55-.696 1.55-1.55v-2.169h.93a.31.31 0 0 0 .309-.31V21.814h1.55c.51 0 .93-.42.93-.93v-4.34c0-.509-.42-.929-.93-.929h-1.55v-3.719c0-.853-.696-1.55-1.55-1.55z"/></g></g></g><g><path fill="none" stroke="#e8e8e8" stroke-miterlimit="50" stroke-width="2" d="M0 24C0 10.745 10.745 0 24 0s24 10.745 24 24-10.745 24-24 24S0 37.255 0 24z" clip-path="url(&quot;#dmusa&quot;)"/></g></g></svg>