<svg xmlns="http://www.w3.org/2000/svg" width="64.031" height="64.031" viewBox="0 0 64.031 64.031">
  <g id="_11" data-name="11" transform="translate(13 12)">
    <rect id="rect4051" width="37.729" height="37.729" fill="none"/>
    <path id="path4196" d="M38.07,38.9h2.948l1.769,7.074h4.127L48.681,38.9h2.358V31.76a6.041,6.041,0,0,0-6.261-5.83,6.485,6.485,0,0,0-4.127,1.427" transform="translate(-15.627 -10.644)" fill="none" stroke="#666" stroke-linecap="round" stroke-linejoin="round" stroke-width="1"/>
    <path id="path4198" d="M43.07,12.057A4.127,4.127,0,1,0,47.2,7.93a4.127,4.127,0,0,0-4.127,4.127Z" transform="translate(-17.68 -3.255)" fill="none" stroke="#666" stroke-linecap="round" stroke-linejoin="round" stroke-width="1"/>
    <path id="path4200" d="M25,8.057A4.127,4.127,0,1,0,29.127,3.93,4.127,4.127,0,0,0,25,8.057Z" transform="translate(-10.262 -1.613)" fill="none" stroke="#ff5a39" stroke-linecap="round" stroke-linejoin="round" stroke-width="1"/>
    <path id="path4202" d="M16.9,38.9H13.952l-1.769,7.074H8.057L6.288,38.9H3.93V31.76a6.041,6.041,0,0,1,6.261-5.83,6.485,6.485,0,0,1,4.127,1.427" transform="translate(-1.613 -10.644)" fill="none" stroke="#666" stroke-linecap="round" stroke-linejoin="round" stroke-width="1"/>
    <path id="path4204" d="M27.485,21.93c-3.59,0-6.485,2.553-6.485,5.742v5.459h2.358l1.769,11.2h4.716l1.769-11.2h2.358V27.672C33.969,24.483,31.075,21.93,27.485,21.93Z" transform="translate(-8.62 -9.002)" fill="none" stroke="#ff5a39" stroke-linecap="round" stroke-linejoin="round" stroke-width="1"/>
    <path id="path4206" d="M15.183,12.057A4.127,4.127,0,1,1,11.057,7.93a4.127,4.127,0,0,1,4.127,4.127Z" transform="translate(-2.845 -3.255)" fill="none" stroke="#666" stroke-linecap="round" stroke-linejoin="round" stroke-width="1"/>
    <g id="Ellipse_2" data-name="Ellipse 2" transform="translate(-12.999 -11.999)" fill="none" stroke="#f96547" stroke-width="1">
      <circle cx="32.016" cy="32.016" r="32.016" stroke="none"/>
      <circle cx="32.016" cy="32.016" r="31.516" fill="none"/>
    </g>
  </g>
</svg>
