<svg xmlns="http://www.w3.org/2000/svg" width="32" height="24.41" viewBox="0 0 32 24.41">
    <defs>
        <style>
            .cls-1{fill:#959595}
        </style>
    </defs>
    <g id="_10" data-name="10" transform="translate(-5 -15.673)">
        <g id="Group_167" data-name="Group 167" transform="translate(5 15.674)">
            <path id="Path_405" d="M7.513 42.59a2.081 2.081 0 1 0 2.081-2.081 2.081 2.081 0 0 0-2.081 2.081zm3.113 0a1.032 1.032 0 1 1-1.032-1.032 1.033 1.033 0 0 1 1.032 1.032z" class="cls-1" data-name="Path 405" transform="translate(-6.619 -31.679)"/>
            <path id="Path_406" d="M5 59.758a1.01 1.01 0 0 0 1.007 1.007h.11v3.022a1.01 1.01 0 0 0 1.007 1.007h1.7a1.01 1.01 0 0 0 1.007-1.007v-3.022h.11a1.01 1.01 0 0 0 1.007-1.007v-3.651a2.1 2.1 0 0 0-2.088-2.089H7.089A2.1 2.1 0 0 0 5 56.107zm1.049-3.652a1.041 1.041 0 0 1 1.04-1.04H8.86a1.041 1.041 0 0 1 1.04 1.04v3.61H8.783v4.028H7.165v-4.027H6.049z" class="cls-1" data-name="Path 406" transform="translate(-5 -40.385)"/>
            <path id="Path_407" d="M34.017 40.509A2.081 2.081 0 1 0 36.1 42.59a2.081 2.081 0 0 0-2.083-2.081zm0 3.113a1.032 1.032 0 1 1 1.032-1.032 1.033 1.033 0 0 1-1.032 1.032z" class="cls-1" data-name="Path 407" transform="translate(-22.359 -31.679)"/>
            <path id="Path_408" d="M31.546 64.794h1.7a1.01 1.01 0 0 0 1.007-1.007v-3.022h.11a1.01 1.01 0 0 0 1.007-1.007v-3.651a2.1 2.1 0 0 0-2.089-2.089h-1.769a2.1 2.1 0 0 0-2.089 2.089v3.652a1.01 1.01 0 0 0 1.007 1.007h.11v3.022a1.01 1.01 0 0 0 1.006 1.006zm-1.074-5.077v-3.61a1.041 1.041 0 0 1 1.04-1.04h1.772a1.041 1.041 0 0 1 1.04 1.04v3.61h-1.118v4.028h-1.617v-4.028h-1.117z" class="cls-1" data-name="Path 408" transform="translate(-20.739 -40.385)"/>
            <path id="Path_409" d="M60.521 42.59a2.081 2.081 0 1 0-2.081 2.081 2.081 2.081 0 0 0 2.081-2.081zm-3.113 0a1.032 1.032 0 1 1 1.032 1.032 1.033 1.033 0 0 1-1.031-1.032z" class="cls-1" data-name="Path 409" transform="translate(-38.099 -31.679)"/>
            <path id="Path_410" d="M55.97 64.794h1.7a1.01 1.01 0 0 0 1.007-1.007v-3.022h.11a1.01 1.01 0 0 0 1.013-1.007v-3.651a2.1 2.1 0 0 0-2.089-2.089h-1.776a2.1 2.1 0 0 0-2.089 2.089v3.652a1.01 1.01 0 0 0 1.007 1.007h.11v3.022a1.01 1.01 0 0 0 1.007 1.006zm-1.075-5.077v-3.61a1.041 1.041 0 0 1 1.04-1.04h1.772a1.041 1.041 0 0 1 1.04 1.04v3.61h-1.118v4.028h-1.617v-4.028h-1.117z" class="cls-1" data-name="Path 410" transform="translate(-36.479 -40.385)"/>
            <path id="Path_411" d="M82.864 44.67a2.081 2.081 0 1 0-2.081-2.081 2.081 2.081 0 0 0 2.081 2.081zm0-3.113a1.032 1.032 0 1 1-1.032 1.032 1.033 1.033 0 0 1 1.032-1.031z" class="cls-1" data-name="Path 411" transform="translate(-53.838 -31.679)"/>
            <path id="Path_412" d="M82.129 54.018h-1.771a2.1 2.1 0 0 0-2.089 2.089v3.652a1.01 1.01 0 0 0 1.007 1.007h.11v3.022a1.01 1.01 0 0 0 1.007 1.007h1.7a1.01 1.01 0 0 0 1.007-1.008v-3.022h.11a1.01 1.01 0 0 0 1.007-1.007v-3.651a2.1 2.1 0 0 0-2.088-2.089zm1.04 5.7h-1.117v4.028h-1.617v-4.029h-1.117v-3.61a1.041 1.041 0 0 1 1.04-1.04h1.772a1.041 1.041 0 0 1 1.04 1.04v3.61z" class="cls-1" data-name="Path 412" transform="translate(-52.218 -40.385)"/>
            <path id="Path_413" d="M19.725 30.937a2.081 2.081 0 1 0 2.081-2.081 2.081 2.081 0 0 0-2.081 2.081zm3.112 0a1.032 1.032 0 1 1-1.032-1.037 1.033 1.033 0 0 1 1.032 1.037z" class="cls-1" data-name="Path 413" transform="translate(-14.49 -24.169)"/>
            <path id="Path_414" d="M46.229 28.856a2.081 2.081 0 1 0 2.081 2.081 2.081 2.081 0 0 0-2.081-2.081zm0 3.112a1.032 1.032 0 1 1 1.032-1.032 1.033 1.033 0 0 1-1.032 1.033z" class="cls-1" data-name="Path 414" transform="translate(-30.229 -24.169)"/>
            <path id="Path_415" d="M72.732 30.937a2.081 2.081 0 1 0-2.081 2.081 2.081 2.081 0 0 0 2.081-2.081zm-2.081 1.032a1.032 1.032 0 1 1 1.032-1.032 1.033 1.033 0 0 1-1.031 1.031z" class="cls-1" data-name="Path 415" transform="translate(-45.968 -24.169)"/>
            <path id="Path_416" d="M34.017 15.674a2.081 2.081 0 1 0 2.083 2.081 2.081 2.081 0 0 0-2.083-2.081zm0 3.113a1.032 1.032 0 1 1 1.032-1.032 1.033 1.033 0 0 1-1.032 1.032z" class="cls-1" data-name="Path 416" transform="translate(-22.359 -15.674)"/>
            <path id="Path_417" d="M58.441 15.674a2.081 2.081 0 1 0 2.081 2.081 2.081 2.081 0 0 0-2.081-2.081zm0 3.113a1.032 1.032 0 1 1 1.032-1.032 1.033 1.033 0 0 1-1.032 1.032z" class="cls-1" data-name="Path 417" transform="translate(-38.099 -15.674)"/>
        </g>
    </g>
</svg>
