<svg xmlns="http://www.w3.org/2000/svg" width="19.965" height="20.328" viewBox="0 0 19.965 20.328">
    <defs>
        <style>
            .cls-1{fill:#959595}
        </style>
    </defs>
    <g id="_6" data-name="6" transform="translate(-5.803 -5)">
        <g id="Group_168" data-name="Group 168" transform="translate(5.803 5)">
            <path id="Path_418" d="M24.331 7.37A2.37 2.37 0 1 0 26.7 5a2.373 2.373 0 0 0-2.369 2.37zM26.7 6.213a1.157 1.157 0 1 1-1.156 1.157A1.159 1.159 0 0 1 26.7 6.213z" class="cls-1" data-name="Path 418" transform="translate(-20.146 -5)"/>
            <path id="Path_419" d="M57.05 5a2.37 2.37 0 1 0 2.37 2.37A2.373 2.373 0 0 0 57.05 5zm0 3.528a1.157 1.157 0 1 1 1.157-1.158 1.159 1.159 0 0 1-1.157 1.158z" class="cls-1" data-name="Path 419" transform="translate(-43.64 -5)"/>
            <path id="Path_420" d="M13.9 28.13a2.37 2.37 0 1 0-2.371 2.37 2.373 2.373 0 0 0 2.371-2.37zm-3.528 0a1.157 1.157 0 1 1 1.157 1.157 1.158 1.158 0 0 1-1.16-1.157z" class="cls-1" data-name="Path 420" transform="translate(-8.399 -21.071)"/>
            <path id="Path_421" d="M11.112 58.074v-2.048a1.462 1.462 0 0 0 .947-1.367v-3.1a2.38 2.38 0 0 0-2.377-2.377H8.18a2.38 2.38 0 0 0-2.38 2.382v3.1a1.462 1.462 0 0 0 .946 1.367v2.048a1.462 1.462 0 0 0 1.46 1.46h1.446a1.462 1.462 0 0 0 1.46-1.465zm-3.149 0v-3.168h-.7a.25.25 0 0 1-.247-.247v-3.1A1.165 1.165 0 0 1 8.18 50.4h1.5a1.165 1.165 0 0 1 1.164 1.164v3.1a.25.25 0 0 1-.247.247H9.9v3.168a.25.25 0 0 1-.247.247H8.21a.25.25 0 0 1-.247-.252z" class="cls-1" data-name="Path 421" transform="translate(-5.803 -39.207)"/>
            <path id="Path_422" d="M44.246 28.13a2.37 2.37 0 1 0-2.37 2.37 2.373 2.373 0 0 0 2.37-2.37zm-3.527 0a1.157 1.157 0 1 1 1.157 1.157 1.158 1.158 0 0 1-1.157-1.157z" class="cls-1" data-name="Path 422" transform="translate(-31.894 -21.071)"/>
            <path id="Path_423" d="M36.152 51.564v3.1a1.462 1.462 0 0 0 .946 1.367v2.048a1.462 1.462 0 0 0 1.46 1.46H40a1.462 1.462 0 0 0 1.46-1.46v-2.053a1.462 1.462 0 0 0 .946-1.367v-3.1a2.38 2.38 0 0 0-2.377-2.377h-1.5a2.38 2.38 0 0 0-2.377 2.382zm1.213 0a1.165 1.165 0 0 1 1.164-1.164h1.5a1.165 1.165 0 0 1 1.163 1.164v3.1a.25.25 0 0 1-.247.247h-.7v3.168a.25.25 0 0 1-.247.247h-1.44a.25.25 0 0 1-.247-.247v-3.173h-.7a.25.25 0 0 1-.247-.247z" class="cls-1" data-name="Path 423" transform="translate(-29.297 -39.207)"/>
            <path id="Path_424" d="M74.595 28.13a2.37 2.37 0 1 0-2.37 2.37 2.373 2.373 0 0 0 2.37-2.37zm-3.528 0a1.157 1.157 0 1 1 1.157 1.157 1.159 1.159 0 0 1-1.157-1.157z" class="cls-1" data-name="Path 424" transform="translate(-55.387 -21.071)"/>
            <path id="Path_425" d="M66.5 51.564v3.1a1.463 1.463 0 0 0 .947 1.367v2.048a1.462 1.462 0 0 0 1.46 1.46h1.443a1.462 1.462 0 0 0 1.46-1.46v-2.053a1.462 1.462 0 0 0 .946-1.367v-3.1a2.38 2.38 0 0 0-2.377-2.377h-1.5a2.38 2.38 0 0 0-2.379 2.382zm1.213 0a1.165 1.165 0 0 1 1.165-1.164h1.5a1.165 1.165 0 0 1 1.163 1.164v3.1a.25.25 0 0 1-.247.247h-.7v3.168a.25.25 0 0 1-.247.247h-1.439a.25.25 0 0 1-.247-.247v-3.173h-.7a.25.25 0 0 1-.247-.247v-3.1z" class="cls-1" data-name="Path 425" transform="translate(-52.792 -39.207)"/>
        </g>
    </g>
</svg>
