<svg xmlns="http://www.w3.org/2000/svg" width="64.031" height="64.031" viewBox="0 0 64.031 64.031">
  <g id="_3-fee" data-name="3-fee" transform="translate(15.031 15)">
    <path id="Path_138" data-name="Path 138" d="M.523,50.411H8.365a.522.522,0,0,0,.523-.523H9.81L15.4,52.683a1.7,1.7,0,0,0,1.625-.052L28.43,45.977a1.709,1.709,0,0,0-1.154-3.159l-10.368,1.8-2.945-2.945a.521.521,0,0,0-.37-.153H8.888A.522.522,0,0,0,8.365,41H.523A.522.522,0,0,0,0,41.523v8.365A.522.522,0,0,0,.523,50.411Zm12.854-7.842L17.5,46.688a.956.956,0,0,1-1.352,1.352l-2.7-2.7-.739.739,2.7,2.7a2,2,0,0,0,2.831-2.831l-.423-.423,9.643-1.677a.663.663,0,0,1,.449,1.226L16.5,51.728a.661.661,0,0,1-.631.02l-5.7-2.85a.521.521,0,0,0-.234-.055H8.888V42.568Zm-5.534,6.8H6.8V42.046H7.842Zm-6.8-7.319H5.751v7.319H1.046Z" transform="translate(0 -19.565)" fill="#666"/>
    <path id="Path_139" data-name="Path 139" d="M26.979,21.958A10.979,10.979,0,1,0,16,10.979,10.992,10.992,0,0,0,26.979,21.958Zm0-20.912a9.933,9.933,0,1,1-9.933,9.933A9.944,9.944,0,0,1,26.979,1.046Z" transform="translate(-7.635)" fill="#666"/>
    <path id="Path_140" data-name="Path 140" d="M28.888,21.776A8.888,8.888,0,1,0,20,12.888,8.9,8.9,0,0,0,28.888,21.776Zm0-16.73a7.842,7.842,0,1,1-7.842,7.842A7.851,7.851,0,0,1,28.888,5.046Z" transform="translate(-9.544 -1.909)" fill="#666"/>
    <rect id="Rectangle_96" data-name="Rectangle 96" width="1.046" height="1.046" transform="translate(30.323 18.821)" fill="#666"/>
    <rect id="Rectangle_97" data-name="Rectangle 97" width="1.046" height="1.046" transform="translate(28.232 18.821)" fill="#666"/>
    <rect id="Rectangle_98" data-name="Rectangle 98" width="1.046" height="1.046" transform="translate(4.182 10.456)" fill="#666"/>
    <rect id="Rectangle_99" data-name="Rectangle 99" width="1.046" height="1.046" transform="translate(2.091 10.456)" fill="#666"/>
    <rect id="Rectangle_100" data-name="Rectangle 100" width="1.046" height="1.046" transform="translate(26.141 31.369)" fill="#666"/>
    <rect id="Rectangle_101" data-name="Rectangle 101" width="1.046" height="1.046" transform="translate(28.232 31.369)" fill="#666"/>
    <rect id="Rectangle_102" data-name="Rectangle 102" width="1.046" height="1.046" transform="translate(30.323 31.369)" fill="#666"/>
    <rect id="Rectangle_103" data-name="Rectangle 103" width="1.046" height="1.046" transform="translate(32.414 31.369)" fill="#666"/>
    <rect id="Rectangle_104" data-name="Rectangle 104" width="1.046" height="1.046" transform="translate(24.049 31.369)" fill="#666"/>
    <rect id="Rectangle_105" data-name="Rectangle 105" width="1.046" height="1.046" transform="translate(21.958 31.369)" fill="#666"/>
    <rect id="Rectangle_106" data-name="Rectangle 106" width="1.046" height="1.046" transform="translate(2.091 12.547)" fill="#666"/>
    <rect id="Rectangle_107" data-name="Rectangle 107" width="1.046" height="1.046" transform="translate(32.414 29.277)" fill="#666"/>
    <rect id="Rectangle_108" data-name="Rectangle 108" width="1.046" height="1.046" transform="translate(32.414 27.186)" fill="#666"/>
    <rect id="Rectangle_109" data-name="Rectangle 109" width="1.046" height="1.046" transform="translate(32.414 25.095)" fill="#666"/>
    <rect id="Rectangle_110" data-name="Rectangle 110" width="1.046" height="1.046" transform="translate(32.414 23.004)" fill="#666"/>
    <rect id="Rectangle_111" data-name="Rectangle 111" width="1.046" height="1.046" transform="translate(32.414 20.912)" fill="#666"/>
    <rect id="Rectangle_112" data-name="Rectangle 112" width="1.046" height="1.046" transform="translate(32.414 18.821)" fill="#666"/>
    <rect id="Rectangle_113" data-name="Rectangle 113" width="1.046" height="1.046" transform="translate(2.091 14.639)" fill="#666"/>
    <rect id="Rectangle_114" data-name="Rectangle 114" width="1.046" height="1.046" transform="translate(2.091 16.73)" fill="#666"/>
    <rect id="Rectangle_115" data-name="Rectangle 115" width="1.046" height="1.046" transform="translate(2.091 18.821)" fill="#666"/>
    <path id="Path_182" data-name="Path 182" d="M.608,3.042l8.17-1.853L8.665.69a.265.265,0,0,0-.316-.2L.692,2.214a.265.265,0,0,0-.2.316c.039.17.077.342.116.512ZM.54,1.762,8.294.017a.688.688,0,0,1,.821.52l.813,3.591H9.442L9.074,2.5.9,4.354l.506,2.23.045.2a.148.148,0,0,0,.177.112l.06-.014v.475l-.009,0A.574.574,0,0,1,1,6.927L.018,2.584A.686.686,0,0,1,.54,1.762h0Zm2.013,2.5a.689.689,0,0,0-.687.688V9.413a.688.688,0,0,0,.687.687H10.5a.69.69,0,0,0,.688-.687V4.945a.69.69,0,0,0-.688-.688H2.553Zm7.783,2V5.348a.1.1,0,0,0-.106-.106H8.2a.106.106,0,0,0-.106.106v.909a.106.106,0,0,0,.106.106H10.23a.106.106,0,0,0,.106-.106Zm-1.5,2.757a.107.107,0,0,1-.107-.106V8.7a.107.107,0,0,1,.107-.106h1.392a.106.106,0,0,1,.106.106v.211a.106.106,0,0,1-.106.106Zm-1.943,0a.106.106,0,0,1-.106-.106V8.7a.105.105,0,0,1,.106-.106H8.286a.106.106,0,0,1,.106.106v.21a.106.106,0,0,1-.106.106Zm-1.942,0a.106.106,0,0,1-.106-.106V8.7a.105.105,0,0,1,.106-.106H6.344A.106.106,0,0,1,6.45,8.7v.21a.106.106,0,0,1-.106.106Zm-1.942,0A.106.106,0,0,1,2.9,8.909V8.7a.105.105,0,0,1,.106-.106H4.4a.106.106,0,0,1,.106.106v.21a.106.106,0,0,1-.106.106Z" transform="translate(12.269 7.932) rotate(-19)" fill="#ff5a39" fill-rule="evenodd"/>
    <g id="Ellipse_2" data-name="Ellipse 2" transform="translate(-15.031 -15)" fill="none" stroke="#e8e8e8" stroke-width="1">
      <circle cx="32.016" cy="32.016" r="32.016" stroke="none"/>
      <circle cx="32.016" cy="32.016" r="31.516" fill="none"/>
    </g>
  </g>
</svg>
