<svg xmlns="http://www.w3.org/2000/svg" width="64.031" height="64.031" viewBox="0 0 64.031 64.031">
  <g id="_1" data-name="1" transform="translate(14.031 14)">
    <rect id="rect4060" width="36" height="36" fill="none"/>
    <path id="path4172" d="M34.07,9.1v4.686c0,4.5-4.016,8.156-9,8.156s-9-3.639-9-8.156V9.1" transform="translate(-7.031 -3.981)" fill="none" stroke="#666" stroke-linecap="round" stroke-linejoin="round" stroke-width="1"/>
    <path id="path4174" d="M27.257,22.993c-3.414,0-6.187-2.25-6.187-5.062H33.445C33.445,20.726,30.677,22.993,27.257,22.993Z" transform="translate(-9.218 -7.844)" fill="none" stroke="#ff5a39" stroke-linecap="round" stroke-linejoin="round" stroke-width="1"/>
    <path id="path4176" d="M27.257,36.93a8.544,8.544,0,0,1-3.887,4.382,4.208,4.208,0,0,0-2.3,3.5H33.445a4.208,4.208,0,0,0-2.3-3.5A8.544,8.544,0,0,1,27.257,36.93Z" transform="translate(-9.218 -16.157)" fill="none" stroke="#ff5a39" stroke-linecap="round" stroke-linejoin="round" stroke-width="1"/>
    <rect id="rect4178" width="23.625" height="3.375" rx="1.2" stroke-width="1" transform="translate(6.188 1.648)" stroke="#666" stroke-linecap="round" stroke-linejoin="round" fill="none"/>
    <rect id="rect4180" width="23.625" height="3.375" rx="1.2" stroke-width="1" transform="translate(6.188 30.898)" stroke="#666" stroke-linecap="round" stroke-linejoin="round" fill="none"/>
    <path id="path4182" d="M16.07,44.912V40.226c0-4.5,4.016-8.156,9-8.156s9,3.639,9,8.156v4.686" transform="translate(-7.031 -14.031)" fill="none" stroke="#666" stroke-linecap="round" stroke-linejoin="round" stroke-width="1"/>
    <g id="Ellipse_2" data-name="Ellipse 2" transform="translate(-14.031 -14)" fill="none" stroke="#f96547" stroke-width="1">
      <circle cx="32.016" cy="32.016" r="32.016" stroke="none"/>
      <circle cx="32.016" cy="32.016" r="31.516" fill="none"/>
    </g>
  </g>
</svg>
