<svg xmlns="http://www.w3.org/2000/svg" width="64.031" height="64.031" viewBox="0 0 64.031 64.031">
  <g id="_14" data-name="14" transform="translate(10 10)">
    <rect id="rect4254" width="42" height="42" fill="none"/>
    <path id="path4256" d="M3,51h7.875" transform="translate(-1.031 -17.531)" fill="none" stroke="#ff5a39" stroke-linecap="round" stroke-linejoin="round" stroke-width="1"/>
    <path id="path4258" d="M19.469,7l1.969,1.969c0,7.009,6.5,6.563,9.844,6.563.8,4.049,1.313,11.11,4.489,12.954,3.924,2.264,6.667,2.828,6.667,6.077v5.25H33.7c-3.668,0-4.036-.656-6.654-3.1L7,18.156l2.625-3.281Z" transform="translate(-2.406 -2.406)" fill="none" stroke="#666" stroke-linecap="round" stroke-linejoin="round" stroke-width="1"/>
    <path id="path4260" d="M22.5,30H37.594" transform="translate(-7.734 -10.313)" fill="none" stroke="#666" stroke-linecap="round" stroke-linejoin="round" stroke-width="1"/>
    <path id="path4262" d="M40.625,24.313A1.313,1.313,0,1,1,39.313,23,1.313,1.313,0,0,1,40.625,24.313Z" transform="translate(-13.063 -7.906)" fill="none" stroke="#666" stroke-linecap="round" stroke-linejoin="round" stroke-width="1"/>
    <path id="path4264" d="M3,39h7.875" transform="translate(-1.031 -13.406)" fill="none" stroke="#ff5a39" stroke-linecap="round" stroke-linejoin="round" stroke-width="1"/>
    <path id="path4266" d="M7,45h7.875" transform="translate(-2.406 -15.469)" fill="none" stroke="#ff5a39" stroke-linecap="round" stroke-linejoin="round" stroke-width="1"/>
    <path id="path4268" d="M43.727,40.11H34.992c-1.595,0-1.733-.118-1.844-.184S10.835,19.379,10.75,19.32" transform="translate(-3.695 -6.641)" fill="none" stroke="#666" stroke-linecap="round" stroke-linejoin="round" stroke-width="1"/>
    <path id="path4270" d="M26.85,34H39.863" transform="translate(-9.23 -11.688)" fill="none" stroke="#666" stroke-linecap="round" stroke-linejoin="round" stroke-width="1"/>
    <path id="path4272" d="M31,38H42.688" transform="translate(-10.656 -13.063)" fill="none" stroke="#666" stroke-linecap="round" stroke-linejoin="round" stroke-width="1"/>
    <g id="Ellipse_2" data-name="Ellipse 2" transform="translate(-10 -10)" fill="none" stroke="#f96547" stroke-width="1">
      <circle cx="32.016" cy="32.016" r="32.016" stroke="none"/>
      <circle cx="32.016" cy="32.016" r="31.516" fill="none"/>
    </g>
  </g>
</svg>
