<svg xmlns="http://www.w3.org/2000/svg" width="64.031" height="64.031" viewBox="0 0 64.031 64.031">
  <g id="_2" data-name="2" transform="translate(12 7)">
    <rect id="rect4284" width="40" height="40" fill="none"/>
    <path id="path4286" d="M14.5,54.25A1.25,1.25,0,1,1,13.25,53,1.25,1.25,0,0,1,14.5,54.25Z" transform="translate(-4.5 -19.875)" fill="none" stroke="#ff5a39" stroke-linecap="round" stroke-linejoin="round" stroke-width="1"/>
    <path id="path4288" d="M21,43.872a4.237,4.237,0,0,0,3.556,1.875H35.294c1.019,0,1.956-.531,1.956-1.55a1.588,1.588,0,0,0-1.344-1.575h.625A1.875,1.875,0,0,0,38.5,40.866a2.05,2.05,0,0,0-1.781-1.994h1.012A1.794,1.794,0,0,0,39.75,37a1.956,1.956,0,0,0-2.019-1.875h.813a1.838,1.838,0,0,0,1.831-1.875,1.875,1.875,0,0,0-1.831-1.875H30.375L31,24.047A1.875,1.875,0,0,0,29,22a1.644,1.644,0,0,0-1.644,1.144l-3.638,9.1a3.554,3.554,0,0,1-2.612,1.594" transform="translate(-7.875 -8.247)" fill="none" stroke="#666" stroke-linecap="round" stroke-linejoin="round" stroke-width="1"/>
    <rect id="rect4290" width="8.75" height="15" rx="2" stroke-width="1" transform="translate(4.375 23.131)" stroke="#666" stroke-linecap="round" stroke-linejoin="round" fill="none"/>
    <path id="path4292" d="M43.25,15.5l-1.475-4.775L37,9.25l4.775-1.469L43.25,3l1.475,4.781L49.5,9.25l-4.775,1.475Z" transform="translate(-13.875 -1.125)" fill="none" stroke="#ff5a39" stroke-linecap="round" stroke-linejoin="round" stroke-width="1"/>
    <g id="Ellipse_2" data-name="Ellipse 2" transform="translate(-12 -7)" fill="none" stroke="#f96547" stroke-width="1">
      <circle cx="32.016" cy="32.016" r="32.016" stroke="none"/>
      <circle cx="32.016" cy="32.016" r="31.516" fill="none"/>
    </g>
  </g>
</svg>
