<svg xmlns="http://www.w3.org/2000/svg" width="64.031" height="64.031" viewBox="0 0 64.031 64.031">
  <g id="_8" data-name="8" transform="translate(12 10)">
    <rect id="rect4220" width="44" height="44" fill="none"/>
    <path id="path4321" d="M33.937,28.75v-2.9l-2.949-9.762C30.816,15.516,30.548,15,30,15H3.983A1.038,1.038,0,0,0,3,16.086v2.626" transform="translate(-0.937 -4.688)" fill="none" stroke="#666" stroke-linecap="round" stroke-linejoin="round" stroke-width="1"/>
    <path id="path4327" d="M3,35v4.414A1.038,1.038,0,0,0,3.983,40.5H6.437" transform="translate(-0.937 -10.938)" fill="none" stroke="#666" stroke-linecap="round" stroke-linejoin="round" stroke-width="1"/>
    <path id="path4331" d="M18,43H28.918" transform="translate(-5.625 -13.438)" fill="none" stroke="#666" stroke-linecap="round" stroke-linejoin="round" stroke-width="1"/>
    <path id="path4333" d="M14.875,41.438a3.437,3.437,0,1,1-6.875,0H8a3.437,3.437,0,1,1,6.875,0Z" transform="translate(-2.5 -11.875)" fill="none" stroke="#666" stroke-linecap="round" stroke-linejoin="round" stroke-width="1"/>
    <path id="path4335" d="M44.875,27.25H38V19h4.125" transform="translate(-11.875 -5.938)" fill="none" stroke="#666" stroke-linecap="round" stroke-linejoin="round" stroke-width="1"/>
    <path id="path4337" d="M13.75,42.375a1.375,1.375,0,0,1-2.75,0h0a1.375,1.375,0,0,1,2.75,0Z" transform="translate(-3.438 -12.813)" fill="#666"/>
    <path id="path4339" d="M1,24H5.125" transform="translate(-0.313 -7.5)" fill="none" stroke="#ff5a39" stroke-linecap="round" stroke-linejoin="round" stroke-width="1"/>
    <path id="path4341" d="M41.375,44.688A.688.688,0,1,1,40.688,44,.687.687,0,0,1,41.375,44.688Z" transform="translate(-12.5 -13.75)" fill="#ff5a39"/>
    <path id="path4343" d="M45.867,41.164a2.661,2.661,0,0,0,1.705.584H54.55a1.031,1.031,0,0,0,0-2.062h.688a1.031,1.031,0,0,0,0-2.062h.688a1.031,1.031,0,1,0,0-2.062h.687a1.031,1.031,0,0,0,0-2.062H52.144V29.374a1.375,1.375,0,0,0-2.461-.846l-2.626,5.053a1.959,1.959,0,0,1-1.2.859" transform="translate(-14.331 -8.749)" fill="none" stroke="#ff5a39" stroke-linecap="round" stroke-linejoin="round" stroke-width="1"/>
    <rect id="rect4345" width="4.125" height="4.813" stroke-width="1" transform="translate(19.25 13.063)" stroke="#666" stroke-linecap="round" stroke-linejoin="round" fill="none"/>
    <rect id="rect4347" width="4.125" height="4.813" stroke-width="1" transform="translate(12.375 13.063)" stroke="#666" stroke-linecap="round" stroke-linejoin="round" fill="none"/>
    <path id="path4349" d="M4,28H8.125" transform="translate(-1.25 -8.75)" fill="none" stroke="#ff5a39" stroke-linecap="round" stroke-linejoin="round" stroke-width="1"/>
    <path id="path4351" d="M6,32h4.125" transform="translate(-1.875 -10)" fill="none" stroke="#ff5a39" stroke-linecap="round" stroke-linejoin="round" stroke-width="1"/>
    <path id="path4353" d="M36.064,38.42a3.438,3.438,0,0,0,0,6.3" transform="translate(-10.627 -12.006)" fill="none" stroke="#666" stroke-linecap="round" stroke-linejoin="round" stroke-width="1"/>
    <path id="path4355" d="M37.8,35H41.7a.8.8,0,0,1,.8.8v8.016a.8.8,0,0,1-.8.8H37.8a.8.8,0,0,1-.8-.8V35.8A.8.8,0,0,1,37.8,35Z" transform="translate(-11.563 -10.938)" fill="none" stroke="#ff5a39" stroke-linecap="round" stroke-linejoin="round" stroke-width="1"/>
    <path id="path4357" d="M8,19h4.125v4.813" transform="translate(-2.5 -5.938)" fill="none" stroke="#666" stroke-linecap="round" stroke-linejoin="round" stroke-width="1"/>
    <g id="Ellipse_2" data-name="Ellipse 2" transform="translate(-12 -10)" fill="none" stroke="#f96547" stroke-width="1">
      <circle cx="32.016" cy="32.016" r="32.016" stroke="none"/>
      <circle cx="32.016" cy="32.016" r="31.516" fill="none"/>
    </g>
  </g>
</svg>
