<svg width="72" height="96" viewBox="0 0 72 96" fill="none" xmlns="http://www.w3.org/2000/svg">
<rect width="72" height="96" fill="#E5E5E5"/>
<rect width="2250" height="1889" transform="translate(-641 -1237)" fill="white"/>
<path d="M72 0V88C72 92 68 96 64 96H8C4 96 0 92 0 88V0H72Z" fill="#FFCB00"/>
<path d="M36.361 43.12C30.473 43.12 25.683 38.313 25.683 32.405C25.683 26.495 30.473 21.689 36.361 21.689C42.249 21.689 47.039 26.496 47.039 32.405C47.039 38.313 42.249 43.12 36.361 43.12V43.12ZM36.361 20.489C29.811 20.489 24.483 25.834 24.483 32.405C24.483 38.975 29.812 44.32 36.361 44.32C42.911 44.32 48.239 38.975 48.239 32.405C48.239 25.834 42.911 20.489 36.361 20.489V20.489Z" fill="white"/>
<path d="M36.361 47.618C28.001 47.618 21.2 40.794 21.2 32.405C21.2 24.015 28 17.19 36.36 17.19C44.72 17.19 51.522 24.015 51.522 32.405C51.522 40.794 44.72 47.618 36.36 47.618H36.361ZM50.863 58.586L46.028 56.879L41.547 47.969C42.8176 47.5412 44.0304 46.9582 45.158 46.233L50.863 58.586ZM42.348 62.076L36.978 50.686C36.966 50.659 36.943 50.641 36.928 50.617L37.769 48.754C38.6494 48.6796 39.5223 48.5335 40.379 48.317L44.923 57.353L42.348 62.076ZM30.438 62.06L27.843 57.35L32.352 48.318C33.635 48.644 34.978 48.818 36.362 48.818L36.424 48.817L30.438 62.06ZM27.573 46.24C28.7004 46.9637 29.913 47.5455 31.183 47.972L26.737 56.88L21.932 58.586L27.573 46.24ZM52.723 32.405C52.723 23.354 45.383 15.99 36.361 15.99C27.34 15.99 20 23.354 20 32.405C20 37.775 22.584 42.551 26.57 45.547L20.25 59.376C20.2009 59.4833 20.1845 59.6026 20.2028 59.7192C20.2212 59.8357 20.2735 59.9443 20.3532 60.0312C20.4329 60.1182 20.5365 60.1798 20.651 60.2082C20.7655 60.2366 20.8859 60.2306 20.997 60.191L26.885 58.101L29.965 63.689C30.0168 63.7832 30.0929 63.8618 30.1854 63.9165C30.278 63.9712 30.3835 64 30.491 64H30.514C30.6254 63.9955 30.7333 63.9601 30.8256 63.8978C30.918 63.8354 30.9912 63.7486 31.037 63.647L36.287 52.033L41.767 63.656C41.8141 63.7564 41.8881 63.8417 41.9807 63.9025C42.0734 63.9633 42.1812 63.9972 42.292 64.0004C42.4028 64.0036 42.5123 63.976 42.6083 63.9207C42.7044 63.8654 42.7832 63.7845 42.836 63.687L45.881 58.101L51.803 60.191C51.9144 60.2305 52.0349 60.2363 52.1496 60.2076C52.2642 60.1789 52.3678 60.1169 52.4473 60.0296C52.5269 59.9422 52.5789 59.8333 52.5968 59.7165C52.6147 59.5997 52.5977 59.4802 52.548 59.373L46.16 45.541C50.142 42.544 52.723 37.771 52.723 32.405Z" fill="white"/>
<path d="M40.057 33.559C39.9637 33.6742 39.9163 33.8199 39.924 33.968L40.12 37.717L36.616 36.371C36.4777 36.3177 36.3244 36.3177 36.186 36.371L32.681 37.717L32.877 33.967C32.8848 33.8194 32.8378 33.6741 32.745 33.559L30.382 30.641L34.008 29.67C34.1513 29.6316 34.2753 29.5414 34.356 29.417L36.401 26.268L38.445 29.417C38.5258 29.5414 38.6498 29.6316 38.793 29.67L42.42 30.641L40.057 33.559ZM44.038 30.115C44.0072 30.0199 43.953 29.9341 43.8805 29.8653C43.8081 29.7965 43.7196 29.7469 43.623 29.721L39.326 28.571L36.904 24.839C36.683 24.499 36.119 24.499 35.897 24.839L33.475 28.57L29.178 29.721C29.0816 29.747 28.9931 29.7967 28.9207 29.8656C28.8483 29.9345 28.7942 30.0203 28.7635 30.1154C28.7327 30.2105 28.7261 30.3117 28.7444 30.41C28.7626 30.5082 28.8051 30.6003 28.868 30.678L31.668 34.135L31.434 38.577C31.4287 38.6769 31.4485 38.7765 31.4915 38.8668C31.5345 38.9571 31.5994 39.0352 31.6803 39.094C31.7612 39.1528 31.8555 39.1905 31.9546 39.2036C32.0538 39.2167 32.1547 39.2048 32.248 39.169L36.401 37.574L40.553 39.169C40.6464 39.2045 40.7472 39.2162 40.8463 39.203C40.9453 39.1898 41.0395 39.1521 41.1203 39.0933C41.2011 39.0346 41.266 38.9566 41.3091 38.8664C41.3522 38.7763 41.3721 38.6768 41.367 38.577L41.134 34.135L43.934 30.678C43.9969 30.6002 44.0394 30.508 44.0575 30.4097C44.0757 30.3114 44.069 30.2101 44.038 30.115V30.115Z" fill="white"/>
<text fill="white" xml:space="preserve" style="white-space: pre" font-family="Montserrat" font-size="9" letter-spacing="0em"><tspan x="6" y="78.7265">Most Popular</tspan></text>
</svg>
