<svg xmlns="http://www.w3.org/2000/svg" width="106" height="129" viewBox="0 0 106 129"><defs><mask id="a8hsb" width="2" height="2" x="-1" y="-1"><path fill="#fff" d="M17 1h72v96H17z"/><path d="M89 1v88c0 4-4 8-8 8H25c-4 0-8-4-8-8V1z"/></mask><filter id="a8hsa" width="132" height="172" x="-13" y="-29" filterUnits="userSpaceOnUse"><feOffset dy="16" in="SourceGraphic" result="FeOffset1074Out"/><feGaussianBlur in="FeOffset1074Out" result="FeGaussianBlur1075Out" stdDeviation="8 8"/></filter></defs><g><g><g><g><g filter="url(#a8hsa)"><path fill="none" d="M89 1v88c0 4-4 8-8 8H25c-4 0-8-4-8-8V1z" mask="url(&quot;#a8hsb&quot;)"/><path fill="#00aaf6" fill-opacity=".3" d="M89 1v88c0 4-4 8-8 8H25c-4 0-8-4-8-8V1z"/></g><path fill="#00aaf6" d="M89 1v88c0 4-4 8-8 8H25c-4 0-8-4-8-8V1z"/></g><g><g><text fill="#fff" style="line-height:12px;font-kerning:normal" dominant-baseline="text-before-edge" font-family="'Montserrat','Montserrat-Regular'" font-size="10" font-style="none" font-weight="400" transform="translate(22 67)"><tspan>Last Minute </tspan><tspan> </tspan><tspan>Deal</tspan></text></g></g><g><g><path fill="#fff" d="M53.5 52.975c-6.342 0-11.5-5.158-11.5-11.5 0-5.832 4.367-10.652 10-11.39v-2.023c-6.749.747-12 6.464-12 13.412 0 7.456 6.044 13.5 13.5 13.5 6.949 0 12.666-5.25 13.412-12h-2.021c-.739 5.634-5.559 10.001-11.391 10.001z"/></g><g><path fill="#fff" d="M63 40.975h-8.092a1.491 1.491 0 0 0-.908-.908v-8.092h-1v8.092a1.496 1.496 0 1 0 1.908 1.908H63z"/></g><g><path fill="#fff" d="M58.807 31.284l1.004-1.739a13.377 13.377 0 0 0-2.336-.973l-.518 1.936c.644.203 1.26.467 1.85.776z"/></g><g><path fill="#fff" d="M64.975 40.975h2a13.529 13.529 0 0 0-.322-2.508l-1.932.518c.142.644.224 1.31.254 1.99z"/></g><g><path fill="#fff" d="M61.258 33.01l1.418-1.418a13.519 13.519 0 0 0-2.004-1.54l-1.002 1.734a11.67 11.67 0 0 1 1.588 1.224z"/></g><g><path fill="#fff" d="M63.188 35.304l1.735-1a13.534 13.534 0 0 0-1.54-2.005l-1.418 1.418c.451.492.861 1.022 1.223 1.587z"/></g><g><path fill="#fff" d="M55.989 30.254l.518-1.932A13.434 13.434 0 0 0 54 28v2c.68.03 1.345.112 1.989.254z"/></g><g><path fill="#fff" d="M64.467 38.018l1.936-.518a13.347 13.347 0 0 0-.974-2.337l-1.738 1.004c.309.59.573 1.207.776 1.851z"/></g></g></g></g></g></svg>