<svg width="72" height="96" viewBox="0 0 72 96" fill="none" xmlns="http://www.w3.org/2000/svg">
<path d="M72 0V88C72 92 68 96 64 96H8C4 96 0 92 0 88V0H72Z" fill="#FFCB00"/>
<path d="M36.361 43.12C30.473 43.12 25.683 38.313 25.683 32.405C25.683 26.495 30.473 21.689 36.361 21.689C42.249 21.689 47.039 26.496 47.039 32.405C47.039 38.313 42.249 43.12 36.361 43.12V43.12ZM36.361 20.489C29.811 20.489 24.483 25.834 24.483 32.405C24.483 38.975 29.812 44.32 36.361 44.32C42.911 44.32 48.239 38.975 48.239 32.405C48.239 25.834 42.911 20.489 36.361 20.489V20.489Z" fill="white"/>
<path d="M36.361 47.618C28.001 47.618 21.2 40.794 21.2 32.405C21.2 24.015 28 17.19 36.36 17.19C44.72 17.19 51.522 24.015 51.522 32.405C51.522 40.794 44.72 47.618 36.36 47.618H36.361ZM50.863 58.586L46.028 56.879L41.547 47.969C42.8176 47.5412 44.0304 46.9582 45.158 46.233L50.863 58.586ZM42.348 62.076L36.978 50.686C36.966 50.659 36.943 50.641 36.928 50.617L37.769 48.754C38.6494 48.6796 39.5223 48.5335 40.379 48.317L44.923 57.353L42.348 62.076ZM30.438 62.06L27.843 57.35L32.352 48.318C33.635 48.644 34.978 48.818 36.362 48.818L36.424 48.817L30.438 62.06ZM27.573 46.24C28.7004 46.9637 29.913 47.5455 31.183 47.972L26.737 56.88L21.932 58.586L27.573 46.24ZM52.723 32.405C52.723 23.354 45.383 15.99 36.361 15.99C27.34 15.99 20 23.354 20 32.405C20 37.775 22.584 42.551 26.57 45.547L20.25 59.376C20.2009 59.4833 20.1845 59.6026 20.2028 59.7192C20.2212 59.8357 20.2735 59.9443 20.3532 60.0312C20.4329 60.1182 20.5365 60.1798 20.651 60.2082C20.7655 60.2366 20.8859 60.2306 20.997 60.191L26.885 58.101L29.965 63.689C30.0168 63.7832 30.0929 63.8618 30.1854 63.9165C30.278 63.9712 30.3835 64 30.491 64H30.514C30.6254 63.9955 30.7333 63.9601 30.8256 63.8978C30.918 63.8354 30.9912 63.7486 31.037 63.647L36.287 52.033L41.767 63.656C41.8141 63.7564 41.8881 63.8417 41.9807 63.9025C42.0734 63.9633 42.1812 63.9972 42.292 64.0004C42.4028 64.0036 42.5123 63.976 42.6083 63.9207C42.7044 63.8654 42.7832 63.7845 42.836 63.687L45.881 58.101L51.803 60.191C51.9144 60.2305 52.0349 60.2363 52.1496 60.2076C52.2642 60.1789 52.3678 60.1169 52.4473 60.0296C52.5269 59.9422 52.5789 59.8333 52.5968 59.7165C52.6147 59.5997 52.5977 59.4802 52.548 59.373L46.16 45.541C50.142 42.544 52.723 37.771 52.723 32.405Z" fill="white"/>
<path d="M40.057 33.559C39.9637 33.6742 39.9163 33.8199 39.924 33.968L40.12 37.717L36.616 36.371C36.4777 36.3177 36.3244 36.3177 36.186 36.371L32.681 37.717L32.877 33.967C32.8848 33.8194 32.8378 33.6741 32.745 33.559L30.382 30.641L34.008 29.67C34.1513 29.6316 34.2753 29.5414 34.356 29.417L36.401 26.268L38.445 29.417C38.5258 29.5414 38.6498 29.6316 38.793 29.67L42.42 30.641L40.057 33.559ZM44.038 30.115C44.0072 30.0199 43.953 29.9341 43.8805 29.8653C43.8081 29.7965 43.7196 29.7469 43.623 29.721L39.326 28.571L36.904 24.839C36.683 24.499 36.119 24.499 35.897 24.839L33.475 28.57L29.178 29.721C29.0816 29.747 28.9931 29.7967 28.9207 29.8656C28.8483 29.9345 28.7942 30.0203 28.7635 30.1154C28.7327 30.2105 28.7261 30.3117 28.7444 30.41C28.7626 30.5082 28.8051 30.6003 28.868 30.678L31.668 34.135L31.434 38.577C31.4287 38.6769 31.4485 38.7765 31.4915 38.8668C31.5345 38.9571 31.5994 39.0352 31.6803 39.094C31.7612 39.1528 31.8555 39.1905 31.9546 39.2036C32.0538 39.2167 32.1547 39.2048 32.248 39.169L36.401 37.574L40.553 39.169C40.6464 39.2045 40.7472 39.2162 40.8463 39.203C40.9453 39.1898 41.0395 39.1521 41.1203 39.0933C41.2011 39.0346 41.266 38.9566 41.3091 38.8664C41.3522 38.7763 41.3721 38.6768 41.367 38.577L41.134 34.135L43.934 30.678C43.9969 30.6002 44.0394 30.508 44.0575 30.4097C44.0757 30.3114 44.069 30.2101 44.038 30.115V30.115Z" fill="white"/>
<path d="M13.569 72.7V79H12.93V73.96L10.455 78.199H10.14L7.665 73.987V79H7.026V72.7H7.575L10.311 77.371L13.02 72.7H13.569ZM17.4217 79.045C16.9657 79.045 16.5547 78.943 16.1887 78.739C15.8227 78.529 15.5347 78.241 15.3247 77.875C15.1147 77.509 15.0097 77.095 15.0097 76.633C15.0097 76.171 15.1147 75.757 15.3247 75.391C15.5347 75.025 15.8227 74.74 16.1887 74.536C16.5547 74.332 16.9657 74.23 17.4217 74.23C17.8777 74.23 18.2887 74.332 18.6547 74.536C19.0207 74.74 19.3057 75.025 19.5097 75.391C19.7197 75.757 19.8247 76.171 19.8247 76.633C19.8247 77.095 19.7197 77.509 19.5097 77.875C19.3057 78.241 19.0207 78.529 18.6547 78.739C18.2887 78.943 17.8777 79.045 17.4217 79.045ZM17.4217 78.478C17.7577 78.478 18.0577 78.403 18.3217 78.253C18.5917 78.097 18.8017 77.878 18.9517 77.596C19.1017 77.314 19.1767 76.993 19.1767 76.633C19.1767 76.273 19.1017 75.952 18.9517 75.67C18.8017 75.388 18.5917 75.172 18.3217 75.022C18.0577 74.866 17.7577 74.788 17.4217 74.788C17.0857 74.788 16.7827 74.866 16.5127 75.022C16.2487 75.172 16.0387 75.388 15.8827 75.67C15.7327 75.952 15.6577 76.273 15.6577 76.633C15.6577 76.993 15.7327 77.314 15.8827 77.596C16.0387 77.878 16.2487 78.097 16.5127 78.253C16.7827 78.403 17.0857 78.478 17.4217 78.478ZM22.3983 79.045C22.0143 79.045 21.6453 78.991 21.2913 78.883C20.9433 78.769 20.6703 78.628 20.4723 78.46L20.7603 77.956C20.9583 78.112 21.2073 78.241 21.5073 78.343C21.8073 78.439 22.1193 78.487 22.4433 78.487C22.8753 78.487 23.1933 78.421 23.3973 78.289C23.6073 78.151 23.7123 77.959 23.7123 77.713C23.7123 77.539 23.6553 77.404 23.5413 77.308C23.4273 77.206 23.2833 77.131 23.1093 77.083C22.9353 77.029 22.7043 76.978 22.4163 76.93C22.0323 76.858 21.7233 76.786 21.4893 76.714C21.2553 76.636 21.0543 76.507 20.8863 76.327C20.7243 76.147 20.6433 75.898 20.6433 75.58C20.6433 75.184 20.8083 74.86 21.1383 74.608C21.4683 74.356 21.9273 74.23 22.5153 74.23C22.8213 74.23 23.1273 74.272 23.4333 74.356C23.7393 74.434 23.9913 74.539 24.1893 74.671L23.9103 75.184C23.5203 74.914 23.0553 74.779 22.5153 74.779C22.1073 74.779 21.7983 74.851 21.5883 74.995C21.3843 75.139 21.2823 75.328 21.2823 75.562C21.2823 75.742 21.3393 75.886 21.4533 75.994C21.5733 76.102 21.7203 76.183 21.8943 76.237C22.0683 76.285 22.3083 76.336 22.6143 76.39C22.9923 76.462 23.2953 76.534 23.5233 76.606C23.7513 76.678 23.9463 76.801 24.1083 76.975C24.2703 77.149 24.3513 77.389 24.3513 77.695C24.3513 78.109 24.1773 78.439 23.8293 78.685C23.4873 78.925 23.0103 79.045 22.3983 79.045ZM28.0256 78.712C27.9056 78.82 27.7556 78.904 27.5756 78.964C27.4016 79.018 27.2186 79.045 27.0266 79.045C26.5826 79.045 26.2406 78.925 26.0006 78.685C25.7606 78.445 25.6406 78.106 25.6406 77.668V74.806H24.7946V74.266H25.6406V73.231H26.2796V74.266H27.7196V74.806H26.2796V77.632C26.2796 77.914 26.3486 78.13 26.4866 78.28C26.6306 78.424 26.8346 78.496 27.0986 78.496C27.2306 78.496 27.3566 78.475 27.4766 78.433C27.6026 78.391 27.7106 78.331 27.8006 78.253L28.0256 78.712ZM34.0373 72.7C34.8413 72.7 35.4713 72.892 35.9273 73.276C36.3833 73.66 36.6113 74.188 36.6113 74.86C36.6113 75.532 36.3833 76.06 35.9273 76.444C35.4713 76.822 34.8413 77.011 34.0373 77.011H32.3453V79H31.6793V72.7H34.0373ZM34.0193 76.426C34.6433 76.426 35.1203 76.291 35.4503 76.021C35.7803 75.745 35.9453 75.358 35.9453 74.86C35.9453 74.35 35.7803 73.96 35.4503 73.69C35.1203 73.414 34.6433 73.276 34.0193 73.276H32.3453V76.426H34.0193ZM39.825 79.045C39.369 79.045 38.958 78.943 38.592 78.739C38.226 78.529 37.938 78.241 37.728 77.875C37.518 77.509 37.413 77.095 37.413 76.633C37.413 76.171 37.518 75.757 37.728 75.391C37.938 75.025 38.226 74.74 38.592 74.536C38.958 74.332 39.369 74.23 39.825 74.23C40.281 74.23 40.692 74.332 41.058 74.536C41.424 74.74 41.709 75.025 41.913 75.391C42.123 75.757 42.228 76.171 42.228 76.633C42.228 77.095 42.123 77.509 41.913 77.875C41.709 78.241 41.424 78.529 41.058 78.739C40.692 78.943 40.281 79.045 39.825 79.045ZM39.825 78.478C40.161 78.478 40.461 78.403 40.725 78.253C40.995 78.097 41.205 77.878 41.355 77.596C41.505 77.314 41.58 76.993 41.58 76.633C41.58 76.273 41.505 75.952 41.355 75.67C41.205 75.388 40.995 75.172 40.725 75.022C40.461 74.866 40.161 74.788 39.825 74.788C39.489 74.788 39.186 74.866 38.916 75.022C38.652 75.172 38.442 75.388 38.286 75.67C38.136 75.952 38.061 76.273 38.061 76.633C38.061 76.993 38.136 77.314 38.286 77.596C38.442 77.878 38.652 78.097 38.916 78.253C39.186 78.403 39.489 78.478 39.825 78.478ZM45.9716 74.23C46.4156 74.23 46.8176 74.332 47.1776 74.536C47.5376 74.734 47.8196 75.016 48.0236 75.382C48.2276 75.748 48.3296 76.165 48.3296 76.633C48.3296 77.107 48.2276 77.527 48.0236 77.893C47.8196 78.259 47.5376 78.544 47.1776 78.748C46.8236 78.946 46.4216 79.045 45.9716 79.045C45.5876 79.045 45.2396 78.967 44.9276 78.811C44.6216 78.649 44.3696 78.415 44.1716 78.109V80.746H43.5326V74.266H44.1446V75.202C44.3366 74.89 44.5886 74.65 44.9006 74.482C45.2186 74.314 45.5756 74.23 45.9716 74.23ZM45.9266 78.478C46.2566 78.478 46.5566 78.403 46.8266 78.253C47.0966 78.097 47.3066 77.878 47.4566 77.596C47.6126 77.314 47.6906 76.993 47.6906 76.633C47.6906 76.273 47.6126 75.955 47.4566 75.679C47.3066 75.397 47.0966 75.178 46.8266 75.022C46.5566 74.866 46.2566 74.788 45.9266 74.788C45.5906 74.788 45.2876 74.866 45.0176 75.022C44.7536 75.178 44.5436 75.397 44.3876 75.679C44.2376 75.955 44.1626 76.273 44.1626 76.633C44.1626 76.993 44.2376 77.314 44.3876 77.596C44.5436 77.878 44.7536 78.097 45.0176 78.253C45.2876 78.403 45.5906 78.478 45.9266 78.478ZM53.8982 74.266V79H53.2862V78.136C53.1182 78.424 52.8872 78.649 52.5932 78.811C52.2992 78.967 51.9632 79.045 51.5852 79.045C50.9672 79.045 50.4782 78.874 50.1182 78.532C49.7642 78.184 49.5872 77.677 49.5872 77.011V74.266H50.2262V76.948C50.2262 77.446 50.3492 77.824 50.5952 78.082C50.8412 78.34 51.1922 78.469 51.6482 78.469C52.1462 78.469 52.5392 78.319 52.8272 78.019C53.1152 77.713 53.2592 77.29 53.2592 76.75V74.266H53.8982ZM55.6879 72.322H56.3269V79H55.6879V72.322ZM59.7609 74.23C60.3789 74.23 60.8529 74.386 61.1829 74.698C61.5129 75.004 61.6779 75.46 61.6779 76.066V79H61.0659V78.262C60.9219 78.508 60.7089 78.7 60.4269 78.838C60.1509 78.976 59.8209 79.045 59.4369 79.045C58.9089 79.045 58.4889 78.919 58.1769 78.667C57.8649 78.415 57.7089 78.082 57.7089 77.668C57.7089 77.266 57.8529 76.942 58.1409 76.696C58.4349 76.45 58.8999 76.327 59.5359 76.327H61.0389V76.039C61.0389 75.631 60.9249 75.322 60.6969 75.112C60.4689 74.896 60.1359 74.788 59.6979 74.788C59.3979 74.788 59.1099 74.839 58.8339 74.941C58.5579 75.037 58.3209 75.172 58.1229 75.346L57.8349 74.869C58.0749 74.665 58.3629 74.509 58.6989 74.401C59.0349 74.287 59.3889 74.23 59.7609 74.23ZM59.5359 78.541C59.8959 78.541 60.2049 78.46 60.4629 78.298C60.7209 78.13 60.9129 77.89 61.0389 77.578V76.804H59.5539C58.7439 76.804 58.3389 77.086 58.3389 77.65C58.3389 77.926 58.4439 78.145 58.6539 78.307C58.8639 78.463 59.1579 78.541 59.5359 78.541ZM64.0255 75.193C64.1755 74.875 64.3975 74.635 64.6915 74.473C64.9915 74.311 65.3605 74.23 65.7985 74.23V74.851L65.6455 74.842C65.1475 74.842 64.7575 74.995 64.4755 75.301C64.1935 75.607 64.0525 76.036 64.0525 76.588V79H63.4135V74.266H64.0255V75.193Z" fill="white"/>
</svg>
