<svg xmlns="http://www.w3.org/2000/svg" width="106" height="129" viewBox="0 0 106 129"><defs><mask id="hycbb" width="2" height="2" x="-1" y="-1"><path fill="#fff" d="M17 1h72v96H17z"/><path d="M89 1v88c0 4-4 8-8 8H25c-4 0-8-4-8-8V1z"/></mask><filter id="hycba" width="132" height="172" x="-13" y="-29" filterUnits="userSpaceOnUse"><feOffset dy="16" in="SourceGraphic" result="FeOffset1363Out"/><feGaussianBlur in="FeOffset1363Out" result="FeGaussianBlur1364Out" stdDeviation="8 8"/></filter></defs><g><g><g><g filter="url(#hycba)"><path fill="none" d="M89 1v88c0 4-4 8-8 8H25c-4 0-8-4-8-8V1z" mask="url(&quot;#hycbb&quot;)"/><path fill="#ffcb00" fill-opacity=".3" d="M89 1v88c0 4-4 8-8 8H25c-4 0-8-4-8-8V1z"/></g><path fill="#ffcb00" d="M89 1v88c0 4-4 8-8 8H25c-4 0-8-4-8-8V1z"/></g><g><g><path fill="#fff" d="M53.361 44.12c-5.888 0-10.678-4.807-10.678-10.715 0-5.91 4.79-10.716 10.678-10.716 5.888 0 10.678 4.807 10.678 10.716 0 5.908-4.79 10.715-10.678 10.715zm0-22.631c-6.55 0-11.878 5.345-11.878 11.916 0 6.57 5.329 11.915 11.878 11.915 6.55 0 11.878-5.345 11.878-11.915 0-6.571-5.328-11.916-11.878-11.916z"/></g><g><path fill="#fff" d="M53.361 48.618c-8.36 0-15.161-6.824-15.161-15.213C38.2 25.015 45 18.19 53.36 18.19s15.162 6.825 15.162 15.215c0 8.389-6.802 15.213-15.162 15.213zm14.502 10.968l-4.835-1.707-4.481-8.91a16.277 16.277 0 0 0 3.611-1.736zm-8.515 3.49l-5.37-11.39c-.012-.027-.035-.045-.05-.069l.841-1.863a16.232 16.232 0 0 0 2.61-.437l4.544 9.036zm-11.91-.016l-2.595-4.71 4.509-9.032c1.283.326 2.626.5 4.01.5l.062-.001zm-2.865-15.82a16.273 16.273 0 0 0 3.61 1.732l-4.446 8.908-4.805 1.706zm25.15-13.835c0-9.051-7.34-16.415-16.362-16.415C44.34 16.99 37 24.354 37 33.405c0 5.37 2.584 10.146 6.57 13.142L37.25 60.376a.6.6 0 0 0 .747.815l5.888-2.09 3.08 5.588a.6.6 0 0 0 .526.311h.023a.6.6 0 0 0 .523-.353l5.25-11.614 5.48 11.623a.599.599 0 0 0 1.069.031l3.045-5.586 5.922 2.09a.6.6 0 0 0 .745-.818L63.16 46.541c3.982-2.997 6.563-7.77 6.563-13.136z"/></g><g><path fill="#fff" d="M57.057 34.559a.6.6 0 0 0-.133.409l.196 3.749-3.504-1.346a.598.598 0 0 0-.43 0l-3.505 1.346.196-3.75a.6.6 0 0 0-.132-.408l-2.363-2.918 3.626-.971a.6.6 0 0 0 .348-.253l2.045-3.149 2.044 3.149a.6.6 0 0 0 .348.253l3.627.971zm3.981-3.444a.6.6 0 0 0-.415-.394l-4.297-1.15-2.422-3.732c-.221-.34-.785-.34-1.007 0l-2.422 3.731-4.297 1.151a.6.6 0 0 0-.31.957l2.8 3.457-.234 4.442a.6.6 0 0 0 .814.592l4.153-1.595 4.152 1.595a.601.601 0 0 0 .814-.592l-.233-4.442 2.8-3.457a.6.6 0 0 0 .104-.563z"/></g></g><g><g><text fill="#fff" style="line-height:12px;font-kerning:normal" dominant-baseline="text-before-edge" font-family="'Montserrat','Montserrat-Regular'" font-size="9" font-style="none" font-weight="400" transform="translate(23 80)"><tspan>Most Popular</tspan></text></g></g></g></g></svg>