<svg xmlns="http://www.w3.org/2000/svg" width="132" height="156" viewBox="0 0 132 156">
    <defs>
        <style>
            .cls-1{fill:#00aaf6}.cls-2,.cls-3{fill:#fff}.cls-2{font-size:13px;font-family:Montserrat-Regular,Montserrat}.cls-4{filter:url(#Bg)}
        </style>
        <filter id="Bg" width="132" height="156" x="0" y="0" filterUnits="userSpaceOnUse">
            <feOffset dy="16"/>
            <feGaussianBlur result="blur" stdDeviation="10"/>
            <feFlood flood-color="#00aaf6" flood-opacity=".302"/>
            <feComposite in2="blur" operator="in"/>
            <feComposite in="SourceGraphic"/>
        </filter>
    </defs>
    <g id="Badge" transform="translate(-202 -3762)">
        <g id="Top_deal" data-name="Top deal" transform="translate(56 2456)">
            <g class="cls-4" transform="translate(146 1306)">
                <path id="Bg-2" d="M0 0h88a8 8 0 0 1 8 8v56a8 8 0 0 1-8 8H0V0z" class="cls-1" data-name="Bg" transform="rotate(90 44 58)"/>
            </g>
            <text id="Top_Deal-2" class="cls-2" data-name="Top Deal" transform="translate(184 1408)">
                <tspan x="0" y="0">Top Deal</tspan>
            </text>
            <g id="Like" transform="translate(193.979 1340)">
                <path id="Path_474" d="M8.433 34.5h-5.6a2.817 2.817 0 0 1-2.812-2.815v-16.87A2.818 2.818 0 0 1 2.835 12h5.6a2.819 2.819 0 0 1 2.815 2.815v16.87A2.818 2.818 0 0 1 8.433 34.5zm-5.6-20.25a.565.565 0 0 0-.564.565v16.87a.566.566 0 0 0 .564.565h5.6A.566.566 0 0 0 9 31.685v-16.87a.565.565 0 0 0-.565-.565z" class="cls-3" data-name="Path 474" transform="translate(0 1.5)"/>
                <path id="Path_475" d="M28.43 36H14.8a4.522 4.522 0 0 1-2.01-.475L9 33.631a1.125 1.125 0 0 1 1-2.013l3.789 1.895a2.254 2.254 0 0 0 1 .237H28.43a1.153 1.153 0 0 0 1-.579l1.27-2.223a18.451 18.451 0 0 0 2.427-9.138V18a2.255 2.255 0 0 0-2.252-2.252H22.4a2.245 2.245 0 0 1-2.085-3.079 21.644 21.644 0 0 0 1.56-8.069V3.3a1.043 1.043 0 0 0-1.042-1.05h-.7a1.046 1.046 0 0 0-1 .755l-.441 1.542a25.68 25.68 0 0 1-4.659 9.024A5.773 5.773 0 0 1 9.5 15.75H6.125a1.125 1.125 0 0 1 0-2.25H9.5a3.539 3.539 0 0 0 2.777-1.335 23.442 23.442 0 0 0 4.251-8.236l.441-1.542A3.306 3.306 0 0 1 20.133 0h.7a3.3 3.3 0 0 1 3.292 3.292V4.6a23.9 23.9 0 0 1-1.716 8.911l8.463-.007a4.507 4.507 0 0 1 4.5 4.5v3.807a20.7 20.7 0 0 1-2.724 10.256l-1.27 2.223A3.407 3.407 0 0 1 28.43 36z" class="cls-3" data-name="Path 475" transform="translate(.622)"/>
                <circle id="Ellipse_45" cx="1.125" cy="1.125" r="1.125" class="cls-3" data-name="Ellipse 45" transform="translate(4.497 29.25)"/>
            </g>
        </g>
    </g>
</svg>
