<svg width="72" height="96" viewBox="0 0 72 96" fill="none" xmlns="http://www.w3.org/2000/svg">
<path d="M72 0V88C72 92 68 96 64 96H8C4 96 0 92 0 88V0H72Z" fill="#00AAF6"/>
<path d="M11.25 66.732H8.052V65.9H15.41V66.732H12.212V75H11.25V66.732ZM18.8359 75.065C18.1772 75.065 17.5836 74.9177 17.0549 74.623C16.5262 74.3197 16.1102 73.9037 15.8069 73.375C15.5036 72.8463 15.3519 72.2483 15.3519 71.581C15.3519 70.9137 15.5036 70.3157 15.8069 69.787C16.1102 69.2583 16.5262 68.8467 17.0549 68.552C17.5836 68.2573 18.1772 68.11 18.8359 68.11C19.4946 68.11 20.0882 68.2573 20.6169 68.552C21.1456 68.8467 21.5572 69.2583 21.8519 69.787C22.1552 70.3157 22.3069 70.9137 22.3069 71.581C22.3069 72.2483 22.1552 72.8463 21.8519 73.375C21.5572 73.9037 21.1456 74.3197 20.6169 74.623C20.0882 74.9177 19.4946 75.065 18.8359 75.065ZM18.8359 74.246C19.3212 74.246 19.7546 74.1377 20.1359 73.921C20.5259 73.6957 20.8292 73.3793 21.0459 72.972C21.2626 72.5647 21.3709 72.101 21.3709 71.581C21.3709 71.061 21.2626 70.5973 21.0459 70.19C20.8292 69.7827 20.5259 69.4707 20.1359 69.254C19.7546 69.0287 19.3212 68.916 18.8359 68.916C18.3506 68.916 17.9129 69.0287 17.5229 69.254C17.1416 69.4707 16.8382 69.7827 16.6129 70.19C16.3962 70.5973 16.2879 71.061 16.2879 71.581C16.2879 72.101 16.3962 72.5647 16.6129 72.972C16.8382 73.3793 17.1416 73.6957 17.5229 73.921C17.9129 74.1377 18.3506 74.246 18.8359 74.246ZM27.7143 68.11C28.3556 68.11 28.9363 68.2573 29.4563 68.552C29.9763 68.838 30.3836 69.2453 30.6783 69.774C30.973 70.3027 31.1203 70.905 31.1203 71.581C31.1203 72.2657 30.973 72.8723 30.6783 73.401C30.3836 73.9297 29.9763 74.3413 29.4563 74.636C28.945 74.922 28.3643 75.065 27.7143 75.065C27.1596 75.065 26.657 74.9523 26.2063 74.727C25.7643 74.493 25.4003 74.155 25.1143 73.713V77.522H24.1913V68.162H25.0753V69.514C25.3526 69.0633 25.7166 68.7167 26.1673 68.474C26.6266 68.2313 27.1423 68.11 27.7143 68.11ZM27.6493 74.246C28.126 74.246 28.5593 74.1377 28.9493 73.921C29.3393 73.6957 29.6426 73.3793 29.8593 72.972C30.0846 72.5647 30.1973 72.101 30.1973 71.581C30.1973 71.061 30.0846 70.6017 29.8593 70.203C29.6426 69.7957 29.3393 69.4793 28.9493 69.254C28.5593 69.0287 28.126 68.916 27.6493 68.916C27.164 68.916 26.7263 69.0287 26.3363 69.254C25.955 69.4793 25.6516 69.7957 25.4263 70.203C25.2096 70.6017 25.1013 71.061 25.1013 71.581C25.1013 72.101 25.2096 72.5647 25.4263 72.972C25.6516 73.3793 25.955 73.6957 26.3363 73.921C26.7263 74.1377 27.164 74.246 27.6493 74.246ZM36.5992 65.9H40.3042C41.2662 65.9 42.1155 66.095 42.8522 66.485C43.5889 66.8663 44.1609 67.4037 44.5682 68.097C44.9755 68.7817 45.1792 69.566 45.1792 70.45C45.1792 71.334 44.9755 72.1227 44.5682 72.816C44.1609 73.5007 43.5889 74.038 42.8522 74.428C42.1155 74.8093 41.2662 75 40.3042 75H36.5992V65.9ZM40.2522 74.168C41.0495 74.168 41.7472 74.012 42.3452 73.7C42.9432 73.3793 43.4069 72.9417 43.7362 72.387C44.0655 71.8237 44.2302 71.178 44.2302 70.45C44.2302 69.722 44.0655 69.0807 43.7362 68.526C43.4069 67.9627 42.9432 67.525 42.3452 67.213C41.7472 66.8923 41.0495 66.732 40.2522 66.732H37.5612V74.168H40.2522ZM53.0984 71.867H47.3784C47.4304 72.5777 47.7034 73.154 48.1974 73.596C48.6914 74.0293 49.3154 74.246 50.0694 74.246C50.4941 74.246 50.8841 74.1723 51.2394 74.025C51.5948 73.869 51.9024 73.6437 52.1624 73.349L52.6824 73.947C52.3791 74.311 51.9978 74.5883 51.5384 74.779C51.0878 74.9697 50.5894 75.065 50.0434 75.065C49.3414 75.065 48.7174 74.9177 48.1714 74.623C47.6341 74.3197 47.2138 73.9037 46.9104 73.375C46.6071 72.8463 46.4554 72.2483 46.4554 71.581C46.4554 70.9137 46.5984 70.3157 46.8844 69.787C47.1791 69.2583 47.5778 68.8467 48.0804 68.552C48.5918 68.2573 49.1638 68.11 49.7964 68.11C50.4291 68.11 50.9968 68.2573 51.4994 68.552C52.0021 68.8467 52.3964 69.2583 52.6824 69.787C52.9684 70.307 53.1114 70.905 53.1114 71.581L53.0984 71.867ZM49.7964 68.903C49.1378 68.903 48.5831 69.1153 48.1324 69.54C47.6904 69.956 47.4391 70.502 47.3784 71.178H52.2274C52.1668 70.502 51.9111 69.956 51.4604 69.54C51.0184 69.1153 50.4638 68.903 49.7964 68.903ZM57.1917 68.11C58.0844 68.11 58.769 68.3353 59.2457 68.786C59.7224 69.228 59.9607 69.8867 59.9607 70.762V75H59.0767V73.934C58.8687 74.2893 58.561 74.5667 58.1537 74.766C57.755 74.9653 57.2784 75.065 56.7237 75.065C55.961 75.065 55.3544 74.883 54.9037 74.519C54.453 74.155 54.2277 73.674 54.2277 73.076C54.2277 72.4953 54.4357 72.0273 54.8517 71.672C55.2764 71.3167 55.948 71.139 56.8667 71.139H59.0377V70.723C59.0377 70.1337 58.873 69.6873 58.5437 69.384C58.2144 69.072 57.7334 68.916 57.1007 68.916C56.6674 68.916 56.2514 68.9897 55.8527 69.137C55.454 69.2757 55.1117 69.4707 54.8257 69.722L54.4097 69.033C54.7564 68.7383 55.1724 68.513 55.6577 68.357C56.143 68.1923 56.6544 68.11 57.1917 68.11ZM56.8667 74.337C57.3867 74.337 57.833 74.22 58.2057 73.986C58.5784 73.7433 58.8557 73.3967 59.0377 72.946V71.828H56.8927C55.7227 71.828 55.1377 72.2353 55.1377 73.05C55.1377 73.4487 55.2894 73.765 55.5927 73.999C55.896 74.2243 56.3207 74.337 56.8667 74.337ZM62.4677 65.354H63.3907V75H62.4677V65.354Z" fill="white"/>
<path d="M26.411 35.75C26.723 35.75 26.976 36.003 26.976 36.315V53.185C26.976 53.495 26.723 53.75 26.411 53.75H20.813C20.6636 53.7492 20.5205 53.6894 20.4151 53.5835C20.3096 53.4777 20.2503 53.3344 20.25 53.185V36.315C20.25 36.003 20.503 35.75 20.813 35.75H26.411ZM29.226 53.185V36.315C29.2249 35.5686 28.9279 34.853 28.4 34.3253C27.8721 33.7976 27.1564 33.5008 26.41 33.5H20.812C20.0662 33.5016 19.3514 33.7988 18.8243 34.3264C18.2972 34.8541 18.0008 35.5692 18 36.315V53.185C18.0005 53.9311 18.297 54.6465 18.8244 55.1742C19.3517 55.702 20.0669 55.9989 20.813 56H26.411C27.1573 55.9992 27.8729 55.7024 28.4006 55.1746C28.9284 54.6469 29.2252 53.9313 29.226 53.185V53.185Z" fill="white"/>
<path d="M47.031 56H33.396C32.6983 55.9988 32.0104 55.8363 31.386 55.525L27.596 53.631C27.329 53.4973 27.1261 53.2631 27.0319 52.9798C26.9377 52.6965 26.9598 52.3874 27.0935 52.1205C27.2271 51.8536 27.4614 51.6507 27.7447 51.5564C28.0279 51.4622 28.337 51.4843 28.604 51.618L32.393 53.513C32.703 53.668 33.05 53.75 33.396 53.75H47.031C47.441 53.75 47.824 53.528 48.029 53.17L49.299 50.948C50.8881 48.1642 51.7246 45.0144 51.726 41.809V38.002C51.7252 37.405 51.4877 36.8326 51.0655 36.4105C50.6433 35.9883 50.071 35.7508 49.474 35.75H41.006C40.6388 35.7504 40.2772 35.6607 39.9527 35.4888C39.6283 35.3169 39.351 35.068 39.1452 34.7639C38.9394 34.4599 38.8113 34.11 38.7722 33.7449C38.7331 33.3798 38.7842 33.0107 38.921 32.67C39.9505 30.1027 40.4783 27.362 40.476 24.596V23.292C40.476 22.718 40.009 22.25 39.434 22.25H38.734C38.272 22.25 37.86 22.56 37.734 23.005L37.292 24.547C36.3555 27.8351 34.7719 30.9031 32.634 33.571C32.0916 34.2528 31.402 34.8029 30.6168 35.1803C29.8316 35.5577 28.9712 35.7524 28.1 35.75H24.725C24.4266 35.75 24.1405 35.6315 23.9295 35.4205C23.7185 35.2095 23.6 34.9234 23.6 34.625C23.6 34.3266 23.7185 34.0405 23.9295 33.8295C24.1405 33.6185 24.4266 33.5 24.725 33.5H28.1C28.6334 33.501 29.1601 33.3814 29.6408 33.1503C30.1215 32.9191 30.5437 32.5823 30.876 32.165C32.8275 29.7297 34.273 26.9293 35.128 23.928L35.568 22.386C35.7669 21.6993 36.1831 21.0957 36.7541 20.6655C37.325 20.2353 38.0201 20.0018 38.735 20H39.435C40.3078 20.0008 41.1447 20.3479 41.7619 20.9651C42.3791 21.5823 42.7262 22.4192 42.727 23.292V24.596C42.727 27.663 42.149 30.662 41.011 33.506L49.475 33.5C50.6686 33.5013 51.8129 33.9761 52.6569 34.8201C53.5009 35.6641 53.9757 36.8084 53.977 38.002V41.809C53.9756 45.4063 53.0367 48.9411 51.253 52.065L49.983 54.288C49.685 54.8076 49.2553 55.2394 48.7372 55.54C48.2191 55.8405 47.6309 55.9992 47.032 56H47.031Z" fill="white"/>
<path d="M22.476 50.375C22.476 50.0766 22.5945 49.7905 22.8055 49.5795C23.0165 49.3685 23.3026 49.25 23.601 49.25C23.8994 49.25 24.1855 49.3685 24.3965 49.5795C24.6075 49.7905 24.726 50.0766 24.726 50.375C24.726 50.6734 24.6075 50.9595 24.3965 51.1705C24.1855 51.3815 23.8994 51.5 23.601 51.5C23.3026 51.5 23.0165 51.3815 22.8055 51.1705C22.5945 50.9595 22.476 50.6734 22.476 50.375Z" fill="white"/>
</svg>
