<svg xmlns="http://www.w3.org/2000/svg" width="106" height="129" viewBox="0 0 106 129"><defs><mask id="tqtgb" width="2" height="2" x="-1" y="-1"><path fill="#fff" d="M17 1h72v96H17z"/><path d="M89 1v88c0 4-4 8-8 8H25c-4 0-8-4-8-8V1z"/></mask><filter id="tqtga" width="132" height="172" x="-13" y="-29" filterUnits="userSpaceOnUse"><feOffset dy="16" in="SourceGraphic" result="FeOffset1242Out"/><feGaussianBlur in="FeOffset1242Out" result="FeGaussianBlur1243Out" stdDeviation="8 8"/></filter></defs><g><g><g><g filter="url(#tqtga)"><path fill="none" d="M89 1v88c0 4-4 8-8 8H25c-4 0-8-4-8-8V1z" mask="url(&quot;#tqtgb&quot;)"/><path fill="#00aaf6" fill-opacity=".3" d="M89 1v88c0 4-4 8-8 8H25c-4 0-8-4-8-8V1z"/></g><path fill="#00aaf6" d="M89 1v88c0 4-4 8-8 8H25c-4 0-8-4-8-8V1z"/></g><g><g><text fill="#fff" style="line-height:24px;font-kerning:normal" dominant-baseline="text-before-edge" font-family="'Montserrat','Montserrat-Regular'" font-size="13" font-style="none" font-weight="400" transform="translate(25 76)"><tspan>Top Deal</tspan></text></g></g><g><g><path fill="#fff" d="M43.411 36.75c.312 0 .565.253.565.565v16.87c0 .31-.253.565-.565.565h-5.598a.566.566 0 0 1-.563-.565v-16.87c0-.312.253-.565.563-.565zm2.815 17.435v-16.87A2.819 2.819 0 0 0 43.41 34.5h-5.598A2.818 2.818 0 0 0 35 37.315v16.87A2.817 2.817 0 0 0 37.813 57h5.598a2.818 2.818 0 0 0 2.815-2.815z"/></g><g><path fill="#fff" d="M64.031 57H50.396a4.522 4.522 0 0 1-2.01-.475l-3.79-1.894a1.125 1.125 0 0 1 1.008-2.013l3.789 1.895c.31.155.657.237 1.003.237h13.635c.41 0 .793-.222.998-.58l1.27-2.222a18.45 18.45 0 0 0 2.427-9.139v-3.807a2.255 2.255 0 0 0-2.252-2.252h-8.468a2.244 2.244 0 0 1-2.085-3.08 21.644 21.644 0 0 0 1.555-8.074v-1.304c0-.574-.467-1.042-1.042-1.042h-.7c-.462 0-.874.31-1 .755l-.442 1.542a25.68 25.68 0 0 1-4.658 9.024A5.773 5.773 0 0 1 45.1 36.75h-3.375a1.125 1.125 0 0 1 0-2.25H45.1a3.54 3.54 0 0 0 2.776-1.335 23.442 23.442 0 0 0 4.252-8.237l.44-1.542A3.306 3.306 0 0 1 55.735 21h.7a3.295 3.295 0 0 1 3.292 3.292v1.304c0 3.067-.578 6.066-1.716 8.91l8.464-.006a4.507 4.507 0 0 1 4.502 4.502v3.807a20.7 20.7 0 0 1-2.724 10.256l-1.27 2.223A3.407 3.407 0 0 1 64.032 57z"/></g><g><path fill="#fff" d="M39.476 51.375a1.125 1.125 0 1 1 2.25 0 1.125 1.125 0 0 1-2.25 0z"/></g></g></g></g></svg>