<svg xmlns="http://www.w3.org/2000/svg" width="64.031" height="64.031" viewBox="0 0 64.031 64.031">
  <g id="_13" data-name="13" transform="translate(11 10)">
    <rect id="rect4133" width="42.93" height="42.93" fill="none"/>
    <path id="path4222" d="M9,34.683A2.683,2.683,0,1,0,11.683,32,2.683,2.683,0,0,0,9,34.683Z" transform="translate(-2.963 -10.535)" fill="none" stroke="#666" stroke-linecap="round" stroke-linejoin="round" stroke-width="1"/>
    <path id="path4225" d="M54.074,32v4.7H52.062L50.049,47.428H46.025L44.012,36.7H42V32" transform="translate(-13.827 -10.535)" fill="none" stroke="#666" stroke-linecap="round" stroke-linejoin="round" stroke-width="1"/>
    <path id="path4227" d="M3,28H5.683" transform="translate(-0.988 -9.218)" fill="none" stroke="#ff5a39" stroke-linecap="round" stroke-linejoin="round" stroke-width="1"/>
    <path id="path4229" d="M12,28h2.683" transform="translate(-3.951 -9.218)" fill="none" stroke="#ff5a39" stroke-linecap="round" stroke-linejoin="round" stroke-width="1"/>
    <path id="path4231" d="M21,28h2.683" transform="translate(-6.914 -9.218)" fill="none" stroke="#ff5a39" stroke-linecap="round" stroke-linejoin="round" stroke-width="1"/>
    <path id="path4233" d="M30,28h2.683" transform="translate(-9.877 -9.218)" fill="none" stroke="#ff5a39" stroke-linecap="round" stroke-linejoin="round" stroke-width="1"/>
    <path id="path4236" d="M39,28h2.683" transform="translate(-12.84 -9.218)" fill="none" stroke="#ff5a39" stroke-linecap="round" stroke-linejoin="round" stroke-width="1"/>
    <path id="path4238" d="M48,28h2.683" transform="translate(-15.803 -9.218)" fill="none" stroke="#ff5a39" stroke-linecap="round" stroke-linejoin="round" stroke-width="1"/>
    <path id="path4240" d="M57,28h2.683" transform="translate(-18.766 -9.218)" fill="none" stroke="#ff5a39" stroke-linecap="round" stroke-linejoin="round" stroke-width="1"/>
    <path id="path4242" d="M36.074,32v4.7H34.062L32.049,47.428H28.025L26.012,36.7H24V32" transform="translate(-7.901 -10.535)" fill="none" stroke="#666" stroke-linecap="round" stroke-linejoin="round" stroke-width="1"/>
    <path id="path4244" d="M36.074,22.684a8.137,8.137,0,0,0-12.074,0" transform="translate(-7.901 -6.585)" fill="none" stroke="#666" stroke-linecap="round" stroke-linejoin="round" stroke-width="1"/>
    <path id="path4246" d="M54.074,22.684a8.137,8.137,0,0,0-12.074,0" transform="translate(-13.827 -6.585)" fill="none" stroke="#666" stroke-linecap="round" stroke-linejoin="round" stroke-width="1"/>
    <path id="path4248" d="M52.708,12.354A3.354,3.354,0,1,1,49.354,9,3.354,3.354,0,0,1,52.708,12.354Z" transform="translate(-15.144 -2.963)" fill="none" stroke="#666" stroke-linecap="round" stroke-linejoin="round" stroke-width="1"/>
    <path id="path4250" d="M34.708,12.354A3.354,3.354,0,1,1,31.354,9,3.354,3.354,0,0,1,34.708,12.354Z" transform="translate(-9.218 -2.963)" fill="none" stroke="#666" stroke-linecap="round" stroke-linejoin="round" stroke-width="1"/>
    <path id="path4252" d="M11.025,41C8.8,41,7,42.342,7,44.683v3.025H8.724l1.154,2.683h2.294l1.154-2.683h1.724V44.689C15.049,42.342,13.252,41,11.025,41Z" transform="translate(-2.305 -13.498)" fill="none" stroke="#666" stroke-linecap="round" stroke-linejoin="round" stroke-width="1"/>
    <g id="Ellipse_2" data-name="Ellipse 2" transform="translate(-11 -10)" fill="none" stroke="#f96547" stroke-width="1">
      <circle cx="32.016" cy="32.016" r="32.016" stroke="none"/>
      <circle cx="32.016" cy="32.016" r="31.516" fill="none"/>
    </g>
  </g>
</svg>
