<svg xmlns="http://www.w3.org/2000/svg" width="64.031" height="64.031" viewBox="0 0 64.031 64.031">
  <g id="_7" data-name="7" transform="translate(8 7)" opacity="0.7">
    <rect id="rect4047" width="48" height="48" fill="none"/>
    <path id="path4361" d="M46.5,38,3,48.5H46.5Z" transform="translate(-0.75 -9.5)" fill="none" stroke="#ff5a39" stroke-linecap="round" stroke-linejoin="round" stroke-width="1"/>
    <path id="path4363" d="M19.5,29.348l9-2.437M39,24.06l3-.81L40.5,16.5H29.25l-6-4.5L4.5,17.25l-1.5,6L6,33l3.1-.84" transform="translate(-0.75 -3)" fill="none" stroke="#666" stroke-linecap="round" stroke-linejoin="round" stroke-width="1"/>
    <path id="path4367" d="M23.213,16.23,15.8,18.48l.915,3.33,9.33-2.752Zm-10.245,3.1L8.8,20.558l-.608,3.75,5.648-1.642Z" transform="translate(-2.048 -4.057)" fill="none" stroke="#666" stroke-linecap="round" stroke-linejoin="round" stroke-width="1"/>
    <path id="path4369" d="M22,26.75,24.25,26" transform="translate(-5.5 -6.5)" fill="none" stroke="#666" stroke-linecap="round" stroke-linejoin="round" stroke-width="1"/>
    <path id="path4375" d="M21.5,35.25a5.205,5.205,0,0,1-5.25,5.25,5.25,5.25,0,1,1,5.25-5.25Z" transform="translate(-2.75 -7.5)" fill="none" stroke="#666" stroke-linecap="round" stroke-linejoin="round" stroke-width="1"/>
    <path id="path4377" d="M19.5,36.25A2.25,2.25,0,1,1,17.25,34,2.25,2.25,0,0,1,19.5,36.25Z" transform="translate(-3.75 -8.5)" fill="none" stroke="#ff5a39" stroke-linecap="round" stroke-linejoin="round" stroke-width="1"/>
    <path id="path4379" d="M47.5,28.25a5.205,5.205,0,0,1-5.25,5.25,5.25,5.25,0,1,1,5.25-5.25Z" transform="translate(-9.25 -5.75)" fill="none" stroke="#666" stroke-linecap="round" stroke-linejoin="round" stroke-width="1"/>
    <path id="path4381" d="M45.5,29.25A2.25,2.25,0,1,1,43.25,27,2.25,2.25,0,0,1,45.5,29.25Z" transform="translate(-10.25 -6.75)" fill="none" stroke="#ff5a39" stroke-linecap="round" stroke-linejoin="round" stroke-width="1"/>
    <g id="Ellipse_2" data-name="Ellipse 2" transform="translate(-8 -7)" fill="none" stroke="#f96547" stroke-width="1">
      <circle cx="32.016" cy="32.016" r="32.016" stroke="none"/>
      <circle cx="32.016" cy="32.016" r="31.516" fill="none"/>
    </g>
  </g>
</svg>
