<svg xmlns="http://www.w3.org/2000/svg" width="64.031" height="64.031" viewBox="0 0 64.031 64.031">
  <g id="_16" data-name="16" transform="translate(11.266 9.266)">
    <rect id="rect4045" width="42.734" height="42.734" fill="none"/>
    <path id="path4274" d="M40.051,20.019C39.043,13.242,32.192,8,24.025,8S9.008,13.242,8,20.019" transform="translate(-2.658 -2.658)" fill="none" stroke="#666" stroke-linecap="round" stroke-linejoin="round" stroke-width="1"/>
    <path id="path4276" d="M28,6.309V5.581a2.671,2.671,0,1,1,5.342,0v.728" transform="translate(-9.304 -0.967)" fill="none" stroke="#666" stroke-linecap="round" stroke-linejoin="round" stroke-width="1"/>
    <path id="path4278" d="M41.057,30H5" transform="translate(-1.661 -9.968)" fill="none" stroke="#ff5a39" stroke-linecap="round" stroke-linejoin="round" stroke-width="1"/>
    <path id="path4280" d="M40.051,30.59v1.836a2.4,2.4,0,0,1-2.377,2.444h-27.3A2.4,2.4,0,0,1,8,32.426V30.59" transform="translate(-2.658 -10.164)" fill="none" stroke="#ff5a39" stroke-linecap="round" stroke-linejoin="round" stroke-width="1"/>
    <path id="path4282" d="M21.022,41a1.335,1.335,0,0,1,1.335,1.335,1.4,1.4,0,0,1-1.335,1.335l-5.342.668,6.01,1.335s7.605-4.24,8.013-4.48a1.327,1.327,0,0,1,1.462,2.21l-8.14,6.277H16.348L7,54.354V44.339L16.348,41Z" transform="translate(-2.326 -13.623)" fill="none" stroke="#666" stroke-linecap="round" stroke-linejoin="round" stroke-width="1"/>
    <g id="Ellipse_2" data-name="Ellipse 2" transform="translate(-11.266 -9.266)" fill="none" stroke="#f96547" stroke-width="1">
      <circle cx="32.016" cy="32.016" r="32.016" stroke="none"/>
      <circle cx="32.016" cy="32.016" r="31.516" fill="none"/>
    </g>
  </g>
</svg>
