<svg xmlns="http://www.w3.org/2000/svg" width="112" height="41" viewBox="0 0 112 41"><g><g><g><path fill="#ff5a39" d="M15.504 17.825a4.571 4.571 0 1 1-3.101-8.6 4.571 4.571 0 0 1 3.1 8.6zm-4.23-13.893c-.302.08-.593.175-.882.281l.003-.003C7.71 5.016 4.79 2.797 4.79 2.797A59.946 59.946 0 0 1 1.857.639C1.52.398.897-.123.276.124c-.608.242-.023 1.69-.023 1.69l.07.257L3.92 15.435l.01.044.222.815c1.446 5.38 6.982 8.57 12.363 7.122 5.381-1.448 8.568-6.983 7.122-12.363-1.447-5.381-6.982-8.57-12.364-7.12z"/></g><g><path fill="#009739" d="M25.701 28.229a4.57 4.57 0 1 1-8.305-3.824 4.571 4.571 0 1 1 8.305 3.824zm5.48.24c1.259-5.428-2.12-10.849-7.55-12.107-5.427-1.259-10.849 2.12-12.108 7.55-.07.307-.191.822-.191.822l-.009.045-3.125 13.482-.064.258s-.534 1.468.083 1.688c.63.225 1.233-.317 1.561-.57 0 0 1.124-.963 2.859-2.259 0 0 2.84-2.32 5.549-1.607l-.002-.004c.29.096.585.18.89.251 5.427 1.26 10.849-2.12 12.107-7.549z"/></g><g><g><path fill="#58595b" d="M37.697 13.736c.763 0 1.247.268 1.45.803.201.536.254 1.29.157 2.267-.1.986-.302 1.747-.61 2.284-.309.536-.844.805-1.61.805-.764 0-1.25-.268-1.456-.804-.21-.536-.264-1.297-.165-2.283.096-.964.3-1.716.615-2.258s.855-.814 1.619-.814zm2.026 6.998c.463-.426.793-.962.99-1.609.194-.646.338-1.42.428-2.322.084-.84.09-1.599.018-2.274a3.016 3.016 0 0 0-.752-1.736c-.432-.482-1.119-.722-2.062-.72-.52 0-.982.079-1.383.237-.403.159-.782.428-1.133.806l.465-4.68H34.49l-1.294 13.016L35 21.45l.097-.988c.295.415.622.701.978.86.357.157.799.236 1.33.236.948 0 1.723-.274 2.317-.824z"/></g><g><path fill="#58595b" d="M46.819 18.097c-.066.647-.238 1.095-.518 1.344-.28.25-.54.407-.783.468-.243.06-.582.091-1.02.091-1.127.001-1.65-.437-1.56-1.314.088-.89.683-1.336 1.787-1.336h2.168zm1.47 3.362l.615-6.208c.212-2.123-.938-3.185-3.45-3.183-.77 0-1.413.101-1.933.302-.519.2-1.013.546-1.481 1.033l1.093 1.151c.288-.34.587-.575.898-.703.309-.129.712-.192 1.21-.193.716 0 1.216.14 1.504.42.288.28.402.718.342 1.315l-.065.658-2.431.002c-1.03 0-1.84.245-2.432.732-.594.488-.929 1.134-1.01 1.938-.082.817.11 1.493.574 2.028.463.536 1.236.802 2.317.802.577 0 1.048-.069 1.41-.206.36-.138.734-.38 1.117-.727l-.083.841z"/></g><g><path fill="#58595b" d="M53.108 21.55c-1.153 0-2.083-.383-2.788-1.15-.705-.768-.975-1.968-.814-3.601.162-1.62.671-2.814 1.53-3.582a4.375 4.375 0 0 1 3.018-1.153c.647 0 1.19.097 1.627.29.438.197.855.53 1.254 1.005l-1.385 1.245c-.472-.586-1.027-.878-1.662-.878-.723 0-1.3.255-1.734.76-.436.506-.705 1.276-.808 2.313-.105 1.049.01 1.826.346 2.33.332.505.862.759 1.583.756.372 0 .685-.06.938-.181.25-.122.551-.355.897-.696l1.142 1.224c-.907.877-1.953 1.316-3.144 1.317z"/></g><g><path fill="#58595b" d="M62.387 21.461l-2.114-4.292-1.507 1.568-.276 2.718h-1.838l1.296-13.031 1.837-.002-.797 8.024 3.978-4.279 2.236.001-3.54 3.63 3.012 5.653z"/></g><g><path fill="#58595b" d="M69.43 13.7c.764 0 1.246.268 1.448.806.203.537.254 1.295.156 2.272-.098.99-.302 1.753-.61 2.291s-.844.808-1.608.808c-.767 0-1.25-.267-1.46-.805-.207-.538-.261-1.301-.161-2.291.093-.965.3-1.721.614-2.264.315-.546.855-.817 1.62-.818zm2.017 7.018c.467-.428.797-.965.994-1.61.198-.646.341-1.42.43-2.321.084-.842.091-1.6.02-2.275-.07-.677-.258-1.186-.56-1.527a2.572 2.572 0 0 0-1.011-.721 3.499 3.499 0 0 0-1.24-.209c-.53 0-.99.08-1.386.242-.395.163-.773.442-1.138.837l.096-.969-1.802.001-1.297 13.032 1.804-.002.47-4.714c.285.401.607.678.968.83.36.152.806.228 1.337.228.945 0 1.716-.275 2.315-.822z"/></g><g><path fill="#58595b" d="M78.547 18.08c-.064.646-.236 1.094-.514 1.344-.281.25-.542.406-.784.467-.243.062-.584.092-1.02.092-1.127 0-1.648-.438-1.561-1.315.089-.89.685-1.335 1.79-1.336l2.166-.001zm1.471 3.362l.618-6.208c.212-2.123-.94-3.185-3.452-3.183-.77 0-1.415.101-1.932.302-.52.201-1.012.546-1.482 1.033l1.093 1.15c.29-.34.587-.575.898-.703.31-.128.714-.191 1.21-.191.716-.002 1.218.138 1.505.418.289.28.402.719.342 1.317l-.064.657-2.432.001c-1.03 0-1.841.245-2.433.733-.593.487-.928 1.134-1.01 1.938-.08.815.11 1.492.574 2.027.463.536 1.236.803 2.317.803.579 0 1.047-.068 1.41-.206.362-.138.735-.38 1.117-.727l-.084.841z"/></g><g><path fill="#58595b" d="M84.84 21.53c-1.153.002-2.083-.381-2.788-1.148-.705-.768-.977-1.967-.815-3.6.163-1.62.671-2.814 1.528-3.583a4.38 4.38 0 0 1 3.019-1.153c.65 0 1.192.098 1.63.291.436.196.854.53 1.251 1.004l-1.384 1.245c-.471-.585-1.026-.877-1.663-.877-.721 0-1.3.253-1.733.76-.436.505-.706 1.276-.807 2.312-.106 1.049.01 1.824.344 2.33.334.506.863.758 1.583.758.372 0 .685-.062.938-.184.251-.122.551-.354.899-.695l1.14 1.224c-.905.878-1.953 1.317-3.142 1.317z"/></g><g><path fill="#58595b" d="M94.118 21.444l-2.114-4.293-1.506 1.57-.276 2.717h-1.84l1.297-13.03 1.838-.002-.799 8.023 3.979-4.278h2.237l-3.54 3.63 3.012 5.652z"/></g><g><path fill="#58595b" d="M102.658 16.02l-4.094.003c.047-.476.168-.897.36-1.262.19-.365.454-.652.786-.86.33-.205.711-.31 1.143-.31.42 0 .777.106 1.073.319.295.214.498.497.606.849.13.39.17.81.126 1.26zm1.693 1.297l.082-.823c.132-1.328-.107-2.403-.717-3.224-.609-.824-1.516-1.233-2.717-1.233-1.19 0-2.175.419-2.957 1.254-.78.834-1.241 1.996-1.39 3.481-.167 1.682.084 2.895.756 3.637.67.743 1.637 1.114 2.9 1.113.77 0 1.42-.117 1.956-.348.532-.232 1.07-.596 1.614-1.098l-1.064-1.114c-.382.354-.737.6-1.062.741-.327.14-.743.21-1.248.212-.745 0-1.295-.229-1.654-.684-.358-.458-.494-1.094-.414-1.911z"/></g><g><path fill="#58595b" d="M110.472 14.316a1.991 1.991 0 0 0-.577-.465 1.563 1.563 0 0 0-.732-.155c-.518 0-.97.19-1.354.569-.388.378-.612.884-.675 1.52l-.56 5.643h-1.804l.924-9.284h1.804l-.102 1.005c.25-.33.603-.598 1.062-.805.46-.207.942-.312 1.447-.312.481 0 .874.062 1.18.183.308.12.612.353.915.693z"/></g></g><g><g><g><path fill="#58595b" d="M88.427 26.849c.176.364.264.877.264 1.539 0 .672-.088 1.189-.264 1.553-.175.365-.526.547-1.054.547-.525 0-.879-.182-1.058-.547-.18-.364-.27-.881-.27-1.553 0-.653.09-1.165.27-1.533.18-.37.533-.553 1.058-.553.528 0 .88.183 1.054.547zm.264 4.694zm0 0h1.242v-8.844h-1.242v3.18c-.225-.263-.47-.449-.733-.552a2.526 2.526 0 0 0-.93-.155c-.65 0-1.124.149-1.425.447-.3.298-.512.64-.638 1.025-.125.383-.185.967-.185 1.744 0 .58.046 1.1.14 1.56.097.458.26.805.493 1.036.23.233.478.396.744.49.265.096.555.144.868.144.365 0 .677-.057.939-.168.26-.111.502-.305.727-.577z"/></g><g><path fill="#58595b" d="M94.602 27.88h-2.82c0-.323.053-.609.161-.857a1.29 1.29 0 0 1 .483-.584c.215-.141.47-.211.766-.211.29 0 .542.071.76.217.22.144.378.337.476.577.117.265.174.552.174.858zm-2.82.88h4.075v-.558c0-.902-.239-1.633-.714-2.193-.478-.558-1.13-.837-1.957-.837-.82 0-1.47.284-1.95.851-.48.566-.72 1.355-.72 2.365 0 1.143.256 1.967.77 2.472.513.506 1.206.758 2.076.758.528 0 .968-.079 1.321-.237.352-.156.698-.405 1.037-.745l-.807-.757c-.24.24-.467.408-.683.503-.216.096-.496.143-.845.143-.514 0-.91-.156-1.186-.466-.278-.31-.416-.742-.416-1.298z"/></g><g><path fill="#58595b" d="M99.818 29.27c0 .44-.087.744-.262.913-.177.17-.347.277-.51.317-.162.041-.395.062-.695.062-.777 0-1.165-.298-1.165-.894 0-.604.38-.907 1.141-.907h1.491zm0 2.286h1.243v-4.22c0-1.443-.867-2.164-2.596-2.164-.53 0-.967.068-1.312.204-.341.136-.659.37-.949.702l.832.783c.177-.233.366-.393.57-.478.206-.087.48-.13.822-.13.493 0 .846.094 1.064.285.219.19.327.488.327.894v.447h-1.675c-.71 0-1.251.166-1.626.497-.375.331-.563.77-.563 1.317 0 .554.179 1.013.535 1.378.356.364.906.547 1.652.547.397 0 .717-.048.955-.14.241-.094.481-.258.721-.494v.572z"/></g><g><path fill="#58595b" d="M103.594 31.556c-.572 0-1.002-.164-1.292-.491-.29-.328-.434-.744-.434-1.25V22.7h1.267v7.042c0 .249.051.432.154.553.105.12.28.18.528.18h.56v1.081z"/></g><g><path fill="#58595b" d="M106.699 31.618c-.571 0-1.067-.065-1.484-.193a2.838 2.838 0 0 1-1.16-.714l.831-.832c.233.24.507.41.82.51.313.1.645.148.993.148.406 0 .735-.072.993-.216a.707.707 0 0 0 .386-.653c0-.231-.066-.413-.2-.546-.131-.132-.348-.199-.645-.199l-1.007-.086c-.612-.05-1.075-.216-1.39-.497-.315-.282-.472-.696-.472-1.243 0-.603.222-1.076.665-1.415.443-.34 1.012-.509 1.707-.509.489 0 .928.055 1.317.168.389.111.728.292 1.02.54l-.797.808a1.718 1.718 0 0 0-.69-.35 3.366 3.366 0 0 0-.862-.11c-.373 0-.657.071-.85.217a.693.693 0 0 0-.294.59c0 .208.065.37.193.49.128.121.355.198.677.23l.994.087c.612.05 1.077.22 1.398.51.318.29.477.712.477 1.267 0 .638-.243 1.13-.73 1.478-.48.346-1.112.52-1.89.52z"/></g></g></g></g></g></svg>