<svg id="logo_black" xmlns="http://www.w3.org/2000/svg" width="141.998" height="50.969" viewBox="0 0 141.998 50.969">
  <path id="Path_385" data-name="Path 385" d="M14.293,4.911c-.382.1-.751.222-1.118.356l0,0c-3.4,1.021-7.1-1.792-7.1-1.792C3.822,1.907,2.355.736,2.355.736,1.926.43,1.137-.231.35.082-.421.389.321,2.226.321,2.226l.089.325L4.97,19.5l.012.056s.177.647.282,1.033A12.791,12.791,0,1,0,14.293,4.911Zm5.364,17.615a5.8,5.8,0,1,1,3.487-7.417A5.8,5.8,0,0,1,19.657,22.525Z" transform="translate(0 0)" fill="#ff5a39"/>
  <path id="Path_386" data-name="Path 386" d="M45.944,49a12.792,12.792,0,1,0-24.923-5.779c-.089.39-.242,1.043-.242,1.043l-.011.057L16.8,61.418l-.081.327s-.677,1.861.1,2.14c.8.285,1.564-.4,1.979-.723,0,0,1.425-1.221,3.624-2.864,0,0,3.6-2.941,7.035-2.038l0,0c.368.121.741.228,1.127.318A12.789,12.789,0,0,0,45.944,49ZM39,48.7a5.8,5.8,0,1,1-2.842-7.689A5.8,5.8,0,0,1,39,48.7Z" transform="translate(-6.411 -12.984)" fill="#009739"/>
  <g id="Group_164" data-name="Group 164" transform="translate(42.088 10.583)">
    <path id="Path_387" data-name="Path 387" d="M77.235,33a4.73,4.73,0,0,1-4.623.744,3.117,3.117,0,0,1-1.241-1.089L71.249,33.9l-2.288,0L70.6,17.4h2.286l-.59,5.932a3.944,3.944,0,0,1,1.437-1.022,4.758,4.758,0,0,1,1.753-.3,3.337,3.337,0,0,1,2.614.913,3.824,3.824,0,0,1,.953,2.2,14.125,14.125,0,0,1-.023,2.883,15.686,15.686,0,0,1-.543,2.944A4.49,4.49,0,0,1,77.235,33Zm-2.569-8.874a2.179,2.179,0,0,0-2.053,1.033,7.182,7.182,0,0,0-.779,2.862,6.475,6.475,0,0,0,.209,2.895,1.743,1.743,0,0,0,1.847,1.019A2.151,2.151,0,0,0,75.93,30.91a7.375,7.375,0,0,0,.774-2.9,6.6,6.6,0,0,0-.2-2.874A1.731,1.731,0,0,0,74.666,24.122Z" transform="translate(-68.961 -17.365)" fill="#fff"/>
    <path id="Path_388" data-name="Path 388" d="M92.23,36.856l.1-1.066a4.617,4.617,0,0,1-1.416.922,5.129,5.129,0,0,1-1.787.261,3.7,3.7,0,0,1-2.938-1.017,3.257,3.257,0,0,1-.728-2.571,3.5,3.5,0,0,1,1.28-2.457A4.715,4.715,0,0,1,89.83,30l3.082,0,.082-.833a1.95,1.95,0,0,0-.433-1.669,2.707,2.707,0,0,0-1.906-.532,4.061,4.061,0,0,0-1.536.244,3.052,3.052,0,0,0-1.138.892L86.6,26.639a5.275,5.275,0,0,1,1.879-1.31,6.835,6.835,0,0,1,2.45-.383q4.778,0,4.375,4.037l-.781,7.87Zm.518-5.213H90q-2.1,0-2.267,1.693c-.112,1.112.55,1.668,1.979,1.667a5.608,5.608,0,0,0,1.293-.116A2.444,2.444,0,0,0,92,34.294a2.582,2.582,0,0,0,.657-1.7Z" transform="translate(-75.383 -20.304)" fill="#fff"/>
    <path id="Path_389" data-name="Path 389" d="M107.372,36.964a4.57,4.57,0,0,1-3.536-1.457q-1.339-1.461-1.031-4.566a6.749,6.749,0,0,1,1.938-4.541,5.546,5.546,0,0,1,3.827-1.462,5.091,5.091,0,0,1,2.064.369,4.551,4.551,0,0,1,1.589,1.273l-1.755,1.578a2.649,2.649,0,0,0-2.108-1.113,2.755,2.755,0,0,0-2.2.964,5.237,5.237,0,0,0-1.024,2.932,4.572,4.572,0,0,0,.439,2.954,2.222,2.222,0,0,0,2.007.959,2.736,2.736,0,0,0,1.188-.23,4.622,4.622,0,0,0,1.138-.883l1.448,1.552A5.564,5.564,0,0,1,107.372,36.964Z" transform="translate(-82.127 -20.301)" fill="#fff"/>
    <path id="Path_390" data-name="Path 390" d="M124.957,33.905l-2.681-5.442-1.91,1.988-.35,3.446h-2.33l1.643-16.521,2.33,0-1.011,10.173,5.042-5.425h2.836l-4.488,4.6,3.819,7.166Z" transform="translate(-87.948 -17.353)" fill="#fff"/>
    <path id="Path_391" data-name="Path 391" d="M142.839,35.9a4.179,4.179,0,0,1-2.935,1.043,4.375,4.375,0,0,1-1.695-.289,2.932,2.932,0,0,1-1.228-1.053l-.6,5.978-2.288,0,1.644-16.523h2.285l-.121,1.229a4.153,4.153,0,0,1,1.442-1.061,4.617,4.617,0,0,1,1.757-.307,4.436,4.436,0,0,1,1.573.265,3.261,3.261,0,0,1,1.282.914,3.4,3.4,0,0,1,.71,1.935,14.335,14.335,0,0,1-.026,2.884,15.239,15.239,0,0,1-.545,2.943A4.482,4.482,0,0,1,142.839,35.9ZM140.282,27a2.176,2.176,0,0,0-2.054,1.036,7.181,7.181,0,0,0-.779,2.87,6.544,6.544,0,0,0,.205,2.9,1.748,1.748,0,0,0,1.851,1.02,2.154,2.154,0,0,0,2.039-1.024,7.406,7.406,0,0,0,.772-2.905,6.575,6.575,0,0,0-.2-2.881A1.726,1.726,0,0,0,140.282,27Z" transform="translate(-94.344 -20.294)" fill="#fff"/>
    <path id="Path_392" data-name="Path 392" d="M158.143,36.82l.106-1.067a4.592,4.592,0,0,1-1.415.923,5.147,5.147,0,0,1-1.788.261,3.707,3.707,0,0,1-2.938-1.018,3.265,3.265,0,0,1-.727-2.571,3.5,3.5,0,0,1,1.28-2.457,4.711,4.711,0,0,1,3.084-.929h3.084l.081-.833a1.95,1.95,0,0,0-.433-1.67,2.7,2.7,0,0,0-1.907-.53,4.069,4.069,0,0,0-1.536.243,3.08,3.08,0,0,0-1.138.892L152.51,26.6a5.283,5.283,0,0,1,1.879-1.31,6.845,6.845,0,0,1,2.449-.383q4.777,0,4.377,4.036l-.783,7.871Zm.521-5.215-2.746,0q-2.1,0-2.269,1.693-.166,1.669,1.979,1.668a5.53,5.53,0,0,0,1.293-.118,2.469,2.469,0,0,0,.994-.591,2.582,2.582,0,0,0,.651-1.7Z" transform="translate(-101.069 -20.29)" fill="#fff"/>
    <path id="Path_393" data-name="Path 393" d="M173.288,36.927a4.569,4.569,0,0,1-3.536-1.457q-1.339-1.459-1.033-4.564a6.765,6.765,0,0,1,1.938-4.542,5.553,5.553,0,0,1,3.827-1.462,5.1,5.1,0,0,1,2.067.369,4.547,4.547,0,0,1,1.586,1.273l-1.755,1.578a2.649,2.649,0,0,0-2.108-1.112,2.755,2.755,0,0,0-2.2.964,5.216,5.216,0,0,0-1.023,2.932,4.575,4.575,0,0,0,.436,2.953,2.23,2.23,0,0,0,2.007.962,2.716,2.716,0,0,0,1.188-.233,4.7,4.7,0,0,0,1.14-.881l1.446,1.552A5.553,5.553,0,0,1,173.288,36.927Z" transform="translate(-107.812 -20.287)" fill="#fff"/>
    <path id="Path_394" data-name="Path 394" d="M190.872,33.87l-2.681-5.443-1.909,1.99-.35,3.445H183.6l1.644-16.52,2.331,0-1.013,10.172,5.044-5.424h2.837l-4.488,4.6,3.819,7.165Z" transform="translate(-113.633 -17.34)" fill="#fff"/>
    <path id="Path_395" data-name="Path 395" d="M203,31.581A3.29,3.29,0,0,0,203.525,34a2.506,2.506,0,0,0,2.1.867A4.062,4.062,0,0,0,207.2,34.6a5,5,0,0,0,1.347-.939l1.349,1.412a7.458,7.458,0,0,1-2.046,1.392,6.247,6.247,0,0,1-2.48.442A4.7,4.7,0,0,1,201.7,35.5q-1.277-1.412-.959-4.611a7.341,7.341,0,0,1,1.763-4.414,4.918,4.918,0,0,1,3.749-1.589,4.012,4.012,0,0,1,3.445,1.562,5.7,5.7,0,0,1,.909,4.089l-.1,1.042Zm5.192-3.247a2.03,2.03,0,0,0-.768-1.077,2.264,2.264,0,0,0-1.36-.4,2.684,2.684,0,0,0-1.448.394,2.782,2.782,0,0,0-1,1.089,4.344,4.344,0,0,0-.455,1.6l5.19,0A3.824,3.824,0,0,0,208.193,28.334Z" transform="translate(-120.287 -20.279)" fill="#fff"/>
    <path id="Path_396" data-name="Path 396" d="M224.871,27.768a2.525,2.525,0,0,0-.731-.59,1.982,1.982,0,0,0-.928-.2,2.369,2.369,0,0,0-1.717.721,3,3,0,0,0-.856,1.928l-.71,7.154h-2.288l1.172-11.77H221.1l-.129,1.274a3.391,3.391,0,0,1,1.347-1.02,4.411,4.411,0,0,1,1.834-.4,4.1,4.1,0,0,1,1.5.231,3.159,3.159,0,0,1,1.16.879Z" transform="translate(-126.898 -20.275)" fill="#fff"/>
  </g>
  <g id="Group_166" data-name="Group 166" transform="translate(107.489 28.705)">
    <g id="Group_165" data-name="Group 165">
      <path id="Path_397" data-name="Path 397" d="M181.076,58.244v-.85a2.484,2.484,0,0,1-.922.731,3.018,3.018,0,0,1-1.19.214,3.247,3.247,0,0,1-1.1-.182,2.5,2.5,0,0,1-.944-.622,2.565,2.565,0,0,1-.625-1.315,9.935,9.935,0,0,1-.177-1.977,7.663,7.663,0,0,1,.235-2.211,3.221,3.221,0,0,1,.808-1.3,2.482,2.482,0,0,1,1.807-.566,3.2,3.2,0,0,1,1.179.2,2.39,2.39,0,0,1,.93.7V47.032h1.575V58.244h-1.575ZM179.4,51.6a1.344,1.344,0,0,0-1.341.7,5.779,5.779,0,0,0,0,3.913,1.349,1.349,0,0,0,1.341.694,1.334,1.334,0,0,0,1.337-.694,4.653,4.653,0,0,0,.334-1.97,4.6,4.6,0,0,0-.334-1.951A1.335,1.335,0,0,0,179.4,51.6Z" transform="translate(-176.117 -47.032)" fill="#fff"/>
      <path id="Path_398" data-name="Path 398" d="M189.638,56.719a2.378,2.378,0,0,0,.528,1.646,1.91,1.91,0,0,0,1.5.59,2.673,2.673,0,0,0,1.071-.181,2.984,2.984,0,0,0,.866-.638l1.024.96a4.451,4.451,0,0,1-1.315.945,4.1,4.1,0,0,1-1.675.3,3.588,3.588,0,0,1-2.632-.961,4.265,4.265,0,0,1-.976-3.135,4.491,4.491,0,0,1,.914-3,3.4,3.4,0,0,1,4.953-.017,4.148,4.148,0,0,1,.9,2.78v.708h-5.165Zm3.354-2.2a1.564,1.564,0,0,0-.6-.732,1.7,1.7,0,0,0-.964-.275,1.727,1.727,0,0,0-.972.267,1.634,1.634,0,0,0-.612.74,2.705,2.705,0,0,0-.2,1.086h3.574A2.67,2.67,0,0,0,192.993,54.514Z" transform="translate(-180.76 -49.034)" fill="#fff"/>
      <path id="Path_399" data-name="Path 399" d="M204.229,60.262v-.725a2.754,2.754,0,0,1-.914.626,3.413,3.413,0,0,1-1.211.178,2.817,2.817,0,0,1-2.1-.693,2.4,2.4,0,0,1-.677-1.747,2.118,2.118,0,0,1,.713-1.67,3.02,3.02,0,0,1,2.062-.63h2.123v-.567a1.423,1.423,0,0,0-.414-1.133,2.027,2.027,0,0,0-1.349-.363,2.719,2.719,0,0,0-1.041.165,1.822,1.822,0,0,0-.724.607l-1.054-.993a3.165,3.165,0,0,1,1.2-.889,4.564,4.564,0,0,1,1.663-.259q3.288,0,3.291,2.745v5.349h-1.575Zm0-3.544h-1.89q-1.447,0-1.447,1.149T202.369,59a3.838,3.838,0,0,0,.883-.078,1.5,1.5,0,0,0,.646-.4,1.589,1.589,0,0,0,.332-1.158Z" transform="translate(-185.163 -49.033)" fill="#fff"/>
      <path id="Path_400" data-name="Path 400" d="M213.8,58.261a2.074,2.074,0,0,1-1.639-.623,2.3,2.3,0,0,1-.549-1.585v-9.02h1.606v8.928a1.059,1.059,0,0,0,.2.7.844.844,0,0,0,.67.228h.709v1.371Z" transform="translate(-189.95 -47.032)" fill="#fff"/>
      <path id="Path_401" data-name="Path 401" d="M219.509,60.342a6.419,6.419,0,0,1-1.881-.245,3.6,3.6,0,0,1-1.472-.905l1.055-1.055a2.476,2.476,0,0,0,1.039.646,4.141,4.141,0,0,0,1.26.189,2.561,2.561,0,0,0,1.259-.274.9.9,0,0,0,.489-.828.93.93,0,0,0-.254-.693,1.12,1.12,0,0,0-.817-.251l-1.277-.11a2.947,2.947,0,0,1-1.763-.63,2.006,2.006,0,0,1-.6-1.575,2.135,2.135,0,0,1,.843-1.795,3.462,3.462,0,0,1,2.165-.645,5.977,5.977,0,0,1,1.669.213,3.406,3.406,0,0,1,1.293.684l-1.009,1.025a2.178,2.178,0,0,0-.875-.442,4.268,4.268,0,0,0-1.094-.14,1.776,1.776,0,0,0-1.078.275.879.879,0,0,0-.372.748.814.814,0,0,0,.244.623,1.472,1.472,0,0,0,.858.29l1.261.111a2.935,2.935,0,0,1,1.772.646,2.067,2.067,0,0,1,.6,1.606,2.166,2.166,0,0,1-.924,1.874A4.013,4.013,0,0,1,219.509,60.342Z" transform="translate(-191.719 -49.035)" fill="#fff"/>
    </g>
  </g>
</svg>
