<svg xmlns="http://www.w3.org/2000/svg" width="96" height="96" viewBox="0 0 96 96">
  <g id="Award_Winning_Travel_Agency" data-name="Award Winning  Travel Agency" transform="translate(24.737 20)">
    <circle id="bg" cx="48" cy="48" r="48" transform="translate(-24.737 -20)" fill="#83e5fc"/>
    <path id="Path_357" data-name="Path 357" d="M34.244,42.868A12.354,12.354,0,0,1,21.888,30.512V24.843h6.481V23.491H20.536v7.021A13.706,13.706,0,0,0,34.244,44.219Z" transform="translate(-10.954 -12.511)" fill="#fff"/>
    <path id="Path_358" data-name="Path 358" d="M58.919,52.182c.024,0,.051,0,.074,0a1.514,1.514,0,0,0,1.421-.716,1.915,1.915,0,0,0-.228-1.994,1.5,1.5,0,0,1,.718-2.209c1.187-.513,1.365-1.236,1.365-1.622s-.178-1.109-1.365-1.622a1.5,1.5,0,0,1-.718-2.209,1.917,1.917,0,0,0,.228-1.994,1.515,1.515,0,0,0-1.422-.716,3.272,3.272,0,0,0-.713.085A1.509,1.509,0,0,1,56.4,37.826c-.128-1.374-.875-1.863-1.53-1.863a2.106,2.106,0,0,0-1.556.861,1.528,1.528,0,0,1-2.323,0,2.5,2.5,0,0,0-1.112-.788A7.771,7.771,0,0,0,47.1,22.445V19.38H12.205v3.035A7.773,7.773,0,0,0,15,37.676,17.5,17.5,0,0,0,25.628,45.2V51.5H19.9v3.739H10.924v5.2H42.946l-2.063,6.792,3.34-1.067,2.464,3.447L51.063,54.4a1.521,1.521,0,0,1,2.253.065c.007.008.014.014.02.02l4.352,15.123,2.463-3.448,3.34,1.067Zm-14.8-10.366a1.5,1.5,0,0,1-.718,2.209c-1.187.513-1.365,1.236-1.365,1.622s.178,1.109,1.365,1.622a1.5,1.5,0,0,1,.718,2.209,1.915,1.915,0,0,0-.229,1.993,1.516,1.516,0,0,0,1.422.717c.045,0,.094-.007.14-.009l-.931,3.064H39.41V51.5H34.524V44.972A17.514,17.514,0,0,0,44.3,37.688c.251.025.5.041.75.041a7.729,7.729,0,0,0,3.012-.619,3.085,3.085,0,0,0-.153.717,1.508,1.508,0,0,1-1.878,1.365,3.277,3.277,0,0,0-.713-.085,1.516,1.516,0,0,0-1.422.716A1.915,1.915,0,0,0,44.123,41.816Zm7.2-10.469a6.442,6.442,0,0,1-6.249,5.024,17.424,17.424,0,0,0,.792-1.718,4.8,4.8,0,0,0,4-3.679,4.75,4.75,0,0,0-2.766-5.43V23.849A6.441,6.441,0,0,1,51.322,31.347ZM47.1,27.091a3.4,3.4,0,0,1,1.447,3.588A3.45,3.45,0,0,1,46.39,33.14a17.381,17.381,0,0,0,.711-4.918V27.091ZM12.949,33.256a3.444,3.444,0,0,1-2.378-2.528A3.4,3.4,0,0,1,12.2,27.014v1.208A17.418,17.418,0,0,0,12.949,33.256ZM7.871,31.347a6.438,6.438,0,0,1,4.335-7.531v1.706a4.749,4.749,0,0,0-2.954,5.5,4.8,4.8,0,0,0,4.214,3.7,17.3,17.3,0,0,0,.765,1.649A6.422,6.422,0,0,1,7.871,31.347Zm5.687-3.126V20.732h32.19v7.49a16.1,16.1,0,1,1-32.19,0ZM26.98,45.465a17.543,17.543,0,0,0,6.191-.151V51.5H26.98Zm-5.732,7.391H38.057v2.386H21.249Zm-8.973,6.232V56.594H44.115l-.758,2.493Zm33.885,7.464L44.75,64.578l-1.824.582L46.88,52.144a1.5,1.5,0,0,1,1.028,1.322c.126,1.342.84,1.837,1.483,1.859Zm5.994-13.987a2.874,2.874,0,0,0-2.176,1.011,1.238,1.238,0,0,1-.523.408c-.039-.026-.16-.2-.2-.643a2.832,2.832,0,0,0-2.841-2.635,3.107,3.107,0,0,0-.679.076,1.7,1.7,0,0,1-.663.02h0a1.056,1.056,0,0,1,.216-.635,2.846,2.846,0,0,0-1.345-4.139,1.22,1.22,0,0,1-.55-.371c.013-.045.141-.214.55-.391a2.846,2.846,0,0,0,1.345-4.139,1.22,1.22,0,0,1-.227-.623.476.476,0,0,1,.258-.046,1.92,1.92,0,0,1,.416.053,3.108,3.108,0,0,0,.68.076,2.831,2.831,0,0,0,2.841-2.635,1.207,1.207,0,0,1,.183-.637c.052,0,.251.072.542.4a2.848,2.848,0,0,0,4.353,0,1.235,1.235,0,0,1,.522-.408c.039.026.16.2.2.644A2.831,2.831,0,0,0,57.9,40.588a3.114,3.114,0,0,0,.681-.076,1.925,1.925,0,0,1,.416-.053.891.891,0,0,1,.246.032,1.058,1.058,0,0,1-.216.636,2.846,2.846,0,0,0,1.345,4.139,1.22,1.22,0,0,1,.55.371c-.013.045-.141.214-.55.391a2.846,2.846,0,0,0-1.345,4.139,1.212,1.212,0,0,1,.226.623.483.483,0,0,1-.256.045,1.925,1.925,0,0,1-.417-.053,3.107,3.107,0,0,0-.679-.076,2.832,2.832,0,0,0-2.842,2.635,1.11,1.11,0,0,1-.193.636,1.111,1.111,0,0,1-.531-.4A2.879,2.879,0,0,0,52.154,52.565Zm7.469,12.013-1.41,1.973L54.981,55.319c.627-.052,1.3-.554,1.421-1.853a1.5,1.5,0,0,1,1.086-1.34l3.96,13.034Z" transform="translate(-6.363 -11.18)" fill="#fff"/>
    <path id="Path_359" data-name="Path 359" d="M77.179,55.4a5.918,5.918,0,1,0-5.918,5.918A5.925,5.925,0,0,0,77.179,55.4Zm-5.918,4.566A4.566,4.566,0,1,1,75.827,55.4,4.571,4.571,0,0,1,71.261,59.963Z" transform="translate(-25.469 -20.93)" fill="#fff"/>
    <rect id="Rectangle_156" data-name="Rectangle 156" width="1.352" height="2.197" transform="translate(50.796 10.817)" fill="#fff"/>
    <rect id="Rectangle_157" data-name="Rectangle 157" width="1.352" height="2.197" transform="translate(50.796 14.704)" fill="#fff"/>
    <rect id="Rectangle_158" data-name="Rectangle 158" width="2.197" height="1.352" transform="translate(52.318 13.183)" fill="#fff"/>
    <rect id="Rectangle_159" data-name="Rectangle 159" width="2.197" height="1.352" transform="translate(48.43 13.183)" fill="#fff"/>
    <rect id="Rectangle_160" data-name="Rectangle 160" width="1.352" height="2.197" transform="translate(38.144)" fill="#fff"/>
    <rect id="Rectangle_161" data-name="Rectangle 161" width="1.352" height="2.197" transform="translate(38.144 3.887)" fill="#fff"/>
    <rect id="Rectangle_162" data-name="Rectangle 162" width="2.197" height="1.352" transform="translate(39.665 2.366)" fill="#fff"/>
    <rect id="Rectangle_163" data-name="Rectangle 163" width="2.197" height="1.352" transform="translate(35.778 2.366)" fill="#fff"/>
  </g>
</svg>
