<svg xmlns="http://www.w3.org/2000/svg" width="96" height="96" viewBox="0 0 96 96">
  <g id="Verified_Tour_Operators" data-name="Verified Tour Operators" transform="translate(-336 -176)">
    <circle id="bg" cx="48" cy="48" r="48" transform="translate(336 176)" fill="#8383fc"/>
    <path id="Path_365" data-name="Path 365" stroke="#fff" d="M30,66.749l-1.749,5.5-2-2.5-3.248,1L25.249,65" fill="none" transform="translate(375.033 141.717)" stroke-linecap="round" stroke-linejoin="round" stroke-miterlimit="10" stroke-width="1" fill-rule="evenodd"/>
    <path id="Path_366" data-name="Path 366" stroke="#fff" d="M53.273,66.1,56,70.573l-3-.25-1.749,2.748L49,69.573" fill="none" transform="translate(355.53 140.892)" stroke-linecap="round" stroke-linejoin="round" stroke-miterlimit="10" stroke-width="1" fill-rule="evenodd"/>
    <path id="Path_367" data-name="Path 367" d="M30.568,8.124a1.619,1.619,0,0,1,.949.949l.475,1.649a9.984,9.984,0,0,0,.575,1.424l.825,1.5a1.593,1.593,0,0,1,0,1.349l-.825,1.5a7.08,7.08,0,0,0-.575,1.424l-.475,1.649a1.619,1.619,0,0,1-.949.949l-1.649.475a9.984,9.984,0,0,0-1.424.575l-1.5.825a1.593,1.593,0,0,1-1.349,0l-1.5-.825a7.08,7.08,0,0,0-1.424-.575l-1.649-.475a1.619,1.619,0,0,1-.949-.949l-.475-1.649a9.984,9.984,0,0,0-.575-1.424L17.25,15a1.593,1.593,0,0,1,0-1.349l.825-1.5a7.079,7.079,0,0,0,.575-1.424l.475-1.649a1.619,1.619,0,0,1,.949-.949l1.649-.475a9.984,9.984,0,0,0,1.424-.575l1.5-.825A1.593,1.593,0,0,1,26,6.25l1.5.825a7.079,7.079,0,0,0,1.424.575Z" transform="translate(379.459 185.901)" fill="none" stroke="#fff" stroke-linecap="round" stroke-linejoin="round" stroke-miterlimit="10" stroke-width="1"/>
    <path id="Path_368" data-name="Path 368" d="M36.432,17.462a1.126,1.126,0,0,1,.675.675l.325,1.149a6.648,6.648,0,0,0,.4.974l.575,1.049a1.058,1.058,0,0,1,0,.949l-.575,1.049a4.706,4.706,0,0,0-.4.974l-.325,1.149a1.126,1.126,0,0,1-.675.675l-1.149.325a6.647,6.647,0,0,0-.974.4l-1.049.575a1.058,1.058,0,0,1-.949,0l-1.049-.575a4.706,4.706,0,0,0-.974-.4l-1.149-.325a1.126,1.126,0,0,1-.675-.675l-.325-1.149a6.648,6.648,0,0,0-.4-.974l-.575-1.049a1.058,1.058,0,0,1,0-.949l.575-1.049a4.706,4.706,0,0,0,.4-.974l.325-1.149a1.126,1.126,0,0,1,.675-.675l1.149-.325a6.648,6.648,0,0,0,.974-.4l1.049-.575a1.058,1.058,0,0,1,.949,0l1.049.575a4.706,4.706,0,0,0,.974.4Z" transform="translate(371.995 178.437)" fill="none" stroke="#fff" stroke-linecap="round" stroke-linejoin="round" stroke-miterlimit="10" stroke-width="1"/>
    <path id="Path_369" data-name="Path 369" d="M40.248,31l-2,1,.35-2.174L37,28.3l2.224-.35L40.248,26l1.024,1.949,2.224.35-1.6,1.524L42.247,32Z" transform="translate(364.531 170.973)" fill="none" stroke="#fff" stroke-linecap="round" stroke-linejoin="round" stroke-miterlimit="10" stroke-width="1"/>
    <path id="Path_364" data-name="Path 364" d="M44.3,37.017,39.93,30.778a.709.709,0,0,0,.091-.891l-4.5-6.746h4.618a.714.714,0,0,0,.714-.714V15.285a.714.714,0,0,0-.714-.714H28.713v-3.3A5.546,5.546,0,0,0,30.141,7.55V6.714a4.29,4.29,0,0,0-4.285-4.285H21.007a2.135,2.135,0,0,1-1.189-.357L18.4,1.12a.714.714,0,0,0-1.111.594V3.857a3.558,3.558,0,0,0,1.451,2.857h-.022v7.857H7.285a.714.714,0,0,0-.714.714v7.142a.714.714,0,0,0,.714.714H11.9L7.4,29.888a.709.709,0,0,0,.1.891l-4.37,6.239a.714.714,0,0,0-.054.729l3.571,7.142,1.279-.639L4.543,37.487,8.58,31.722l3.428,2.941L9.58,37.694a.714.714,0,0,0-.095.736l2.857,6.428,1.306-.58-2.676-6.031,2.562-3.2.18-.18v9.7h1.428V39.712a40.271,40.271,0,0,0,3.571-16.631v-.824l2.308,2.77a.714.714,0,0,0,.549.257h5a.714.714,0,0,0,.549-.257l1.593-1.913a40.267,40.267,0,0,0,3.571,16.6v4.857h1.428v-9.7l.18.18,2.562,3.2-2.681,6.031,1.306.58,2.857-6.428a.714.714,0,0,0-.095-.736l-2.428-3.032,3.428-2.941,4.036,5.765L39.5,44.25l1.278.639,3.571-7.142A.714.714,0,0,0,44.3,37.017Zm-4.87-15.3H34.57l-.264-.4a.714.714,0,0,0-.389-.286l-.2-.064V16h5.714ZM27.284,19.039v-2.03L28.294,16h3.99v4.54ZM18.713,3.049l.313.208a3.562,3.562,0,0,0,1.981.6h4.849a2.857,2.857,0,0,1,2.857,2.857V7.55a4.134,4.134,0,0,1-.532,2.021h-.208a6.327,6.327,0,0,1-.689-2.857A.714.714,0,0,0,26.57,6H20.856a2.143,2.143,0,0,1-2.143-2.143Zm2.143,4.379h5.033a7.754,7.754,0,0,0,1.276,3.608l.12.178v3.773l-2.438,2.441H22.58l-2.438-2.438V7.357A3.571,3.571,0,0,0,20.856,7.428ZM15.142,20.539V16h3.99l1.01,1.01v2.03ZM8,21.713V16h5.714v4.968l-.2.061a.714.714,0,0,0-.389.286l-.263.4ZM12.962,33.6,8.945,30.153l4.675-7.012h.094v9.7Zm2.181,2.265V22.03l2.143-.643v1.695A38.855,38.855,0,0,1,15.142,35.862ZM26.235,23.856h-4.33l-2.571-3.083,1.726-.518a.714.714,0,0,0,.511-.684V18.438l.209.209a.714.714,0,0,0,.5.209h2.857a.714.714,0,0,0,.5-.209l.209-.209V19.57a.714.714,0,0,0,.509.684l2.3.689Zm3.906-.774V21.4l.009-.01,2.134.643V35.862a38.855,38.855,0,0,1-2.143-12.779Zm3.571,7.2V23.142h.094l4.675,7.012L34.465,33.6l-.752-.751Z" transform="translate(360.494 202.111)" fill="#fff"/>
    <rect id="Rectangle_167" data-name="Rectangle 167" width="1.428" height="2.857" transform="translate(397.064 219.539)" fill="#fff"/>
    <rect id="Rectangle_168" data-name="Rectangle 168" width="1.428" height="2.857" transform="translate(369.922 219.539)" fill="#fff"/>
  </g>
</svg>
