<svg xmlns="http://www.w3.org/2000/svg" width="24.833" height="29.898" viewBox="0 0 24.833 29.898">
    <defs>
        <style>
            .cls-1{fill:#959595}
        </style>
    </defs>
    <g id="Cancel" transform="translate(-6.697 -8.661)">
        <path id="Path_287" d="M19.118 20.323h12.205a.542.542 0 0 0 0-1.085H19.118a.542.542 0 0 0 0 1.085zm0-3.053h12.205a.542.542 0 0 0 0-1.085H19.118a.542.542 0 0 0 0 1.085zm0 5.79h10.035a.542.542 0 0 0 0-1.085H19.118a.542.542 0 0 0 0 1.085zm6.419 1.652h-6.419a.542.542 0 1 0 0 1.085h6.419a.542.542 0 1 0 0-1.085zm-1.791 2.736h-4.628a.542.542 0 0 0 0 1.085h4.628a.542.542 0 0 0 0-1.085zM33.4 26.2a.542.542 0 0 0-.94 0l-3.966 6.87a.542.542 0 0 0 .47.814H36.9a.543.543 0 0 0 .425-.884zm-3.5 6.6l3.027-5.243 3.027 5.243zm2.485-3.488v1.4a.542.542 0 0 0 1.085 0v-1.4a.542.542 0 1 0-1.085 0zm.542 2.194a.543.543 0 0 0-.542.542v.131a.542.542 0 0 0 1.085 0v-.131a.543.543 0 0 0-.543-.548zm1.847-7.848v-9.316a.542.542 0 0 0-.157-.382l-5.093-5.138a.543.543 0 0 0-.385-.161h-12.93a.542.542 0 0 0-.542.542v24.865a.542.542 0 0 0 .542.542h10.072a7.569 7.569 0 1 0 8.494-10.956zm-5.093-13.136L32.93 13.8h-3.249zm-3.879 23h-9.05V9.746H28.6v4.6a.542.542 0 0 0 .542.542h4.551v8.571a7.608 7.608 0 0 0-.762-.038A7.55 7.55 0 0 0 25.8 33.526zm7.125 3.949a6.487 6.487 0 1 1 6.487-6.486 6.494 6.494 0 0 1-6.487 6.49z" class="cls-1" data-name="Path 287" transform="translate(-8.97)"/>
    </g>
</svg>
