<svg xmlns="http://www.w3.org/2000/svg" width="31.001" height="31.385" viewBox="0 0 31.001 31.385">
    <defs>
        <style>
            .cls-1{fill:#959595}
        </style>
    </defs>
    <g id="Excluded" transform="translate(-1731.108 32.001)">
        <path id="Path_211" d="M39.1 12.886l-13.739-2.873a.392.392 0 0 0-.465.3L23.039 19.2l-1.907-1.653a.393.393 0 0 0-.547.032l-.3.322-.685-.627a.393.393 0 0 0-.554.025l-2.39 2.612a.392.392 0 0 0 .024.554l.686.628-.3.322a.392.392 0 0 0 .017.547l1.686 1.627-2.325 2.541-1.771-1.535a.393.393 0 0 0-.547.032l-.3.322-.686-.627a.393.393 0 0 0-.554.025l-2.39 2.613a.392.392 0 0 0 .024.554l.686.628-.3.322a.392.392 0 0 0 .017.547l6.531 6.3a.387.387 0 0 0 .054.461l5.1 5.288a1.076 1.076 0 0 0 .772.328h.014a1.074 1.074 0 0 0 .776-.348l3.951-4.318a1.072 1.072 0 0 0-.118-1.558l-1.08-.871 7.641 1.6a2.549 2.549 0 0 0 .523.055 2.533 2.533 0 0 0 2.472-2.013l3.776-18.052a2.53 2.53 0 0 0-1.935-2.997zm-21.6 7.261l1.861-2.033.4.362-1.861 2.033zm3.4-1.761l6.541 5.672-3.306 3.613-6.229-6.012zm8.854 15.075a.286.286 0 0 1-.208.093.267.267 0 0 1-.211-.088l-.619-.642 4.263-4.659.694.56a.288.288 0 0 1 .031.418zm-1.583-1.2L24.5 28.444l3.751-4.1 4.126 3.327zM18.847 28.2l2.212-2.416.5.485v.008L20.8 29.9zm.5-4.072l1.151 1.111-2.24 2.447-1.208-1.048zM11.054 27.2l1.861-2.033.4.363-1.865 2.028zm3.4-1.761L21 31.107l-3.309 3.613-6.228-6.013zm7.346 5.954l4.126 3.328-4.2 4.587-3.68-3.815zm5.538 4.582a.285.285 0 0 1-.075.216l-3.952 4.319a.288.288 0 0 1-.419.005l-.619-.642 4.264-4.659.694.56a.285.285 0 0 1 .106.202zM22 30.552a.388.388 0 0 0-.464-.013l-.066-.057c0-.009.009-.017.011-.026l.741-3.542 1.4 1.348a.387.387 0 0 0 .054.461l5.011 5.2-3.362-.7h-.019zM40.287 15.72l-3.776 18.052a1.746 1.746 0 0 1-2.066 1.352l-4.388-.918a1.062 1.062 0 0 0 .283-.215l3.951-4.318a1.072 1.072 0 0 0-.118-1.558L28.454 23.5a.388.388 0 0 0-.464-.013l-4.273-3.706 1.867-8.924 13.352 2.793a1.748 1.748 0 0 1 1.351 2.07z" class="cls-1" data-name="Path 211" transform="translate(1721 -42.004)"/>
        <path id="Path_212" d="M64.48 23.05a1.569 1.569 0 0 0-1.27-.273c-.7.085-1.764 1.253-2.068 1.6l-.789.842-3.163-1.857a.685.685 0 0 0-.865.122l-.252.252a.771.771 0 0 0-.22.425.606.606 0 0 0 .182.536l2.665 2.309-1.457 1.7-.729-.391a.655.655 0 0 0-.753.127l-.235.235a.654.654 0 0 0 0 .926l2.45 2.449a.645.645 0 0 0 .459.19h.006a.656.656 0 0 0 .46-.193l.239-.238a.663.663 0 0 0 .125-.755l-.377-.732 1.691-1.446 2.321 2.684a.663.663 0 0 0 .941-.058l.253-.252a.684.684 0 0 0 .121-.865l-1.856-3.159.842-.79a.377.377 0 0 0 .032-.034c.4-.357 1.485-1.367 1.567-2.037a1.575 1.575 0 0 0-.288-1.285.483.483 0 0 0-.032-.032zm-.451 1.173a.344.344 0 0 0-.008.053 5 5 0 0 1-1.349 1.577.379.379 0 0 0-.05.053l-1.029.964a.392.392 0 0 0-.07.485l1.983 3.375-.155.155-2.438-2.813a.392.392 0 0 0-.551-.041l-2.223 1.9a.392.392 0 0 0-.094.478l.472.915-.083.082-2.262-2.262.079-.079.9.483a.392.392 0 0 0 .483-.09l1.916-2.238a.392.392 0 0 0-.041-.552l-2.817-2.441.157-.156 3.378 1.986a.392.392 0 0 0 .485-.07l1.013-1.081a5.077 5.077 0 0 1 1.575-1.349.412.412 0 0 0 .053-.008.872.872 0 0 1 .584.069.828.828 0 0 1 .092.604z" class="cls-1" data-name="Path 212" transform="translate(1693.519 -49.746)"/>
    </g>
</svg>
