<svg xmlns="http://www.w3.org/2000/svg" width="21.771" height="32" viewBox="0 0 21.771 32">
    <defs>
        <style>
            .cls-1{fill:#959595}
        </style>
    </defs>
    <g id="Included" transform="translate(-1743.6 32)">
        <path id="Path_213" d="M23.277 20.443v17.473a3.193 3.193 0 0 0 3.184 3.184H40.51a3.193 3.193 0 0 0 3.184-3.184V20.443a3.581 3.581 0 0 0-.637-1.99 10.391 10.391 0 0 0 1.314-5.053v-.36a.376.376 0 0 0-.4-.4h-6.804a3.664 3.664 0 0 0-7.323 0H23a.376.376 0 0 0-.4.4v.36a10.278 10.278 0 0 0 1.313 5.055 3.683 3.683 0 0 0-.636 1.988zM33.505 9.9a2.884 2.884 0 0 1 2.866 2.746H30.64A2.856 2.856 0 0 1 33.505 9.9zm7.045 30.444H26.461a2.4 2.4 0 0 1-2.388-2.388V37.4h18.865v.557a2.4 2.4 0 0 1-2.388 2.387zm2.388-19.9v16.119H24.073v-16.12a2.431 2.431 0 0 1 .318-1.194 10.991 10.991 0 0 0 2.587 2.667v1.99a1.362 1.362 0 1 0 1.751 1.313 1.412 1.412 0 0 0-.955-1.313v-1.473a10.3 10.3 0 0 0 5.254 1.433h.955a10.192 10.192 0 0 0 5.134-1.353v1.393a1.362 1.362 0 1 0 1.751 1.313 1.412 1.412 0 0 0-.955-1.313V22a10.443 10.443 0 0 0 2.706-2.746 2.431 2.431 0 0 1 .319 1.189zm-15.562 4.178a.557.557 0 1 1-.557.557.544.544 0 0 1 .557-.557zm11.741-11.184v8.119a9.442 9.442 0 0 1-5.134 1.473h-.955a9.476 9.476 0 0 1-5.254-1.552v-8.04zm.4 11.184a.557.557 0 1 1-.557.557.544.544 0 0 1 .555-.557zm.4-3.622v-7.562h3.7A9.524 9.524 0 0 1 39.913 21zm-12.939-7.562v7.483a9.558 9.558 0 0 1-3.578-7.483z" class="cls-1" data-name="Path 213" transform="translate(1721 -41.1)"/>
        <path id="Path_214" d="M45.665 54.5H31.1a.376.376 0 0 0-.4.4v5.174a2.016 2.016 0 0 0 1.831 2.149h11.7a2.016 2.016 0 0 0 1.831-2.149V54.9a.428.428 0 0 0-.397-.4zm-.438.8a3.137 3.137 0 0 1-3.1 2.746H38.78v-.8a.4.4 0 1 0-.8 0v.8h-3.34a3.137 3.137 0 0 1-3.1-2.746zm.04 4.776a1.231 1.231 0 0 1-1.035 1.353h-11.7a1.231 1.231 0 0 1-1.032-1.357v-2.786a3.921 3.921 0 0 0 3.144 1.552h3.343v.955a.4.4 0 0 0 .8 0v-.955h3.343a4.038 4.038 0 0 0 3.144-1.552z" class="cls-1" data-name="Path 214" transform="translate(1716.124 -68.43)"/>
    </g>
</svg>
