<svg xmlns="http://www.w3.org/2000/svg" width="23.376" height="29.617" viewBox="0 0 23.376 29.617">
    <defs>
        <style>
            .cls-1{fill:#959595}
        </style>
    </defs>
    <g id="Info" transform="translate(-18.553 -10)">
        <path id="Path_269" d="M31.818 43.4h15.46a.37.37 0 1 0 0-.74h-1.063v-1.905l.841.846a.37.37 0 1 0 .525-.522L46.215 39.7v-.6l.841.846a.37.37 0 1 0 .525-.522l-1.366-1.373v-.6l.841.846a.37.37 0 1 0 .525-.522L46.108 36.3a.381.381 0 0 0-.525 0l-1.474 1.482a.37.37 0 1 0 .525.522l.841-.846v.6l-1.366 1.373a.37.37 0 1 0 .525.522l.841-.846v.6l-1.366 1.373a.37.37 0 1 0 .525.522l.841-.846v1.907h-1.648l-5.563-10.03a.385.385 0 0 0-.648 0l-5.563 10.03h-.235a.37.37 0 0 0 0 .74zm6.122-9.827l1.589 2.864-.277.34-.37-.454a.37.37 0 0 0-.287-.136.37.37 0 0 0-.287.137l-.369.453-.369-.453a.383.383 0 0 0-.575 0l-.368.453-.276-.339zm-1.976 3.562l.376.462a.383.383 0 0 0 .575 0l.368-.453.369.453a.37.37 0 0 0 .575 0l.369-.454.37.454a.37.37 0 0 0 .574 0l.377-.462 3.064 5.525H32.9z" class="cls-1" data-name="Path 269" transform="translate(-8.121 -14.142)"/>
        <path id="Path_270" d="M57.692 23.874a2.9 2.9 0 0 0 2.7-1.87.37.37 0 0 0-.477-.477 2.14 2.14 0 0 1-2.761-2.761.37.37 0 0 0-.477-.478 2.885 2.885 0 0 0 1.017 5.586zm-1.417-4.494v.141a2.89 2.89 0 0 0 2.886 2.887h.141a2.143 2.143 0 1 1-3.024-3.024z" class="cls-1" data-name="Path 270" transform="translate(-22.832 -5.205)"/>
        <path id="Path_271" d="M47.376 70.141H32.2a.37.37 0 1 0 0 .74h15.176a.37.37 0 0 0 0-.74z" class="cls-1" data-name="Path 271" transform="translate(-8.359 -37.876)"/>
        <path id="Path_272" d="M47.376 76.859H32.2a.37.37 0 0 0 0 .74h15.176a.37.37 0 0 0 0-.74z" class="cls-1" data-name="Path 272" transform="translate(-8.359 -42.107)"/>
        <path id="Path_273" d="M41.559 10H19.993a.37.37 0 0 0-.37.37v1.5h-.7a.37.37 0 1 0 0 .74h.7v1.518h-.7a.37.37 0 1 0 0 .74h.7v1.518h-.7a.37.37 0 1 0 0 .74h.7v1.518h-.7a.37.37 0 1 0 0 .74h.7V20.9h-.7a.37.37 0 1 0 0 .74h.7v1.52h-.7a.37.37 0 0 0 0 .74h.7v1.518h-.7a.37.37 0 1 0 0 .74h.7v1.517h-.7a.37.37 0 0 0 0 .74h.7v1.518h-.7a.37.37 0 0 0 0 .74h.7v1.518h-.7a.37.37 0 1 0 0 .74h.7v1.518h-.7a.37.37 0 1 0 0 .74h.7v1.518h-.7a.37.37 0 0 0 0 .74h.7v1.8a.37.37 0 0 0 .37.37h21.566a.37.37 0 0 0 .37-.37V10.37a.37.37 0 0 0-.37-.37zm-.37 28.877H20.364v-1.429h.7a.37.37 0 1 0 0-.74h-.7V35.19h.7a.37.37 0 1 0 0-.74h-.7v-1.518h.7a.37.37 0 0 0 0-.74h-.7v-1.519h.7a.37.37 0 0 0 0-.74h-.7v-1.518h.7a.37.37 0 0 0 0-.74h-.7v-1.518h.7a.37.37 0 0 0 0-.74h-.7V23.9h.7a.37.37 0 0 0 0-.74h-.7v-1.519h.7a.37.37 0 0 0 0-.74h-.7v-1.518h.7a.37.37 0 0 0 0-.74h-.7v-1.519h.7a.37.37 0 0 0 0-.74h-.7v-1.518h.7a.37.37 0 0 0 0-.74h-.7v-1.518h.7a.37.37 0 0 0 0-.74h-.7V10.74h20.825z" class="cls-1" data-name="Path 273"/>
    </g>
</svg>
