<svg xmlns="http://www.w3.org/2000/svg" width="27.697" height="29.906" viewBox="0 0 27.697 29.906">
    <defs>
        <style>
            .cls-1{fill:#959595}
        </style>
    </defs>
    <g id="Review" transform="translate(-212.918 -209.483)">
        <g id="Group_120" data-name="Group 120" transform="translate(212.919 209.483)">
            <path id="Path_292" d="M243.738 230.968a2.06 2.06 0 0 0 .847-1.665v-7.1-.015a1.651 1.651 0 0 0-2.873-1.049 1.65 1.65 0 0 0-2.762-.555 1.683 1.683 0 0 0-1.564-1.162 1.62 1.62 0 0 0-1.123.465v-3.154h2.9a3.622 3.622 0 1 0 0-7.244h-9.106a3.622 3.622 0 1 0 0 7.244h2.9v7.989a.777.777 0 0 1-.78.772.764.764 0 0 1-.558-.239l-1.558-1.531a1.651 1.651 0 0 0-2.336 2.335l5.434 5.433a1.517 1.517 0 0 0 1.24 2.392h8.725a1.517 1.517 0 0 0 .616-2.9zm-10.777-16.1v1.33h-2.9a3.093 3.093 0 1 1 0-6.187h9.106a3.093 3.093 0 0 1 0 6.187h-2.9v-1.33a1.651 1.651 0 0 0-3.3 0zm-4.863 10.8a1.122 1.122 0 1 1 1.589-1.586l1.559 1.533a1.306 1.306 0 0 0 2.241-.906v-9.847a1.122 1.122 0 1 1 2.245 0v7.408a.265.265 0 0 0 .529 0v-1.163a1.123 1.123 0 1 1 2.245 0v1.572a.264.264 0 1 0 .529 0v-.979a1.122 1.122 0 1 1 2.245 0v1.57a.264.264 0 1 0 .529 0v-1.032a1.122 1.122 0 0 1 2.245 0v7.06a1.536 1.536 0 0 1-1.534 1.534h-8.12a1.51 1.51 0 0 0-.865.272zm15.024 7.67H234.4a.989.989 0 0 1 0-1.978h8.725a.989.989 0 0 1 0 1.978z" class="cls-1" data-name="Path 292" transform="translate(-222.091 -209.483)"/>
            <path id="Path_293" d="M251.311 214.778a.265.265 0 0 0 .265-.265v-.826a.265.265 0 0 0-.529 0v.826a.265.265 0 0 0 .264.265z" class="cls-1" data-name="Path 293" transform="translate(-238.79 -212.156)"/>
            <path id="Path_294" d="M244.447 216.09a.265.265 0 0 0-.406.34l.531.633a.265.265 0 0 0 .405-.34z" class="cls-1" data-name="Path 294" transform="translate(-233.995 -213.902)"/>
            <path id="Path_295" d="M241.343 222.655l-.813-.143a.265.265 0 0 0-.092.521l.813.143a.287.287 0 0 0 .047 0 .264.264 0 0 0 .046-.525z" class="cls-1" data-name="Path 295" transform="translate(-231.443 -218.321)"/>
            <path id="Path_296" d="M259.348 222.962a.265.265 0 0 0 .26.219.253.253 0 0 0 .047 0l.813-.143a.264.264 0 1 0-.092-.521l-.813.143a.265.265 0 0 0-.215.302z" class="cls-1" data-name="Path 296" transform="translate(-244.42 -218.321)"/>
            <path id="Path_297" d="M256.725 217.157a.265.265 0 0 0 .2-.094l.53-.633a.265.265 0 1 0-.406-.34l-.53.633a.264.264 0 0 0 .2.434z" class="cls-1" data-name="Path 297" transform="translate(-242.464 -213.902)"/>
            <path id="Path_298" d="M253.051 289.534l-1.372-.2-.614-1.243a.264.264 0 0 0-.474 0l-.614 1.243-1.372.2a.264.264 0 0 0-.147.451l.993.968-.234 1.367a.264.264 0 0 0 .383.279l1.227-.645 1.227.645a.26.26 0 0 0 .123.03.267.267 0 0 0 .156-.05.264.264 0 0 0 .105-.258l-.235-1.367.993-.968a.265.265 0 0 0-.146-.452zm-1.315 1.137a.262.262 0 0 0-.076.234l.167.975-.876-.461a.265.265 0 0 0-.246 0l-.876.461.167-.975a.265.265 0 0 0-.076-.234l-.708-.69.979-.142a.264.264 0 0 0 .2-.144l.438-.888.438.888a.266.266 0 0 0 .2.144l.979.142z" class="cls-1" data-name="Path 298" transform="translate(-236.98 -262.722)"/>
            <path id="Path_299" d="M270.783 289.534l-1.372-.2-.614-1.243a.265.265 0 0 0-.474 0l-.613 1.243-1.373.2a.264.264 0 0 0-.146.451l.993.968-.234 1.367a.264.264 0 0 0 .261.309.258.258 0 0 0 .123-.03l1.227-.646 1.227.646a.264.264 0 0 0 .384-.279l-.235-1.367.993-.968a.264.264 0 0 0-.147-.451zm-1.315 1.137a.267.267 0 0 0-.076.234l.167.975-.876-.461a.265.265 0 0 0-.247 0l-.876.461.167-.975a.264.264 0 0 0-.076-.234l-.709-.69.979-.142a.265.265 0 0 0 .2-.144l.438-.888.438.888a.266.266 0 0 0 .2.144l.979.142z" class="cls-1" data-name="Path 299" transform="translate(-249.011 -262.722)"/>
            <path id="Path_300" d="M288.726 289.714a.265.265 0 0 0-.213-.18l-1.373-.2-.614-1.243a.264.264 0 0 0-.474 0l-.614 1.243-1.373.2a.265.265 0 0 0-.147.451l.993.968-.234 1.367a.264.264 0 0 0 .384.279l1.227-.645 1.227.645a.259.259 0 0 0 .123.03.263.263 0 0 0 .26-.309l-.234-1.367.993-.968a.265.265 0 0 0 .069-.271zm-1.529.957a.267.267 0 0 0-.076.234l.167.975-.876-.461a.267.267 0 0 0-.123-.031.263.263 0 0 0-.123.031l-.876.461.167-.975a.264.264 0 0 0-.076-.234l-.709-.69.979-.142a.263.263 0 0 0 .2-.144l.438-.888.438.888a.264.264 0 0 0 .2.144l.979.142z" class="cls-1" data-name="Path 300" transform="translate(-261.042 -262.722)"/>
            <path id="Path_301" d="M217.591 289.534l-1.372-.2-.614-1.243a.265.265 0 0 0-.474 0l-.614 1.243-1.372.2a.265.265 0 0 0-.147.451l.993.968-.234 1.367a.265.265 0 0 0 .384.279l1.227-.645 1.227.645a.26.26 0 0 0 .123.03.264.264 0 0 0 .261-.309l-.235-1.367.993-.968a.265.265 0 0 0-.147-.452zm-1.315 1.137a.263.263 0 0 0-.076.234l.167.975-.876-.461a.265.265 0 0 0-.246 0l-.876.461.167-.975a.265.265 0 0 0-.076-.234l-.708-.69.979-.142a.265.265 0 0 0 .2-.144l.438-.888.438.888a.265.265 0 0 0 .2.144l.979.142z" class="cls-1" data-name="Path 301" transform="translate(-212.919 -262.722)"/>
            <path id="Path_302" d="M235.321 289.534l-1.372-.2-.614-1.243a.264.264 0 0 0-.474 0l-.614 1.243-1.372.2a.265.265 0 0 0-.147.451l.993.968-.234 1.367a.265.265 0 0 0 .384.279l1.227-.645 1.227.645a.26.26 0 0 0 .123.03.263.263 0 0 0 .261-.309l-.234-1.367.993-.968a.265.265 0 0 0-.146-.452zm-1.315 1.137a.264.264 0 0 0-.076.234l.167.975-.876-.461a.265.265 0 0 0-.123-.031.261.261 0 0 0-.123.031l-.876.461.167-.975a.265.265 0 0 0-.076-.234l-.709-.69.979-.142a.264.264 0 0 0 .2-.144l.438-.888.438.888a.265.265 0 0 0 .2.144l.979.142z" class="cls-1" data-name="Path 302" transform="translate(-224.949 -262.722)"/>
        </g>
    </g>
</svg>
