<svg xmlns="http://www.w3.org/2000/svg" width="31.42" height="31.414" viewBox="0 0 31.42 31.414">
    <defs>
        <style>
            .cls-1{fill:#ff5a39}
        </style>
    </defs>
    <g id="Where_we_visit" data-name="Where we visit" transform="translate(-9.981 -10.001)">
        <path id="Path_232" d="M58.223 22.145a.393.393 0 1 0 .564-.546l-4.42-4.565a.39.39 0 0 0-.559 0L49.384 21.6a.393.393 0 1 0 .564.546l3.745-3.868v2.042l-4.309 4.451a.393.393 0 1 0 .564.546l3.745-3.868v2.043l-4.309 4.451a.393.393 0 1 0 .564.546l3.745-3.868v2.1l-4.309 4.451a.393.393 0 1 0 .564.546l3.745-3.868v9.193H39.182a.393.393 0 0 0 0 .785h14.511v3.693h-1.207a.393.393 0 1 0 0 .785h5.977a.393.393 0 1 0 0-.785h-3.985v-3.688h3.985a.393.393 0 1 0 0-.785h-3.985v-9.193l3.745 3.868a.393.393 0 0 0 .564-.546l-4.309-4.451v-2.1l3.745 3.868a.393.393 0 1 0 .564-.546l-4.309-4.451v-2.048l3.745 3.868a.393.393 0 0 0 .564-.546l-4.309-4.451v-2.043z" class="cls-1" data-name="Path 232" transform="translate(-17.497 -4.199)"/>
        <path id="Path_233" d="M11.569 46.421h-1.2a.393.393 0 0 0 0 .785h10.042a.393.393 0 0 0 0-.785h-2.092a3.387 3.387 0 0 0-2.694-3.176V35.2l3.412 3.525a.393.393 0 1 0 .564-.546l-3.976-4.107v-1.867l3.412 3.525a.393.393 0 0 0 .564-.546l-3.976-4.107v-1.8l3.412 3.523a.393.393 0 1 0 .564-.546l-3.976-4.107v-1.8l3.412 3.525a.393.393 0 0 0 .564-.546L15.514 25.1a.39.39 0 0 0-.559 0l-4.087 4.222a.393.393 0 0 0 .564.546l3.412-3.525v1.8l-3.981 4.107a.393.393 0 0 0 .564.546l3.412-3.525v1.8l-3.976 4.107a.393.393 0 0 0 .564.546l3.412-3.525v1.861l-3.976 4.107a.393.393 0 0 0 .564.546l3.412-3.513v7.986a3.375 3.375 0 0 0-.624.076 2.139 2.139 0 0 0-4.227.464.393.393 0 0 0 .785 0 1.351 1.351 0 0 1 2.688-.2 3.384 3.384 0 0 0-1.892 2.895zm3.375-2.459a2.6 2.6 0 0 1 2.59 2.459h-5.18a2.6 2.6 0 0 1 2.59-2.459z" class="cls-1" data-name="Path 233" transform="translate(0 -9.095)"/>
        <path id="Path_234" d="M51.235 73.213a2.156 2.156 0 0 1 2.153 2.155.393.393 0 0 0 .785 0 2.936 2.936 0 0 0-5.87-.127h-2.989a.393.393 0 0 0 0 .785h6.149a.393.393 0 0 0 0-.785h-2.375a2.154 2.154 0 0 1 2.147-2.028z" class="cls-1" data-name="Path 234" transform="translate(-21.221 -37.914)"/>
        <path id="Path_235" d="M48.445 20.733a2.8 2.8 0 1 0-2.8 2.8 2.8 2.8 0 0 0 2.8-2.8zm-2.8 2.012a2.012 2.012 0 1 1 2.01-2.012 2.013 2.013 0 0 1-2.006 2.012z" class="cls-1" data-name="Path 235" transform="translate(-19.965 -4.82)"/>
        <path id="Path_236" d="M49.758 11.816v-1.423a.393.393 0 1 0-.785 0v1.423a.393.393 0 1 0 .785 0z" class="cls-1" data-name="Path 236" transform="translate(-23.681)"/>
        <path id="Path_237" d="M42.145 11.936a.393.393 0 0 0-.144.536l.711 1.233a.393.393 0 1 0 .68-.392l-.711-1.233a.392.392 0 0 0-.536-.144z" class="cls-1" data-name="Path 237" transform="translate(-19.415 -1.144)"/>
        <path id="Path_238" d="M38.626 17.794l-1.232-.712a.393.393 0 1 0-.393.68l1.232.712a.393.393 0 1 0 .393-.68z" class="cls-1" data-name="Path 238" transform="translate(-16.291 -4.269)"/>
        <path id="Path_239" d="M36.738 24.845a.393.393 0 1 0 0-.785h-1.422a.393.393 0 1 0 0 .785z" class="cls-1" data-name="Path 239" transform="translate(-15.148 -8.539)"/>
        <path id="Path_240" d="M37.394 30.721l1.232-.712a.393.393 0 0 0-.393-.68L37 30.041a.393.393 0 1 0 .393.68z" class="cls-1" data-name="Path 240" transform="translate(-16.291 -11.707)"/>
        <path id="Path_241" d="M42.145 35.062a.393.393 0 0 0 .536-.144l.711-1.233a.393.393 0 1 0-.68-.392L42 34.525a.393.393 0 0 0 .145.537z" class="cls-1" data-name="Path 241" transform="translate(-19.415 -14.027)"/>
        <path id="Path_242" d="M48.973 34.887v1.423a.393.393 0 1 0 .785 0v-1.423a.393.393 0 1 0-.785 0z" class="cls-1" data-name="Path 242" transform="translate(-23.681 -14.876)"/>
        <path id="Path_243" d="M54.951 34.918a.393.393 0 0 0 .68-.392l-.711-1.233a.393.393 0 1 0-.68.392z" class="cls-1" data-name="Path 243" transform="translate(-26.848 -14.027)"/>
        <path id="Path_244" d="M58.2 30.009l1.232.712a.393.393 0 0 0 .393-.68l-1.232-.712a.393.393 0 0 0-.393.68z" class="cls-1" data-name="Path 244" transform="translate(-29.166 -11.707)"/>
        <path id="Path_245" d="M61.608 24.452a.393.393 0 0 0-.393-.393h-1.422a.393.393 0 0 0 0 .785h1.422a.393.393 0 0 0 .393-.392z" class="cls-1" data-name="Path 245" transform="translate(-30.014 -8.539)"/>
        <path id="Path_246" d="M58.4 18.526a.39.39 0 0 0 .2-.053l1.232-.712a.393.393 0 1 0-.393-.68l-1.232.712a.393.393 0 0 0 .2.733z" class="cls-1" data-name="Path 246" transform="translate(-29.166 -4.269)"/>
        <path id="Path_247" d="M55.487 11.936a.392.392 0 0 0-.536.144l-.711 1.233a.393.393 0 1 0 .68.392l.711-1.233a.393.393 0 0 0-.144-.536z" class="cls-1" data-name="Path 247" transform="translate(-26.848 -1.144)"/>
        <path id="Path_248" d="M41 84.89a2.064 2.064 0 0 0-1.547.72 1.256 1.256 0 0 1-2.009 0 2.022 2.022 0 0 0-3.094 0 1.255 1.255 0 0 1-2.007 0 2.023 2.023 0 0 0-3.094 0 1.257 1.257 0 0 1-2.009 0 2.024 2.024 0 0 0-3.095 0 1.257 1.257 0 0 1-2.009 0 2.024 2.024 0 0 0-3.1 0 1.257 1.257 0 0 1-2.009 0 2.026 2.026 0 0 0-3.1 0 1.26 1.26 0 0 1-2.013 0 2.068 2.068 0 0 0-1.549-.72.393.393 0 0 0 0 .785 1.305 1.305 0 0 1 1.006.5 2.027 2.027 0 0 0 3.1 0 1.259 1.259 0 0 1 2.012 0 2.024 2.024 0 0 0 3.1 0 1.257 1.257 0 0 1 2.009 0 2.024 2.024 0 0 0 3.1 0 1.257 1.257 0 0 1 2.009 0 2.023 2.023 0 0 0 3.095 0 1.256 1.256 0 0 1 2.008 0 2.022 2.022 0 0 0 3.094 0 1.255 1.255 0 0 1 2.007 0 2.023 2.023 0 0 0 3.095 0 1.3 1.3 0 0 1 1-.5.393.393 0 0 0 0-.785z" class="cls-1" data-name="Path 248" transform="translate(0 -45.483)"/>
    </g>
</svg>
