<svg xmlns="http://www.w3.org/2000/svg" width="31" height="24" viewBox="0 0 31 24"><g><g><path fill="#959595" d="M16.771 10.945c.33 0 .649-.135.877-.37a1.221 1.221 0 0 0 0-1.746 1.207 1.207 0 0 0-.877-.38h-.031l-1.54.002v2.494h1.571zm-7.645 1.384a.416.416 0 1 0-.832 0 .416.416 0 0 0 .832 0zm2.034 0a.416.416 0 1 0-.833 0 .416.416 0 0 0 .833 0zm9.735 1.728c.39 0 .757-.153 1.031-.43.305-.285.46-.623.46-1.006-.286-.228-.69-.343-1.199-.343-.372 0-.685.09-.93.27-.254.182-.377.401-.377.67a.727.727 0 0 0 .301.599c.197.155.443.24.691.24h.023zM6.32 7.762c.885 0 1.74.264 2.408.744.661.475 1.1 1.13 1.234 1.843h-.036l-.04-.002-.116-.001c-1.862 0-3.376 1.252-3.376 2.791 0 .252.041.506.125.755a4.319 4.319 0 0 1-1.44-.174.293.293 0 0 0-.236.03l-.79.46a.287.287 0 0 1-.135.045.092.092 0 0 1-.076-.034c-.029-.037-.032-.101-.01-.18l.172-.647a.215.215 0 0 0-.084-.234c-.817-.586-1.287-1.435-1.287-2.33 0-1.69 1.654-3.066 3.687-3.066zm10.437-.191c.578 0 1.123.22 1.536.62.425.381.664.93.657 1.507a1.971 1.971 0 0 1-.657 1.514c-.424.404-.955.61-1.577.61h-1.516v2.894h-.918V7.57zm4.28 3.971c.54 0 .991.101 1.341.3v-.21a1.047 1.047 0 0 0-.376-.813 1.298 1.298 0 0 0-.873-.333h-.012c-.511 0-.92.218-1.216.648l-.812-.51c.443-.634 1.108-.956 1.975-.956.674 0 1.215.183 1.607.542.391.364.59.866.59 1.491v3.015h-.88v-.68h-.04c-.378.557-.888.839-1.517.839-.535 0-.99-.161-1.35-.48a1.516 1.516 0 0 1-.544-1.196c0-.504.193-.91.574-1.207.38-.297.895-.448 1.532-.45zM10.84 15.548a.226.226 0 0 0-.062.009 3.598 3.598 0 0 1-1.045.153c-1.692 0-3.069-1.148-3.069-2.56 0-1.412 1.377-2.561 3.069-2.561 1.69 0 3.067 1.149 3.067 2.561 0 .752-.393 1.463-1.078 1.95a.154.154 0 0 0-.062.167l.144.552c.018.066.015.12-.009.151a.08.08 0 0 1-.066.03.25.25 0 0 1-.114-.037l-.665-.386a.225.225 0 0 0-.11-.03zm13.566-5.721l1.458 3.51h.019l1.415-3.51h1l-3.063 7.042h-.945l1.136-2.464-2.018-4.578zM30.3 21.6V2c0-1.103-.898-2-2.002-2H2A2 2 0 0 0 .002 2v19.601a2 2 0 0 0 1.998 2h26.298a2.003 2.003 0 0 0 2.002-2z"/></g></g></svg>