<svg xmlns="http://www.w3.org/2000/svg" width="31" height="24" viewBox="0 0 31 24"><g><g><path fill="#959595" d="M18.347 10.574a1.22 1.22 0 0 0 0-1.745 1.202 1.202 0 0 0-.875-.38h-.033l-1.54.002v2.494h1.573c.327 0 .647-.135.875-.37zm3.249 3.483a1.45 1.45 0 0 0 1.031-.43c.304-.284.457-.623.457-1.006-.285-.228-.688-.343-1.196-.343-.37 0-.684.09-.932.27-.254.183-.377.403-.377.67a.73.73 0 0 0 .303.599c.197.155.442.24.69.24h.024zm-4.18-6.486h.043c.577 0 1.122.22 1.534.62.427.381.667.93.657 1.507a1.971 1.971 0 0 1-.657 1.514c-.425.404-.955.61-1.576.61H15.9v2.894h-.918V7.57zm4.32 3.971c.542 0 .994.101 1.345.3v-.21a1.05 1.05 0 0 0-.378-.813 1.295 1.295 0 0 0-.872-.333h-.014c-.51 0-.92.218-1.215.648l-.811-.51c.442-.634 1.107-.956 1.975-.956.674 0 1.214.183 1.607.542.39.363.588.865.588 1.491v3.015h-.878v-.68h-.04c-.38.557-.89.839-1.517.839-.536 0-.99-.161-1.351-.48a1.52 1.52 0 0 1-.544-1.196c0-.503.193-.91.574-1.207.38-.297.895-.448 1.531-.45zM10.996 8.07L9.824 9.24a2.217 2.217 0 0 0-1.538-.615H8.25c-1.04 0-1.966.681-2.303 1.694a2.464 2.464 0 0 0 0 1.571c.337 1.014 1.263 1.695 2.303 1.695.538 0 1.021-.136 1.397-.393.43-.285.729-.739.82-1.247H8.249v-1.58h3.872c.048.281.071.562.07.833 0 1.223-.434 2.295-1.221 3.02-.704.65-1.644.992-2.721.992a4.083 4.083 0 0 1-3.666-2.262 4.123 4.123 0 0 1 0-3.687 4.083 4.083 0 0 1 3.666-2.26h.05c1.008 0 1.965.38 2.697 1.07zm14.11 1.757l1.457 3.51h.021L28 9.828h1l-3.064 7.042h-.947l1.136-2.464-2.017-4.578zM31 21.6V2c0-1.103-.897-2-2-2H2.7C1.599 0 .702.897.702 2v19.601c0 1.103.897 2 2 2H29c1.103 0 2-.897 2-2z"/></g></g></svg>