<svg xmlns="http://www.w3.org/2000/svg" width="96" height="96" viewBox="0 0 96 96">
  <g id="Best_Selections" data-name="Best Selections" transform="translate(13.695 14.006)">
    <circle id="bg" cx="48" cy="48" r="48" transform="translate(-13.695 -14.006)" fill="#64cccc"/>
    <path id="Path_342" data-name="Path 342" d="M75.219,21.363A11.372,11.372,0,1,0,63.847,32.735,11.385,11.385,0,0,0,75.219,21.363ZM63.847,31.538A10.174,10.174,0,1,1,74.022,21.363,10.185,10.185,0,0,1,63.847,31.538Z" transform="translate(-16.915 -0.028)" fill="#fff"/>
    <path id="Path_343" data-name="Path 343" d="M65.385,13.824A9.076,9.076,0,1,0,74.461,22.9,9.086,9.086,0,0,0,65.385,13.824Zm.649,16.921v-.907a.6.6,0,1,0-1.2,0v.913a7.888,7.888,0,0,1-7-5.594h1.252a.6.6,0,1,0,0-1.2H57.586a7.81,7.81,0,0,1,7.249-8.909v1.073a.6.6,0,1,0,1.2,0V15.055a7.886,7.886,0,0,1,7.191,7.087H72.19a.6.6,0,0,0,0,1.2h1.05A7.88,7.88,0,0,1,66.033,30.745Z" transform="translate(-18.452 -1.565)" fill="#fff"/>
    <path id="Path_344" data-name="Path 344" d="M48.252,56.472a.6.6,0,0,0,.821-.156l.32-.457,1.02.714a.6.6,0,0,0,.834-.147l2.833-4.047a.6.6,0,0,0-.147-.834l-1.019-.714.32-.458a.6.6,0,0,0-.135-.825L42.956,42.036a.593.593,0,0,0-.189-.651l-8.014-6.391a1.548,1.548,0,0,0-2.232.323L27.84,42a1.546,1.546,0,0,0,.461,2.208l8.746,5.344a.6.6,0,0,0,.312.087.59.59,0,0,0,.357-.138l4.079,2.7-2.56,3.658-3.922-2.9a.6.6,0,0,0-.189-.651l-8.015-6.392a1.548,1.548,0,0,0-2.232.323l-4.683,6.688a1.549,1.549,0,0,0,.461,2.208L29.4,60.474a.6.6,0,0,0,.312.087.587.587,0,0,0,.356-.138l10.538,6.968a.6.6,0,0,0,.821-.156l.32-.458,1.02.714a.6.6,0,0,0,.834-.147L46.436,63.3a.6.6,0,0,0-.147-.834l-1.019-.714.32-.458a.6.6,0,0,0-.135-.825l-2.587-1.916,2.7-3.855Zm4.5-4.29-2.146,3.066-.529-.37,2.146-3.066Zm-1.167-1.548h0l-2.833,4.047h0s0,0,0,0l-.329.469-9.989-6.605,3.858-5.51,9.623,7.128ZM37.19,48.24l-6.223-3.8,4.912-7.014,5.7,4.547Zm-8.427-5.278a.345.345,0,0,1,.056-.271L33.5,36a.344.344,0,0,1,.237-.145.3.3,0,0,1,.05,0,.338.338,0,0,1,.217.077l.935.746-5,7.137-1.021-.623A.35.35,0,0,1,28.764,42.962Zm.782,16.2-6.223-3.8,4.912-7.014,5.7,4.547Zm-8.426-5.277a.345.345,0,0,1,.056-.272l4.683-6.688a.344.344,0,0,1,.237-.145.3.3,0,0,1,.05,0,.338.338,0,0,1,.217.077l.934.746-5,7.137-1.02-.623A.343.343,0,0,1,21.119,53.881ZM45.111,63.1l-2.146,3.066-.529-.371,2.146-3.066ZM40.781,66.07l-9.989-6.6,3.858-5.51,9.623,7.128Zm1.124-8.232L40.2,56.572l2.6-3.71,1.775,1.173Z" transform="translate(-3.855 -9.92)" fill="#fff"/>
    <path id="Path_345" data-name="Path 345" d="M11.034,34.429l2.841,2.214a1.881,1.881,0,0,0,1.161.4,1.973,1.973,0,0,0,.229-.014,1.868,1.868,0,0,0,1.257-.709L26.755,23.2a4.718,4.718,0,0,0,4.369-1.762l1.18-1.515.005,0a.6.6,0,0,0,.368.126.609.609,0,0,0,.074,0,.6.6,0,0,0,.4-.226l1.189-1.525a.6.6,0,0,0-.1-.841l-9.5-7.4a.6.6,0,0,0-.84.1l-1.189,1.525a.6.6,0,0,0,.1.841l.006,0-1.182,1.515a4.651,4.651,0,0,0-.665,4.567L10.7,31.782A1.888,1.888,0,0,0,11.034,34.429ZM24.475,11.362l8.552,6.667-.453.581-8.552-6.668Zm6.884,7.82-.584.749-7.6-5.922.584-.749Zm-8.906-4.219,7.574,5.9A3.544,3.544,0,0,1,26.8,21.994l-4.638-3.615A3.562,3.562,0,0,1,22.454,14.963Zm-.714,4.609,3.932,3.065L17.287,33.392l-3.932-3.066ZM11.645,32.519l.973-1.248,3.932,3.066-.973,1.248a.678.678,0,0,1-.456.257.691.691,0,0,1-.511-.143L11.77,33.485A.69.69,0,0,1,11.645,32.519Z" fill="#fff"/>
    <path id="Path_346" data-name="Path 346" d="M18.993,40.789a1.51,1.51,0,0,0,1.5,1.325,1.525,1.525,0,0,0,.188-.012,1.5,1.5,0,0,0,1.006-.57l1.655-2.123a1.51,1.51,0,0,0-2.381-1.857L19.3,39.676A1.5,1.5,0,0,0,18.993,40.789Zm1.253-.377L21.9,38.289a.31.31,0,0,1,.208-.117.274.274,0,0,1,.038,0,.312.312,0,0,1,.246.5L20.737,40.8a.306.306,0,0,1-.207.117.316.316,0,0,1-.231-.063.312.312,0,0,1-.053-.438Z" transform="translate(-3.48 -10.849)" fill="#fff"/>
    <path id="Path_347" data-name="Path 347" d="M72.222,21.347l-5.407,2.777a.6.6,0,0,0-.259.259L63.779,29.79a.6.6,0,0,0,.807.807l5.408-2.777a.6.6,0,0,0,.259-.259l2.777-5.408a.6.6,0,0,0-.807-.807Zm-2.948,5.495L65.7,28.679,67.533,25.1l3.578-1.838Z" transform="translate(-21.422 -4.555)" fill="#fff"/>
  </g>
</svg>
