<svg xmlns="http://www.w3.org/2000/svg" width="96" height="96" viewBox="0 0 96 96">
  <g id="_100_Guarantee" data-name="100% Guarantee" transform="translate(23 24.002)">
    <circle id="bg" cx="48" cy="48" r="48" transform="translate(-23 -24.002)" fill="#fd856d"/>
    <path id="Path_354" data-name="Path 354" d="M37.333,36.629v-8.8a.768.768,0,0,0-.455-.7l-6.9-3.067a.766.766,0,0,0-.623,0l-6.9,3.067a.768.768,0,0,0-.455.7v8.8c0,1.745,4.588,4.313,7.322,5.688a.766.766,0,0,0,.344.082.775.775,0,0,0,.344-.081C32.745,40.942,37.333,38.374,37.333,36.629Zm-13.8,0v-8.3l6.133-2.726L35.8,28.331V36.6c-.21.675-2.968,2.544-6.133,4.17C26.48,39.136,23.709,37.255,23.533,36.629Z" transform="translate(-4.667 -5.134)" fill="#fff"/>
    <path id="Path_355" data-name="Path 355" d="M29.8,36.981l-2.511-1.587-.819,1.3,3.067,1.937a.755.755,0,0,0,.409.119.768.768,0,0,0,.577-.261l5.366-6.133-1.154-1.01Z" transform="translate(-5.71 -6.847)" fill="#fff"/>
    <path id="Path_356" data-name="Path 356" d="M47.231,2H2.767A.767.767,0,0,0,2,2.767V41.1a.767.767,0,0,0,.767.767h9.826L11.276,44.6a.766.766,0,0,0,.813,1.089L16.38,45l2.022,2.7a.767.767,0,0,0,.613.307.7.7,0,0,0,.1-.006.765.765,0,0,0,.612-.47l2.733-6.677a12.891,12.891,0,0,0,5.083,0l2.733,6.677a.766.766,0,0,0,.612.47.7.7,0,0,0,.1.006.766.766,0,0,0,.613-.307L33.618,45l4.292.693a.766.766,0,0,0,.813-1.089l-1.317-2.734h9.826A.767.767,0,0,0,48,41.1V2.767A.767.767,0,0,0,47.231,2ZM18.818,45.69,17.329,43.7a.766.766,0,0,0-.613-.307.727.727,0,0,0-.122.01l-3.3.533,2.988-6.2c.037.033.077.061.115.093q.389.343.8.653c.077.057.152.116.229.172.3.218.617.419.939.611.054.031.105.066.159.1a12.941,12.941,0,0,0,2.433,1.087ZM22.17,39.2a11.471,11.471,0,0,1-2.181-.8c-.052-.025-.106-.05-.158-.076q-.3-.152-.594-.323c-.075-.044-.149-.09-.223-.136a11.455,11.455,0,0,1-1.652-1.227c-.085-.076-.17-.151-.252-.229-.146-.138-.288-.278-.427-.424-.057-.059-.11-.121-.166-.182-.195-.213-.383-.432-.56-.657-.051-.066-.1-.134-.15-.2-.166-.221-.326-.445-.474-.675-.054-.084-.105-.172-.157-.258-.133-.219-.264-.442-.382-.669-.055-.107-.1-.216-.156-.324-.1-.215-.205-.431-.3-.652-.052-.129-.1-.262-.144-.393-.076-.208-.152-.416-.215-.628-.047-.157-.083-.318-.123-.478-.049-.193-.1-.386-.14-.582s-.066-.412-.1-.62c-.022-.158-.052-.315-.067-.475-.036-.372-.057-.747-.057-1.128a11.5,11.5,0,0,1,23,0c0,.38-.021.756-.057,1.127-.016.159-.045.316-.067.475-.029.208-.054.416-.1.62s-.091.389-.14.582c-.04.159-.077.32-.123.478-.064.212-.14.42-.215.628-.048.131-.092.264-.144.393-.09.221-.192.437-.3.652-.052.108-.1.218-.156.324-.118.227-.248.449-.382.669-.052.086-.1.174-.157.258-.149.23-.308.455-.474.675-.051.067-.1.135-.15.2-.177.225-.366.443-.56.657-.055.061-.109.123-.166.182q-.208.218-.427.424c-.083.078-.168.154-.252.229a11.456,11.456,0,0,1-1.652,1.227c-.074.045-.148.092-.223.136-.195.113-.393.221-.594.323-.052.026-.105.051-.158.076a11.263,11.263,0,0,1-7.839.8ZM33.4,43.408a.768.768,0,0,0-.735.3L31.18,45.69l-2.145-5.239a12.941,12.941,0,0,0,2.433-1.087c.054-.031.105-.065.159-.1.322-.191.636-.393.939-.611.077-.056.153-.114.229-.172q.415-.312.8-.653c.037-.033.078-.06.115-.093l2.988,6.2Zm13.06-3.076h-9.8l-1.811-3.758c.014-.015.025-.032.038-.048.184-.215.356-.439.526-.665.074-.1.151-.2.223-.3.147-.209.284-.422.419-.639.081-.13.163-.26.238-.393.117-.2.225-.409.331-.619.079-.156.155-.313.228-.472.09-.2.176-.4.257-.6.071-.179.136-.361.2-.544s.132-.388.189-.586.111-.416.161-.625c.044-.183.09-.365.126-.551.048-.249.082-.5.116-.754.02-.154.048-.305.062-.461.038-.414.062-.831.062-1.25a13.033,13.033,0,0,0-26.066,0c0,.419.024.836.064,1.25.015.156.042.307.062.461.034.252.067.5.116.754.036.186.082.368.126.551.05.209.1.419.161.625s.123.392.189.586.128.364.2.544q.121.306.257.6.109.238.228.472c.106.209.215.416.331.619.076.133.157.262.238.393.135.217.272.432.419.639.071.1.148.2.223.3.169.226.342.45.526.665.014.015.025.033.038.048l-1.812,3.759h-9.8V3.533H46.465Z" fill="#fff"/>
    <rect id="Rectangle_154" data-name="Rectangle 154" width="13.799" height="1.533" transform="translate(18.099 11.2)" fill="#fff"/>
    <rect id="Rectangle_155" data-name="Rectangle 155" width="29.132" height="1.533" transform="translate(10.433 7.366)" fill="#fff"/>
  </g>
</svg>
