<svg xmlns="http://www.w3.org/2000/svg" width="64.031" height="64.031" viewBox="0 0 64.031 64.031">
  <g id="_9" data-name="9" transform="translate(11 9)">
    <rect id="rect4081" width="43" height="43" fill="none"/>
    <path id="path4083" d="M23.466,9a17.583,17.583,0,1,1-4.7.672" transform="translate(-1.966 -2.953)" fill="none" stroke="#666" stroke-linecap="round" stroke-linejoin="round" stroke-width="1"/>
    <path id="path4085" d="M23.73,3H34.843" transform="translate(-7.786 -0.984)" fill="none" stroke="#666" stroke-linecap="round" stroke-linejoin="round" stroke-width="1"/>
    <path id="path4087" d="M32,7.031V3" transform="translate(-10.5 -0.984)" fill="none" stroke="#666" stroke-linecap="round" stroke-linejoin="round" stroke-width="1"/>
    <path id="path4089" d="M32,55.688V53" transform="translate(-10.5 -17.391)" fill="none" stroke="#ff5a39" stroke-linecap="round" stroke-linejoin="round" stroke-width="1"/>
    <path id="path4091" d="M10,35h2.688" transform="translate(-3.281 -11.484)" fill="none" stroke="#ff5a39" stroke-linecap="round" stroke-linejoin="round" stroke-width="1"/>
    <path id="path4093" d="M16.44,19.44l1.9,1.9" transform="translate(-5.394 -6.379)" fill="none" stroke="#ff5a39" stroke-linecap="round" stroke-linejoin="round" stroke-width="1"/>
    <path id="path4095" d="M22.7,9.344,18,8" transform="translate(-5.906 -2.625)" fill="none" stroke="#666" stroke-linecap="round" stroke-linejoin="round" stroke-width="1"/>
    <path id="path4097" d="M23.838,10,21.46,14.273" transform="translate(-7.042 -3.281)" fill="none" stroke="#666" stroke-linecap="round" stroke-linejoin="round" stroke-width="1"/>
    <path id="path4099" d="M32,15V28.525L34.546,30.9,41.89,37.75A13.532,13.532,0,0,0,32,15Z" transform="translate(-10.5 -4.922)" fill="none" stroke="#ff5a39" stroke-linecap="round" stroke-linejoin="round" stroke-width="1"/>
    <path id="path4101" d="M16.45,49.631l1.9-1.9" transform="translate(-5.398 -15.661)" fill="none" stroke="#ff5a39" stroke-linecap="round" stroke-linejoin="round" stroke-width="1"/>
    <path id="path4103" d="M47.9,13.09,49.983,11l3.359,3.359-2.123,2.13" transform="translate(-15.717 -3.609)" fill="none" stroke="#666" stroke-linecap="round" stroke-linejoin="round" stroke-width="1"/>
    <g id="Ellipse_2" data-name="Ellipse 2" transform="translate(-11 -9)" fill="none" stroke="#f96547" stroke-width="1">
      <circle cx="32.016" cy="32.016" r="32.016" stroke="none"/>
      <circle cx="32.016" cy="32.016" r="31.516" fill="none"/>
    </g>
  </g>
</svg>
