<svg xmlns="http://www.w3.org/2000/svg" width="64.031" height="64.031" viewBox="0 0 64.031 64.031">
  <g id="_5" data-name="5" transform="translate(12 12)">
    <rect id="rect4208" width="40" height="40" fill="none"/>
    <path id="path4210" d="M23,3A101.632,101.632,0,0,1,8,11.05c.312,12.644,6.387,23.406,15,28.2,8.612-4.794,14.687-15.556,15-28.2A101.633,101.633,0,0,1,23,3Z" transform="translate(-3 -1.125)" fill="none" stroke="#666" stroke-linecap="round" stroke-linejoin="round" stroke-width="1"/>
    <path id="path4212" d="M22,30a4.844,4.844,0,0,1,5,4.687v.938H17v-.937A4.844,4.844,0,0,1,22,30Z" transform="translate(-6.375 -11.248)" fill="none" stroke="#ff5a39" stroke-linecap="round" stroke-linejoin="round" stroke-width="1"/>
    <path id="path4214" d="M26.25,20.125A3.125,3.125,0,1,1,23.125,17,3.125,3.125,0,0,1,26.25,20.125Z" transform="translate(-7.5 -6.375)" fill="none" stroke="#ff5a39" stroke-linecap="round" stroke-linejoin="round" stroke-width="1"/>
    <path id="path4216" d="M36.375,30A5.038,5.038,0,0,0,32,32.4a4.444,4.444,0,0,1,.625,2.281v.937h8.75v-.937a4.844,4.844,0,0,0-5-4.687Z" transform="translate(-12 -11.248)" fill="none" stroke="#ff5a39" stroke-linecap="round" stroke-linejoin="round" stroke-width="1"/>
    <path id="path4218" d="M34,20.125A3.125,3.125,0,1,0,37.125,17,3.125,3.125,0,0,0,34,20.125Z" transform="translate(-12.75 -6.375)" fill="none" stroke="#ff5a39" stroke-linecap="round" stroke-linejoin="round" stroke-width="1"/>
    <g id="Ellipse_2" data-name="Ellipse 2" transform="translate(-12.001 -12)" fill="none" stroke="#f96547" stroke-width="1">
      <circle cx="32.016" cy="32.016" r="32.016" stroke="none"/>
      <circle cx="32.016" cy="32.016" r="31.516" fill="none"/>
    </g>
  </g>
</svg>
