<svg xmlns="http://www.w3.org/2000/svg" width="64.031" height="64.031" viewBox="0 0 64.031 64.031">
  <g id="_10" data-name="10" transform="translate(10 10)">
    <rect id="rect4057" width="44" height="44" fill="none"/>
    <path id="path4184" d="M5.07,29.991V40.868l13.063-4.812,12.375,4.813L43.57,36.055V9.93L38.757,11.7M28.4,13.911,18.132,9.93,5.07,14.743v5.885" transform="translate(-1.584 -3.103)" fill="none" stroke="#666" stroke-linecap="round" stroke-linejoin="round" stroke-width="1"/>
    <path id="path4186" d="M24.07,10.93V36.368M36.445,41.18v-19.2" transform="translate(-7.522 -3.416)" fill="none" stroke="#666" stroke-linecap="round" stroke-linejoin="round" stroke-width="1"/>
    <path id="path4188" d="M8.5,22.93A5.576,5.576,0,0,0,3,28.554,13.83,13.83,0,0,0,8.5,38.743,13.83,13.83,0,0,0,14,28.554,5.576,5.576,0,0,0,8.5,22.93Z" transform="translate(-0.937 -7.166)" fill="none" stroke="#ff5a39" stroke-linecap="round" stroke-linejoin="round" stroke-width="1"/>
    <path id="path4190" d="M12.195,29.993a2.063,2.063,0,1,1-2.062-2.062A2.063,2.063,0,0,1,12.195,29.993Z" transform="translate(-2.522 -8.728)" fill="none" stroke="#ff5a39" stroke-linecap="round" stroke-linejoin="round" stroke-width="1"/>
    <path id="path4192" d="M44.57,8.93a5.576,5.576,0,0,0-5.5,5.624,13.83,13.83,0,0,0,5.5,10.189,13.83,13.83,0,0,0,5.5-10.189A5.576,5.576,0,0,0,44.57,8.93Z" transform="translate(-12.209 -2.791)" fill="none" stroke="#ff5a39" stroke-linecap="round" stroke-linejoin="round" stroke-width="1"/>
    <path id="path4194" d="M48.265,15.993A2.063,2.063,0,1,1,46.2,13.93,2.062,2.062,0,0,1,48.265,15.993Z" transform="translate(-13.794 -4.353)" fill="none" stroke="#ff5a39" stroke-linecap="round" stroke-linejoin="round" stroke-width="1"/>
    <g id="Ellipse_2" data-name="Ellipse 2" transform="translate(-10 -10)" fill="none" stroke="#f96547" stroke-width="1">
      <circle cx="32.016" cy="32.016" r="32.016" stroke="none"/>
      <circle cx="32.016" cy="32.016" r="31.516" fill="none"/>
    </g>
  </g>
</svg>
