<svg xmlns="http://www.w3.org/2000/svg" width="64.031" height="64.031" viewBox="0 0 64.031 64.031">
  <g id="_2-Fee" data-name="2-Fee" transform="translate(15.031 15)">
    <path id="Path_138" data-name="Path 138" d="M.523,50.411H8.365a.522.522,0,0,0,.523-.523H9.81L15.4,52.683a1.7,1.7,0,0,0,1.625-.052L28.43,45.977a1.709,1.709,0,0,0-1.154-3.159l-10.368,1.8-2.945-2.945a.521.521,0,0,0-.37-.153H8.888A.522.522,0,0,0,8.365,41H.523A.522.522,0,0,0,0,41.523v8.365A.522.522,0,0,0,.523,50.411Zm12.854-7.842L17.5,46.688a.956.956,0,0,1-1.352,1.352l-2.7-2.7-.739.739,2.7,2.7a2,2,0,0,0,2.831-2.831l-.423-.423,9.643-1.677a.663.663,0,0,1,.449,1.226L16.5,51.728a.661.661,0,0,1-.631.02l-5.7-2.85a.521.521,0,0,0-.234-.055H8.888V42.568Zm-5.534,6.8H6.8V42.046H7.842Zm-6.8-7.319H5.751v7.319H1.046Z" transform="translate(0 -19.565)" fill="#666"/>
    <path id="Path_139" data-name="Path 139" d="M26.979,21.958A10.979,10.979,0,1,0,16,10.979,10.992,10.992,0,0,0,26.979,21.958Zm0-20.912a9.933,9.933,0,1,1-9.933,9.933A9.944,9.944,0,0,1,26.979,1.046Z" transform="translate(-7.635)" fill="#666"/>
    <path id="Path_140" data-name="Path 140" d="M28.888,21.776A8.888,8.888,0,1,0,20,12.888,8.9,8.9,0,0,0,28.888,21.776Zm0-16.73a7.842,7.842,0,1,1-7.842,7.842A7.851,7.851,0,0,1,28.888,5.046Z" transform="translate(-9.544 -1.909)" fill="#666"/>
    <path id="Path_141" data-name="Path 141" d="M35.137,18.319H34.091a1.047,1.047,0,0,1-1.046-1.046H32a2.093,2.093,0,0,0,2.091,2.091v1.046h1.046V19.365a2.091,2.091,0,0,0,0-4.182H34.091a1.046,1.046,0,0,1,0-2.091h1.046a1.047,1.047,0,0,1,1.046,1.046h1.046a2.093,2.093,0,0,0-2.091-2.091V11H34.091v1.046a2.091,2.091,0,0,0,0,4.182h1.046a1.046,1.046,0,0,1,0,2.091Z" transform="translate(-15.27 -5.249)" fill="#ff5a39"/>
    <path id="Path_142" data-name="Path 142" d="M25.568,21.137A1.568,1.568,0,1,0,24,19.568,1.57,1.57,0,0,0,25.568,21.137Zm0-2.091a.523.523,0,1,1-.523.523A.523.523,0,0,1,25.568,19.046Z" transform="translate(-11.453 -8.589)" fill="#666"/>
    <path id="Path_143" data-name="Path 143" d="M45.568,21.137A1.568,1.568,0,1,0,44,19.568,1.57,1.57,0,0,0,45.568,21.137Zm0-2.091a.523.523,0,1,1-.523.523A.523.523,0,0,1,45.568,19.046Z" transform="translate(-20.996 -8.589)" fill="#666"/>
    <rect id="Rectangle_92" data-name="Rectangle 92" width="1.046" height="1.046" transform="translate(18.821 16.207)" fill="#ff5a39"/>
    <rect id="Rectangle_93" data-name="Rectangle 93" width="1.046" height="1.046" transform="translate(20.912 16.207)" fill="#ff5a39"/>
    <rect id="Rectangle_94" data-name="Rectangle 94" width="1.046" height="1.046" transform="translate(16.73 16.207)" fill="#ff5a39"/>
    <rect id="Rectangle_95" data-name="Rectangle 95" width="1.046" height="1.046" transform="translate(6.274 10.456)" fill="#666"/>
    <rect id="Rectangle_96" data-name="Rectangle 96" width="1.046" height="1.046" transform="translate(30.323 18.821)" fill="#666"/>
    <rect id="Rectangle_97" data-name="Rectangle 97" width="1.046" height="1.046" transform="translate(28.232 18.821)" fill="#666"/>
    <rect id="Rectangle_98" data-name="Rectangle 98" width="1.046" height="1.046" transform="translate(4.182 10.456)" fill="#666"/>
    <rect id="Rectangle_99" data-name="Rectangle 99" width="1.046" height="1.046" transform="translate(2.091 10.456)" fill="#666"/>
    <rect id="Rectangle_100" data-name="Rectangle 100" width="1.046" height="1.046" transform="translate(26.141 31.369)" fill="#666"/>
    <rect id="Rectangle_101" data-name="Rectangle 101" width="1.046" height="1.046" transform="translate(28.232 31.369)" fill="#666"/>
    <rect id="Rectangle_102" data-name="Rectangle 102" width="1.046" height="1.046" transform="translate(30.323 31.369)" fill="#666"/>
    <rect id="Rectangle_103" data-name="Rectangle 103" width="1.046" height="1.046" transform="translate(32.414 31.369)" fill="#666"/>
    <rect id="Rectangle_104" data-name="Rectangle 104" width="1.046" height="1.046" transform="translate(24.049 31.369)" fill="#666"/>
    <rect id="Rectangle_105" data-name="Rectangle 105" width="1.046" height="1.046" transform="translate(21.958 31.369)" fill="#666"/>
    <rect id="Rectangle_106" data-name="Rectangle 106" width="1.046" height="1.046" transform="translate(2.091 12.547)" fill="#666"/>
    <rect id="Rectangle_107" data-name="Rectangle 107" width="1.046" height="1.046" transform="translate(32.414 29.277)" fill="#666"/>
    <rect id="Rectangle_108" data-name="Rectangle 108" width="1.046" height="1.046" transform="translate(32.414 27.186)" fill="#666"/>
    <rect id="Rectangle_109" data-name="Rectangle 109" width="1.046" height="1.046" transform="translate(32.414 25.095)" fill="#666"/>
    <rect id="Rectangle_110" data-name="Rectangle 110" width="1.046" height="1.046" transform="translate(32.414 23.004)" fill="#666"/>
    <rect id="Rectangle_111" data-name="Rectangle 111" width="1.046" height="1.046" transform="translate(32.414 20.912)" fill="#666"/>
    <rect id="Rectangle_112" data-name="Rectangle 112" width="1.046" height="1.046" transform="translate(32.414 18.821)" fill="#666"/>
    <rect id="Rectangle_113" data-name="Rectangle 113" width="1.046" height="1.046" transform="translate(2.091 14.639)" fill="#666"/>
    <rect id="Rectangle_114" data-name="Rectangle 114" width="1.046" height="1.046" transform="translate(2.091 16.73)" fill="#666"/>
    <rect id="Rectangle_115" data-name="Rectangle 115" width="1.046" height="1.046" transform="translate(2.091 18.821)" fill="#666"/>
    <g id="Ellipse_2" data-name="Ellipse 2" transform="translate(-15.031 -15)" fill="none" stroke="#e8e8e8" stroke-width="1">
      <circle cx="32.016" cy="32.016" r="32.016" stroke="none"/>
      <circle cx="32.016" cy="32.016" r="31.516" fill="none"/>
    </g>
  </g>
</svg>
