<svg xmlns="http://www.w3.org/2000/svg" width="27.273" height="26.654" viewBox="0 0 27.273 26.654">
    <g id="Bus_station" transform="translate(-6 -7)">
        <g id="Group_118" data-name="Group 118" transform="translate(6 7)">
            <path id="Path_274" d="M10.029 959.362a1.553 1.553 0 0 0-1.55 1.55v3.719H6.93a.935.935 0 0 0-.93.93v4.339a.935.935 0 0 0 .93.93h1.55v11.157a.31.31 0 0 0 .31.31h.93v2.169a1.553 1.553 0 0 0 1.55 1.55h1.24a1.553 1.553 0 0 0 1.55-1.55V982.3h11.155v2.169a1.553 1.553 0 0 0 1.55 1.55H28a1.553 1.553 0 0 0 1.55-1.55V982.3h.93a.31.31 0 0 0 .31-.31v-11.161h1.55a.935.935 0 0 0 .93-.93v-4.339a.935.935 0 0 0-.93-.93h-1.55v-3.719a1.553 1.553 0 0 0-1.55-1.55zm0 .62h19.215a.921.921 0 0 1 .93.93v1.55H9.1v-1.55a.921.921 0 0 1 .929-.93zm-.93 3.1h10.228v9.3H9.1zm10.847 0h10.228v9.3H19.947zM6.93 965.251h1.55v4.959H6.93a.3.3 0 0 1-.31-.31v-4.339a.3.3 0 0 1 .31-.31zm23.864 0h1.55a.3.3 0 0 1 .31.31v4.339a.3.3 0 0 1-.31.31h-1.55zM9.1 973h21.074v8.678H9.1zm3.719 2.479a1.86 1.86 0 1 0 1.86 1.86 1.864 1.864 0 0 0-1.861-1.861zm13.637 0a1.86 1.86 0 1 0 1.86 1.86 1.864 1.864 0 0 0-1.861-1.861zm-13.637.62a1.24 1.24 0 1 1-1.24 1.24 1.235 1.235 0 0 1 1.239-1.239zm13.637 0a1.24 1.24 0 1 1-1.24 1.24 1.235 1.235 0 0 1 1.239-1.239zm-9.918.93a.31.31 0 0 0-.31.31v2.479a.31.31 0 0 0 .31.31h6.2a.31.31 0 0 0 .31-.31v-2.479a.31.31 0 0 0-.31-.31zm.31.62h5.579v1.86h-5.58zm-6.509 4.651h3.1v2.169a.921.921 0 0 1-.93.93h-1.24a.921.921 0 0 1-.93-.93zm15.5 0h3.1v2.169a.921.921 0 0 1-.93.93h-1.24a.921.921 0 0 1-.93-.93z" class="cls-1" data-name="Path 274" transform="translate(-6 -959.362)"/>
        </g>
    </g>
</svg>
