<svg xmlns="http://www.w3.org/2000/svg" width="29.681" height="31.385" viewBox="0 0 29.681 31.385">
    <g transform="translate(-11.9 -7.224)">
        <path d="M27.094 22.22a5.96 5.96 0 1 0-5.516 8.219 6.128 6.128 0 0 0 2.258-.444 6 6 0 0 0 3.258-7.775zm-3.554 7.071a5.221 5.221 0 0 1-3.961-9.662 5.477 5.477 0 0 1 1.962-.407 5.3 5.3 0 0 1 4.85 3.221 5.232 5.232 0 0 1-2.851 6.848z" class="cls-1" data-name="Path 254" transform="translate(-2.348 -7.119)"/>
        <path d="M20.772 37.052l-.963.407a.34.34 0 0 0-.185.481.356.356 0 0 0 .333.222.223.223 0 0 0 .148-.037l.963-.407a.34.34 0 0 0 .185-.481.38.38 0 0 0-.481-.185z" class="cls-1" data-name="Path 255" transform="translate(-4.837 -18.767)"/>
        <path d="M40.372 28.96l-.963.407a.34.34 0 0 0-.185.481.356.356 0 0 0 .333.222.223.223 0 0 0 .148-.037l.963-.407a.34.34 0 0 0 .185-.481.4.4 0 0 0-.481-.185z" class="cls-1" data-name="Path 256" transform="translate(-17.181 -13.674)"/>
        <path d="M26.132 23.968a.356.356 0 0 0 .333.222.223.223 0 0 0 .148-.037.34.34 0 0 0 .185-.481l-.407-.963a.365.365 0 0 0-.666.3z" class="cls-1" data-name="Path 257" transform="translate(-8.679 -9.608)"/>
        <path d="M34.591 42.31a.365.365 0 1 0-.666.3l.407.963a.356.356 0 0 0 .333.222.223.223 0 0 0 .148-.037.34.34 0 0 0 .187-.486z" class="cls-1" data-name="Path 258" transform="translate(-13.843 -21.952)"/>
        <path d="M28.495 31.485l-3.443-1.555c0-.037-.037-.074-.037-.148a.8.8 0 0 0-.37-.407.722.722 0 0 0-.555 0 .129.129 0 0 0-.074.037l-2.369-.963.481-.185a.375.375 0 0 0-.259-.7l-1.259.481a.526.526 0 0 0-.222.074.355.355 0 0 0-.111.37l.37 1.333a.351.351 0 0 0 .444.259.381.381 0 0 0 .259-.444l-.148-.592 2.406 1.074c0 .074.037.148.037.222a.8.8 0 0 0 .37.407.686.686 0 0 0 .259.074.63.63 0 0 0 .259-.037c.074-.037.111-.074.185-.111l3.406 1.518a.223.223 0 0 0 .148.037.356.356 0 0 0 .334-.229.328.328 0 0 0-.111-.515z" class="cls-1" data-name="Path 259" transform="translate(-5.267 -12.793)"/>
        <path d="M41.331 12.621L27.967 7.253a.356.356 0 0 0-.481.222l-2.3 5.7a6.965 6.965 0 0 0-3.184-2.554 7.312 7.312 0 0 0-5.59 0 7.226 7.226 0 0 0-3.961 3.924 7.312 7.312 0 0 0 6.779 10.107 5.855 5.855 0 0 0 1.407-.148l-3.295 8.219a.356.356 0 0 0 .222.481l13.364 5.368c.037 0 .074.037.148.037a.223.223 0 0 0 .148-.037.446.446 0 0 0 .185-.185L41.553 13.1a.406.406 0 0 0 0-.3.982.982 0 0 0-.222-.179zM13.159 19.84a6.59 6.59 0 0 1 0-5.035 6.441 6.441 0 0 1 3.554-3.554 6.565 6.565 0 0 1 2.48-.481 6.659 6.659 0 0 1 2.517.518 6.441 6.441 0 0 1 3.554 3.554 6.548 6.548 0 0 1-12.106 5zm17.7 17.918l-12.666-5.109 1.592-3.961c.037.037.074.037.074.074.074.037.111.074.185.074a.33.33 0 0 0 .3-.185.364.364 0 0 0-.111-.518.37.37 0 0 1-.185-.148l1.481-3.7v-.037c.148-.037.3-.111.444-.148a7.226 7.226 0 0 0 3.961-3.924.129.129 0 0 1 .037-.074c.926.407 3.924 1.962 3.85 5.479a10.267 10.267 0 0 0 2.962 7.33zm6.071-15.1a2.36 2.36 0 0 0-.259-.074.378.378 0 1 0-.148.74.136.136 0 0 1 .111.037l-3.521 8.769a9.712 9.712 0 0 1-2.48-5.257l.7-.7a.366.366 0 1 0-.518-.518l-.259.259v-.3c.111-4-3.332-5.738-4.331-6.182a7.411 7.411 0 0 0-.259-4.813 2.952 2.952 0 0 0-.3-.592l2.369-5.886L40.7 13.213z" class="cls-1" data-name="Path 260"/>
        <path d="M67.5 28.939a.759.759 0 0 0 .74-.74.69.69 0 0 0-.74-.7.712.712 0 0 0-.7.74.7.7 0 0 0 .7.7zm0-.74v.037s-.037 0 0-.037z" class="cls-1" data-name="Path 261" transform="translate(-34.576 -12.764)"/>
        <path d="M61.938 29.045c.037 0 .074.037.148.037a.277.277 0 0 0 .185-.037c.37-.222 3.776-2.258 4.368-3.665a2.817 2.817 0 0 0-.037-2.258 3.111 3.111 0 0 0-1.629-1.592 2.817 2.817 0 0 0-2.258.037 2.87 2.87 0 0 0-1.592 1.633c-.555 1.333.481 5.146.592 5.59a.391.391 0 0 0 .223.255zm-.148-5.627a2.184 2.184 0 0 1 2.887-1.218 2.18 2.18 0 0 1 1.223 2.884c-.333.888-2.443 2.332-3.628 3.073-.297-1.37-.815-3.888-.482-4.739z" class="cls-1" data-name="Path 262" transform="translate(-30.898 -8.872)"/>
        <path d="M72.333 48.867a3.679 3.679 0 0 0-1.074.444.375.375 0 0 0-.148.518.389.389 0 0 0 .333.185.334.334 0 0 0 .185-.037 3.711 3.711 0 0 1 .926-.37.351.351 0 0 0 .259-.444c-.114-.222-.296-.37-.481-.296z" class="cls-1" data-name="Path 263" transform="translate(-37.258 -26.214)"/>
        <path d="M37.9 65.722a7.418 7.418 0 0 1-.963-.37.365.365 0 1 0-.3.666c.333.148.7.3 1.037.407h.111a.446.446 0 0 0 .37-.259.4.4 0 0 0-.255-.444z" class="cls-1" data-name="Path 264" transform="translate(-15.445 -36.59)"/>
        <path d="M44.3 67.137h-.37a3.807 3.807 0 0 1-.63-.037.373.373 0 0 0-.407.333.368.368 0 0 0 .333.407 4.481 4.481 0 0 0 .7.037h.444a.334.334 0 0 0 .333-.407.377.377 0 0 0-.403-.333z" class="cls-1" data-name="Path 265" transform="translate(-19.514 -37.709)"/>
        <path d="M66.554 52.14c-.259.222-.555.444-.851.7a.354.354 0 1 0 .481.518c.3-.259.555-.481.814-.666a.4.4 0 0 0 .074-.518.36.36 0 0 0-.518-.034z" class="cls-1" data-name="Path 266" transform="translate(-33.811 -28.228)"/>
        <path d="M56.479 61.418c-.3.259-.555.481-.814.666a.4.4 0 0 0-.074.518.337.337 0 0 0 .3.148.526.526 0 0 0 .222-.074c.259-.222.555-.444.851-.7a.36.36 0 0 0 .036-.521.331.331 0 0 0-.521-.037z" class="cls-1" data-name="Path 267" transform="translate(-27.475 -34.063)"/>
        <path d="M50.808 65.352a2.184 2.184 0 0 1-.3.148 3.2 3.2 0 0 1-.629.259.384.384 0 0 0 .148.74h.111c.222-.074.481-.185.7-.259a3.442 3.442 0 0 1 .37-.185.375.375 0 0 0 .148-.518.49.49 0 0 0-.548-.185z" class="cls-1" data-name="Path 268" transform="translate(-23.767 -36.59)"/>
    </g>
</svg>
