<svg xmlns="http://www.w3.org/2000/svg" width="25.225" height="28.381" viewBox="0 0 25.225 28.381">
    <g transform="translate(-49 19.918)">
        <g data-name="Layer 2" transform="translate(49 -19.917)">
            <g data-name="Layer 1">
                <path d="M47.275 50.459l-.055-.038v1a.355.355 0 0 0 .148.03.422.422 0 0 0 .342-.173l.776-1.059V48.81z" class="cls-1" data-name="Path 275" transform="translate(-27.301 -28.255)"/>
                <path d="M21.185 16.618V5.194a.51.51 0 0 0-.025-.16.278.278 0 0 0-.025-.084.578.578 0 0 0-.127-.19L16.422.25a.578.578 0 0 0-.1-.08.675.675 0 0 0-.194-.084h-.025a.65.65 0 0 0-.127 0H.633A.633.633 0 0 0 0 .681V27.83a.633.633 0 0 0 .633.633h19.919a.633.633 0 0 0 .633-.633v-1.966a4.666 4.666 0 0 0 0-9.247zM16.6 2.191l2.4 2.37h-2.4zM19.919 27.2H1.266V1.313H15.33v3.881a.633.633 0 0 0 .633.633h3.957v10.791a4.666 4.666 0 0 0 0 9.247zm1.266-2.181a3.978 3.978 0 0 1-1.266 0 3.826 3.826 0 0 1 0-7.551 3.982 3.982 0 0 1 1.266 0 3.83 3.83 0 0 1 0 7.551z" class="cls-1" data-name="Path 276" transform="translate(0 -.083)"/>
                <path d="M49.927 11.36a.578.578 0 0 0-.127-.19.519.519 0 0 1 .127.19z" class="cls-1" data-name="Path 277" transform="translate(-28.792 -6.493)"/>
                <path d="M20.909 20.634H9.422a.422.422 0 1 1 0-.844h11.487a.422.422 0 1 1 0 .844z" class="cls-1" data-name="Path 278" transform="translate(-5.203 -11.477)"/>
                <path d="M21 28.124H9.972a.422.422 0 1 1 0-.844H21a.422.422 0 0 1 0 .844z" class="cls-1" data-name="Path 279" transform="translate(-5.521 -15.807)"/>
                <path d="M21 34.654H9.972a.422.422 0 1 1 0-.844H21a.422.422 0 1 1 0 .844z" class="cls-1" data-name="Path 280" transform="translate(-5.521 -19.582)"/>
                <path d="M10.183 52.844h-.211a.422.422 0 0 1 0-.844h.211a.422.422 0 0 1 0 .844z" class="cls-1" data-name="Path 281" transform="translate(-5.521 -30.099)"/>
                <path d="M19.7 52h-.375a.422.422 0 0 0 0 .844h.371a.422.422 0 0 0 0-.844zm-2.23 0h-.37a.422.422 0 0 0 0 .844h.371a.422.422 0 0 0 0-.844zm-2.227 0h-.371a.422.422 0 0 0 0 .844h.371a.422.422 0 1 0 0-.844z" class="cls-1" data-name="Path 282" transform="translate(-8.354 -30.099)"/>
                <path d="M30.923 52.844h-.211a.422.422 0 0 1 0-.844h.211a.422.422 0 0 1 0 .844z" class="cls-1" data-name="Path 283" transform="translate(-17.512 -30.099)"/>
                <path d="M14.013 41.614H9.972a.422.422 0 1 1 0-.844h4.041a.422.422 0 1 1 0 .844z" class="cls-1" data-name="Path 284" transform="translate(-5.521 -23.606)"/>
                <path d="M47.232 45.456a.422.422 0 0 0-.591.089l-.936 1.266-1.21 1.649-.055-.038-1.358-.958a.428.428 0 0 0-.485.7l1.746 1.266a.421.421 0 0 0 .1.051.354.354 0 0 0 .148.03.422.422 0 0 0 .342-.173l.776-1.059 1.616-2.223a.422.422 0 0 0-.089-.6zm0 0a.422.422 0 0 0-.591.089l-.936 1.266-1.21 1.649-.055-.038-1.358-.958a.428.428 0 0 0-.485.7l1.746 1.266a.421.421 0 0 0 .1.051.354.354 0 0 0 .148.03.422.422 0 0 0 .342-.173l.776-1.059 1.616-2.223a.422.422 0 0 0-.089-.6zm0 0a.422.422 0 0 0-.591.089l-.936 1.266-1.21 1.649-.055-.038-1.358-.958a.428.428 0 0 0-.485.7l1.746 1.266a.421.421 0 0 0 .1.051.354.354 0 0 0 .148.03.422.422 0 0 0 .342-.173l.776-1.059 1.616-2.223a.422.422 0 0 0-.089-.6zm0 0a.422.422 0 0 0-.591.089l-.936 1.266-1.21 1.649-.055-.038-1.358-.958a.428.428 0 0 0-.485.7l1.746 1.266a.421.421 0 0 0 .1.051.354.354 0 0 0 .148.03.422.422 0 0 0 .342-.173l.776-1.059 1.616-2.223a.422.422 0 0 0-.089-.6z" class="cls-1" data-name="Path 285" transform="translate(-24.52 -26.268)"/>
                <path d="M47.419 46.075l-1.616 2.2-.776 1.046a.422.422 0 0 1-.342.173.354.354 0 0 1-.148-.03.422.422 0 0 1-.1-.051l-1.742-1.263a.422.422 0 0 1 .485-.671l1.354.97.055.038 1.211-1.649.936-1.266a.424.424 0 0 1 .683.5z" class="cls-1" data-name="Path 286" transform="translate(-24.619 -26.283)"/>
            </g>
        </g>
    </g>
</svg>
