<svg xmlns="http://www.w3.org/2000/svg" width="24" height="32" viewBox="0 0 24 32"><g><g><g><g><g><path d="M19.26 15.424l3.165-1.805v7.635l-3.165-1.805zm3.91-3.088l-4.655 2.655v4.891l4.655 2.654z"/></g></g><g><g><path fill="#959595" d="M6.705 6.601A2.83 2.83 0 0 1 3.877 9.43 2.831 2.831 0 0 1 1.047 6.6a2.832 2.832 0 0 1 2.83-2.829 2.832 2.832 0 0 1 2.828 2.83zm.745 0a3.578 3.578 0 0 0-3.573-3.574A3.579 3.579 0 0 0 .303 6.601a3.578 3.578 0 0 0 3.574 3.573A3.577 3.577 0 0 0 7.45 6.6z"/></g></g><g><g><path fill="#959595" d="M16.998 5.087a4.347 4.347 0 0 1-4.341 4.342 4.347 4.347 0 0 1-4.343-4.342A4.347 4.347 0 0 1 12.657.745a4.347 4.347 0 0 1 4.341 4.342zm.745 0A5.093 5.093 0 0 0 12.657 0a5.093 5.093 0 0 0-5.088 5.087 5.093 5.093 0 0 0 5.088 5.087 5.093 5.093 0 0 0 5.086-5.087z"/></g></g><g><g><path fill="#959595" d="M10.706 17.376l-1.781.846v-1.693zm1.736 0L8.18 15.35v4.05z"/></g></g><g><g><path fill="#959595" d="M12.756 17.375a3.137 3.137 0 0 1-3.133 3.133 3.136 3.136 0 0 1-3.133-3.133 3.136 3.136 0 0 1 3.133-3.133 3.137 3.137 0 0 1 3.133 3.133zm.745 0a3.883 3.883 0 0 0-3.878-3.877 3.883 3.883 0 0 0-3.878 3.878 3.882 3.882 0 0 0 3.878 3.878 3.882 3.882 0 0 0 3.878-3.878zM3.5 30.955c-.194.279-.696.385-1.054.214-.171-.083-.292-.214-.33-.36a.415.415 0 0 1 .068-.351l4.902-7.038H2.421A1.68 1.68 0 0 1 .744 21.74v-8.609a1.68 1.68 0 0 1 1.677-1.678h13.392a1.68 1.68 0 0 1 1.677 1.678v8.609a1.68 1.68 0 0 1-1.677 1.678H10.96l4.902 7.037c.077.11.1.232.069.351-.039.147-.16.278-.331.36-.358.172-.86.066-1.054-.213L9.3 23.419h-.551zm12.422.886c.369-.177.635-.484.73-.843a1.155 1.155 0 0 0-.178-.966l-4.086-5.867h3.425a2.425 2.425 0 0 0 2.423-2.423v-8.609a2.425 2.425 0 0 0-2.423-2.423H2.422a2.425 2.425 0 0 0-2.423 2.423v8.609a2.425 2.425 0 0 0 2.423 2.422H5.66L1.573 30.03a1.152 1.152 0 0 0-.178.967c.094.359.36.666.73.843.219.105.466.16.716.16.524 0 1-.232 1.27-.62l4.912-7.053 4.912 7.052c.27.389.746.621 1.27.621.25 0 .498-.055.717-.16z"/></g></g></g></g></g></svg>