<svg width="274" height="232" viewBox="0 0 274 232" fill="none" xmlns="http://www.w3.org/2000/svg">
<rect x="0.5" y="0.5" width="39" height="38.5" stroke="#E4E4E4"/>
<rect x="39.5" y="0.5" width="39" height="38.5" stroke="#E4E4E4"/>
<rect x="78.5" y="0.5" width="39" height="38.5" stroke="#E4E4E4"/>
<rect x="117.5" y="0.5" width="39" height="38.5" stroke="#E4E4E4"/>
<rect x="156.5" y="0.5" width="39" height="38.5" stroke="#E4E4E4"/>
<rect x="195.5" y="0.5" width="39" height="38.5" stroke="#E4E4E4"/>
<rect x="234.5" y="0.5" width="39" height="38.5" stroke="#E4E4E4"/>
<rect x="0.5" y="154.5" width="39" height="38.5" stroke="#E4E4E4"/>
<rect x="39.5" y="154.5" width="39" height="38.5" stroke="#E4E4E4"/>
<rect x="78.5" y="154.5" width="39" height="38.5" stroke="#E4E4E4"/>
<rect x="117.5" y="154.5" width="39" height="38.5" stroke="#E4E4E4"/>
<rect x="156.5" y="154.5" width="39" height="38.5" stroke="#E4E4E4"/>
<rect x="195.5" y="154.5" width="39" height="38.5" stroke="#E4E4E4"/>
<rect x="234.5" y="154.5" width="39" height="38.5" stroke="#E4E4E4"/>
<rect x="0.5" y="39" width="39" height="38.5" stroke="#E4E4E4"/>
<rect x="39.5" y="39" width="39" height="38.5" stroke="#E4E4E4"/>
<rect x="78.5" y="39" width="39" height="38.5" stroke="#E4E4E4"/>
<rect x="117.5" y="39" width="39" height="38.5" stroke="#E4E4E4"/>
<rect x="156.5" y="39" width="39" height="38.5" stroke="#E4E4E4"/>
<rect x="195.5" y="39" width="39" height="38.5" stroke="#E4E4E4"/>
<rect x="234.5" y="39" width="39" height="38.5" stroke="#E4E4E4"/>
<rect x="0.5" y="77.5" width="39" height="38.5" stroke="#E4E4E4"/>
<rect x="39.5" y="77.5" width="39" height="38.5" stroke="#E4E4E4"/>
<rect x="78.5" y="77.5" width="39" height="38.5" stroke="#E4E4E4"/>
<rect x="117.5" y="77.5" width="39" height="38.5" stroke="#E4E4E4"/>
<rect x="156.5" y="77.5" width="39" height="38.5" stroke="#E4E4E4"/>
<rect x="195.5" y="77.5" width="39" height="38.5" stroke="#E4E4E4"/>
<rect x="234.5" y="77.5" width="39" height="38.5" stroke="#E4E4E4"/>
<rect x="0.5" y="116" width="39" height="38.5" stroke="#E4E4E4"/>
<rect x="39.5" y="116" width="39" height="38.5" stroke="#E4E4E4"/>
<rect x="78.5" y="116" width="39" height="38.5" stroke="#E4E4E4"/>
<rect x="117.5" y="116" width="39" height="38.5" stroke="#E4E4E4"/>
<rect x="156.5" y="116" width="39" height="38.5" stroke="#E4E4E4"/>
<rect x="195.5" y="116" width="39" height="38.5" stroke="#E4E4E4"/>
<rect x="234.5" y="116" width="39" height="38.5" stroke="#E4E4E4"/>
<rect x="0.5" y="193" width="39" height="38.5" stroke="#E4E4E4"/>
<rect x="39.5" y="193" width="39" height="38.5" stroke="#E4E4E4"/>
<rect x="78.5" y="193" width="39" height="38.5" stroke="#E4E4E4"/>
<rect x="117.5" y="193" width="39" height="38.5" stroke="#E4E4E4"/>
<rect x="156.5" y="193" width="39" height="38.5" stroke="#E4E4E4"/>
<rect x="195.5" y="193" width="39" height="38.5" stroke="#E4E4E4"/>
<rect x="234.5" y="193" width="39" height="38.5" stroke="#E4E4E4"/>
</svg>
