<svg xmlns="http://www.w3.org/2000/svg" width="1166" height="276" viewBox="0 0 1166 276">
  <defs>
    <mask id="wl5ub" width="2" height="2" x="-1" y="-1">
      <path fill="#fff" d="M71 87h1024v148H71z"/>
      <path d="M71 87s43.098 42.334 170.666 42.691c127.568.358 196.479-17.257 341.334-17.076 144.854.182 253.178 31.951 354.413 31.58 101.235-.367 157.587-31.58 157.587-31.58V235H71z"/>
    </mask>
    <filter id="wl5ua" width="1224" height="378" x="-29" y="-43" filterUnits="userSpaceOnUse">
      <feOffset dy="-30" in="SourceGraphic" result="FeOffset1043Out"/>
      <feGaussianBlur in="FeOffset1043Out" result="FeGaussianBlur1044Out" stdDeviation="36 36"/>
    </filter>
  </defs>
  <g>
    <g>
      <g filter="url(#wl5ua)">
        <path fill="none" d="M71 87s43.098 42.334 170.666 42.691c127.568.358 196.479-17.257 341.334-17.076 144.854.182 253.178 31.951 354.413 31.58 101.235-.367 157.587-31.58 157.587-31.58V235H71z" mask="url(&quot;#wl5ub&quot;)"/>
        <path fill-opacity=".16" d="M71 87s43.098 42.334 170.666 42.691c127.568.358 196.479-17.257 341.334-17.076 144.854.182 253.178 31.951 354.413 31.58 101.235-.367 157.587-31.58 157.587-31.58V235H71z"/>
      </g>
      <path fill="#fff" d="M71 87s43.098 42.334 170.666 42.691c127.568.358 196.479-17.257 341.334-17.076 144.854.182 253.178 31.951 354.413 31.58 101.235-.367 157.587-31.58 157.587-31.58V235H71z"/>
    </g>
  </g>
</svg>