<svg xmlns="http://www.w3.org/2000/svg" width="96" height="96" viewBox="0 0 96 96">
  <g id="Secure_payment" data-name="Secure payment" transform="translate(20.893 22.329)">
    <circle id="bg" cx="48" cy="48" r="48" transform="translate(-20.893 -22.329)" fill="#bc8de0"/>
    <path id="Path_348" data-name="Path 348" d="M4.922,38.138H8.054v3.256a3.925,3.925,0,0,0,3.922,3.929H25.211a1.228,1.228,0,0,0,0-2.455H11.975A1.472,1.472,0,0,1,10.5,41.394V38.138H22.147a1.228,1.228,0,0,0,0-2.455H4.922a1.472,1.472,0,0,1-1.471-1.473V15.058H36.235v3.03a1.225,1.225,0,1,0,2.451,0V10.359A3.925,3.925,0,0,0,34.765,6.43H4.922A3.925,3.925,0,0,0,1,10.359V34.209a3.925,3.925,0,0,0,3.922,3.929Zm0-29.233h29.9a1.472,1.472,0,0,1,1.471,1.473v2.279H3.451v-2.3A1.472,1.472,0,0,1,4.922,8.9Z" fill="#fff"/>
    <path id="Path_349" data-name="Path 349" d="M16.571,55h-4a1.225,1.225,0,1,0,0,2.451h4a1.225,1.225,0,0,0,0-2.451Z" transform="translate(-5.276 -24.721)" fill="#fff"/>
    <path id="Path_350" data-name="Path 350" d="M32.325,55a1.225,1.225,0,1,0,0,2.451h3.98a1.225,1.225,0,0,0,0-2.451Z" transform="translate(-13.904 -24.721)" fill="#fff"/>
    <path id="Path_351" data-name="Path 351" d="M20.419,36.623V33.745A2.73,2.73,0,0,0,17.693,31H14.075a2.73,2.73,0,0,0-2.725,2.725V36.6a2.73,2.73,0,0,0,2.725,2.73H17.7A2.73,2.73,0,0,0,20.419,36.623Zm-2.451,0a.275.275,0,0,1-.275.275H14.075a.275.275,0,0,1-.275-.275V33.745a.275.275,0,0,1,.275-.275H17.7a.275.275,0,0,1,.275.275Z" transform="translate(-5.276 -12.502)" fill="#fff"/>
    <path id="Path_352" data-name="Path 352" d="M74.868,42.662a1.225,1.225,0,0,0-1.225-1.225A12.541,12.541,0,0,1,64.2,37.878a1.226,1.226,0,0,0-1.711,0,12.578,12.578,0,0,1-9.441,3.559,1.225,1.225,0,0,0-1.225,1.225c0,.667,0,1.358-.025,2.069-.132,6.863-.309,16.206,11.147,20.176a1.226,1.226,0,0,0,.8,0C75.206,60.937,75.025,51.569,74.9,44.731,74.877,44.025,74.868,43.334,74.868,42.662ZM63.343,62.457c-9.368-3.456-9.225-11-9.1-17.647v-.922a14.706,14.706,0,0,0,9.078-3.431A14.706,14.706,0,0,0,72.4,43.888c0,.3,0,.613,0,.922C72.569,51.452,72.716,59,63.343,62.457Z" transform="translate(-21.818 -15.786)" fill="#fff"/>
    <path id="Path_353" data-name="Path 353" d="M73.1,58.673,69.265,62.5l-1.343-1.343a1.227,1.227,0,1,0-1.735,1.735L68.4,65.1a1.225,1.225,0,0,0,1.735,0l4.7-4.7A1.225,1.225,0,0,0,73.1,58.673Z" transform="translate(-28.985 -26.425)" fill="#fff"/>
  </g>
</svg>
