<svg xmlns="http://www.w3.org/2000/svg" width="64.031" height="64.031" viewBox="0 0 64.031 64.031">
  <g id="_1" data-name="1" transform="translate(-564.969 -2192)">
    <g id="Ellipse_2" data-name="Ellipse 2" transform="translate(564.969 2192)" fill="none" stroke="#e8e8e8" stroke-width="1">
      <circle cx="32.016" cy="32.016" r="32.016" stroke="none"/>
      <circle cx="32.016" cy="32.016" r="31.516" fill="none"/>
    </g>
    <path id="Path_167" data-name="Path 167" d="M80,15.776a1.4,1.4,0,1,0-1.986,1.986A16.4,16.4,0,0,1,82.8,29.392a16.179,16.179,0,0,1-4.823,11.591,1.371,1.371,0,0,0,0,1.986,1.469,1.469,0,0,0,2.026,0,19.225,19.225,0,0,0,0-27.193Z" transform="translate(530.365 2194.752)" fill="#666"/>
    <path id="Path_168" data-name="Path 168" d="M5.337,29.452a16.111,16.111,0,0,1,4.823-11.591,1.4,1.4,0,1,0-1.986-1.986A18.74,18.74,0,0,0,2.5,29.452,19.094,19.094,0,0,0,8.133,43.069a1.469,1.469,0,0,0,2.026,0,1.371,1.371,0,0,0,0-1.986A16.341,16.341,0,0,1,5.337,29.452Z" transform="translate(575 2194.693)" fill="#666"/>
    <path id="Path_169" data-name="Path 169" d="M68.261,27.576a1.4,1.4,0,1,0-1.986,1.986,9.589,9.589,0,0,1,0,13.617,1.371,1.371,0,0,0,0,1.986,1.469,1.469,0,0,0,2.026,0,12.354,12.354,0,0,0,3.647-8.794A12.637,12.637,0,0,0,68.261,27.576Z" transform="translate(537.323 2187.735)" fill="#666"/>
    <path id="Path_170" data-name="Path 170" d="M22.1,36.47a9.532,9.532,0,0,1,2.837-6.808,1.4,1.4,0,0,0-1.986-1.986,12.475,12.475,0,0,0,.041,17.669,1.419,1.419,0,1,0,2.026-1.986A9.6,9.6,0,0,1,22.1,36.47Z" transform="translate(565.008 2187.675)" fill="#666"/>
    <path id="Path_171" data-name="Path 171" d="M34.274,14.722h-2.99l1.76-6.283a.358.358,0,0,0-.624-.322l-7.077,8.44a.356.356,0,0,0,.265.587H28.6l-1.76,6.283a.358.358,0,0,0,.624.322l7.1-8.44A.363.363,0,0,0,34.274,14.722Z" transform="translate(566.362 2208.018)" fill="#ff5a39"/>
  </g>
</svg>
