<svg width="42" height="42" viewBox="0 0 42 42" fill="none" xmlns="http://www.w3.org/2000/svg">
<g clip-path="url(#clip0)">
<path d="M22.6217 26.7787L21.8784 27.5158C21.5636 27.8279 21.0547 27.8279 20.7433 27.5158L14.2344 21.0644C13.9197 20.7523 13.9197 20.2477 14.2344 19.9389L20.7433 13.4842C21.058 13.1721 21.567 13.1721 21.8784 13.4842L22.6217 14.2213C22.9397 14.5367 22.933 15.0514 22.6083 15.3602L18.5737 19.1719H28.1964C28.6418 19.1719 29 19.5271 29 19.9687V21.0312C29 21.4728 28.6418 21.8281 28.1964 21.8281H18.5737L22.6083 25.6398C22.9364 25.9486 22.9431 26.4633 22.6217 26.7787Z" fill="#FF5A39"/>
</g>
<circle cx="21" cy="21" r="20" stroke="#FF5A39"/>
<defs>
<clipPath id="clip0">
<rect width="15" height="17" fill="white" transform="translate(14 12)"/>
</clipPath>
</defs>
</svg>
