<svg xmlns="http://www.w3.org/2000/svg" width="48" height="48" viewBox="0 0 48 48">
    <defs>
        <style>
            .cls-1{fill:none}.cls-2,.cls-3{stroke:none}.cls-3{fill:#ff5a39}
        </style>
    </defs>
    <g id="bg" class="cls-1">
        <path d="M24 0a24 24 0 1 0 24 24A24 24 0 0 0 24 0z" class="cls-2"/>
        <path d="M24 1A22.925 22.925 0 0 0 7.737 7.737 22.925 22.925 0 0 0 1 24a22.925 22.925 0 0 0 6.737 16.263A22.925 22.925 0 0 0 24 47a22.925 22.925 0 0 0 16.263-6.737A22.925 22.925 0 0 0 47 24a22.925 22.925 0 0 0-6.737-16.263A22.925 22.925 0 0 0 24 1m0-1c13.255 0 24 10.745 24 24S37.255 48 24 48 0 37.255 0 24 10.745 0 24 0z" class="cls-3"/>
    </g>
</svg>
