<svg xmlns="http://www.w3.org/2000/svg" width="25.774" height="27.871" viewBox="0 0 25.774 27.871">
    <defs>
        <style>
            .cls-1{fill:#fff}
        </style>
    </defs>
    <g id="noun_Trophy_1340427" transform="translate(217.49 42.936)">
        <g id="Group_61" transform="translate(-217.49 -42.936)">
            <path id="Path_52" d="M8.305 13.253a7.536 7.536 0 0 0 4.153 3.006 5.779 5.779 0 0 0-1.038 3.563 5.848 5.848 0 0 0 .991 3.5c-2.966.414-5.126 2.088-5.126 4.15a.468.468 0 0 0 .467.467h12.193a.467.467 0 0 0 .467-.467c0-2.062-2.16-3.735-5.126-4.15a5.846 5.846 0 0 0 .991-3.5 5.773 5.773 0 0 0-1.046-3.576 7.8 7.8 0 0 0 4.115-2.978h.015c4.48-1.749 7.374-5.439 7.374-9.4A1.162 1.162 0 0 0 26.317 3a1 1 0 0 0-.927-.088 4.184 4.184 0 0 1-1.743.377A2.823 2.823 0 0 1 23 3.208c.021-.184.05-.365.068-.552.062-.674.125-1.37.125-2.125a.468.468 0 0 0-.463-.467H4.968A.467.467 0 0 0 4.5.531c0 .691.053 1.324.109 1.994l.048.549v.006c0 .041.011.081.015.12a3.629 3.629 0 0 1-2.412-.3.988.988 0 0 0-.95.166 1.122 1.122 0 0 0-.349.8c0 3.953 2.883 7.634 7.344 9.387zM19.42 27H8.279c.4-1.587 2.788-2.85 5.57-2.85s5.173 1.265 5.571 2.85zm-4.076-7.178c0 1.943-.789 3.394-1.494 3.394s-1.493-1.451-1.493-3.394c0-1.922.771-3.359 1.471-3.389h.043c.7.03 1.473 1.467 1.473 3.391zm10.387-16.1a.193.193 0 0 1 .074.142c0 3.18-2.114 6.174-5.481 7.929a21.532 21.532 0 0 0 2.57-7.67 3.981 3.981 0 0 0 2.837-.399zM22.257 1c-.019.537-.064 1.055-.113 1.631a20.658 20.658 0 0 1-3.106 9.461.416.416 0 0 0-.05.1.375.375 0 0 0-.028.053c-1.484 2.125-3.241 3.251-5.084 3.261h-.056c-1.34-.008-3.307-.586-5.122-3.274a1.869 1.869 0 0 0-.11-.152 19.918 19.918 0 0 1-3-9.08l-.048-.549c-.041-.5-.082-.968-.1-1.452zM1.914 3.766a4.548 4.548 0 0 0 2.871.362A21.045 21.045 0 0 0 7.3 11.757C3.974 10 1.9 7.022 1.9 3.867a.233.233 0 0 1 .014-.101z" class="cls-1" transform="translate(-.961 -.064)"/>
            <path id="Path_53" d="M10.126 8.189l-.437 2.537a.467.467 0 0 0 .678.493l2.279-1.2 2.279 1.2a.467.467 0 0 0 .678-.492l-.436-2.539 1.844-1.8a.466.466 0 0 0-.258-.8L14.2 5.224l-1.136-2.309a.486.486 0 0 0-.837 0l-1.139 2.307-2.549.372a.466.466 0 0 0-.258.8zm1.26-2.064a.611.611 0 0 0 .467-.339l.793-1.608.8 1.615a.619.619 0 0 0 .461.332l1.777.259L14.4 7.638a.612.612 0 0 0-.176.545l.3 1.77-1.589-.835a.606.606 0 0 0-.287-.072.806.806 0 0 0-.288.071l-1.587.835.3-1.772a.615.615 0 0 0-.179-.543L9.61 6.384z" class="cls-1" transform="translate(.242 .374)"/>
        </g>
    </g>
</svg>
